<?xml version="1.0" encoding="utf-8"?>
<!-- Generator: Adobe Illustrator 23.0.2, SVG Export Plug-In . SVG Version: 6.00 Build 0)  -->
<svg version="1.1" id="Layer_1" xmlns="http://www.w3.org/2000/svg" xmlns:xlink="http://www.w3.org/1999/xlink" x="0px" y="0px"
	 viewBox="0 0 400 200" style="enable-background:new 0 0 400 200;" xml:space="preserve">
<style type="text/css">
	.st0{opacity:5.000000e-02;enable-background:new    ;}
	.st1{fill:#FFFFFF;}
	.st2{fill-rule:evenodd;clip-rule:evenodd;fill:#A5A4A4;}
	.st3{fill-rule:evenodd;clip-rule:evenodd;}
	.st4{fill-rule:evenodd;clip-rule:evenodd;fill:#FFFFFF;}
	.st5{fill-rule:evenodd;clip-rule:evenodd;fill:#FFFFFF;filter:url(#Adobe_OpacityMaskFilter);}
	.st6{mask:url(#mask0_1_);}
	.st7{fill-rule:evenodd;clip-rule:evenodd;fill:#27A197;}
	.st8{fill-rule:evenodd;clip-rule:evenodd;fill:#50BFB6;}
	.st9{fill:#D3DDF0;}
	.st10{fill:#F1656A;}
	.st11{fill:#FFE169;}
	.st12{fill:#91CFA5;}
	.st13{fill:#E4E9F6;}
</style>
<g>
	<path class="st0" d="M259.3,44.2H121.4c-4.4,0-8,3.6-8,8v100.7c0,4.4,3.6,8,8,8h137.8c4.4,0,8-3.6,8-8V52.1
		C267.2,47.8,263.7,44.2,259.3,44.2z"/>
	<path class="st1" d="M268.4,47.1h-147v105.6h147V47.1z"/>
	<path d="M268.3,54.2H122.1v33.4h146.2V54.2z"/>
	<path class="st1" d="M184.6,79.7H136c-1.2,0-2.1-0.9-2.1-2.1c0-1.2,0.9-2.1,2.1-2.1h48.6c1.2,0,2.1,0.9,2.1,2.1
		C186.7,78.8,185.8,79.7,184.6,79.7z"/>
	<path class="st2" d="M134.6,147.4c0-1.1,0.9-2,2-2h53c1.1,0,2,0.9,2,2v2c0,1.1-0.9,2-2,2h-53c-1.1,0-2-0.9-2-2V147.4z"/>
	<path class="st2" d="M134.6,133.4c0-1.1,0.9-2,2-2h29c1.1,0,2,0.9,2,2v2c0,1.1-0.9,2-2,2h-29c-1.1,0-2-0.9-2-2V133.4z"/>
	<path class="st2" d="M134.6,125.5c0-1.1,0.9-2,2-2h53c1.1,0,2,0.9,2,2v1c0,1.1-0.9,2-2,2h-53c-1.1,0-2-0.9-2-2V125.5z"/>
	<path class="st2" d="M134.6,116.5c0-1.1,0.9-2,2-2h53c1.1,0,2,0.9,2,2v2c0,1.1-0.9,2-2,2h-53c-1.1,0-2-0.9-2-2V116.5z"/>
	<path class="st2" d="M134.6,108.5c0-1.1,0.9-2,2-2h53c1.1,0,2,0.9,2,2v1c0,1.1-0.9,2-2,2h-53c-1.1,0-2-0.9-2-2V108.5z"/>
	<path class="st3" d="M134.6,98.5c0-1.1,0.9-2,2-2h20c1.1,0,2,0.9,2,2v2c0,1.1-0.9,2-2,2h-20c-1.1,0-2-0.9-2-2V98.5z"/>
	<path class="st4" d="M133.6,67.5c0-1.1,0.9-2,2-2h20c1.1,0,2,0.9,2,2v2c0,1.1-0.9,2-2,2h-20c-1.1,0-2-0.9-2-2V67.5z"/>
	<defs>
		<filter id="Adobe_OpacityMaskFilter" filterUnits="userSpaceOnUse" x="166.6" y="65.5" width="120" height="61.4">
			<feColorMatrix  type="matrix" values="1 0 0 0 0  0 1 0 0 0  0 0 1 0 0  0 0 0 1 0"/>
		</filter>
	</defs>
	<mask maskUnits="userSpaceOnUse" x="166.6" y="65.5" width="120" height="61.4" id="mask0_1_">
		<path class="st5" d="M198.6,67.5c0-1.1,0.9-2,2-2h53c1.1,0,2,0.9,2,2v57c0,1.1-0.9,2-2,2h-53c-1.1,0-2-0.9-2-2V67.5z"/>
	</mask>
	<g class="st6">
		<path class="st7" d="M198.6,67.5c0-1.1,0.9-2,2-2h53c1.1,0,2,0.9,2,2v57c0,1.1-0.9,2-2,2h-53c-1.1,0-2-0.9-2-2V67.5z"/>
		<path class="st8" d="M234.6,85.5c0,5.5-4.5,10-10,10c-5.5,0-10-4.5-10-10c0-5.5,4.5-10,10-10C230.1,75.5,234.6,79.9,234.6,85.5z
			 M228.8,110.4l25.7-14.5c0.9-0.5,2.1-0.6,3-0.1l29,13.7v17.4h-120v-9.7l38.8-16.4c0.9-0.4,2-0.3,2.9,0.2l17.2,9.5
			C226.6,110.9,227.8,110.9,228.8,110.4z"/>
	</g>
	<path class="st9" d="M264.3,39.2H126.4c-4.4,0-8,3.6-8,8v100.7c0,4.4,3.6,8,8,8h137.8c4.4,0,8-3.6,8-8V47.1
		C272.2,42.8,268.6,39.2,264.3,39.2z M251,44.5h2.6c1.5,0,2.6,1.2,2.6,2.7s-1.2,2.7-2.6,2.7H251c-1.5,0-2.7-1.2-2.7-2.7
		C248.4,45.7,249.5,44.5,251,44.5z M176.8,44.5h63.6c1.5,0,2.6,1.2,2.6,2.7s-1.2,2.7-2.6,2.7h-63.6c-1.5,0-2.7-1.2-2.7-2.7
		S175.3,44.5,176.8,44.5z M163.5,44.5h2.7c1.5,0,2.6,1.2,2.6,2.7s-1.2,2.7-2.6,2.7h-2.7c-1.5,0-2.6-1.2-2.6-2.7
		S162.1,44.5,163.5,44.5z M152.9,44.5h2.7c1.5,0,2.6,1.2,2.6,2.7s-1.2,2.7-2.6,2.7h-2.7c-1.5,0-2.6-1.2-2.6-2.7
		S151.5,44.5,152.9,44.5z M142.3,44.5c1.5,0,2.7,1.2,2.7,2.7s-1.2,2.7-2.7,2.7s-2.6-1.2-2.6-2.7S140.9,44.5,142.3,44.5z M134.4,44.5
		c1.5,0,2.6,1.2,2.6,2.7s-1.2,2.7-2.7,2.7s-2.7-1.2-2.7-2.7C131.7,45.7,132.9,44.5,134.4,44.5z M126.4,44.5c1.5,0,2.7,1.2,2.7,2.7
		s-1.2,2.7-2.7,2.7s-2.7-1.2-2.7-2.7C123.8,45.7,125,44.5,126.4,44.5z M266.9,71v76.9c0,1.5-1.2,2.6-2.6,2.6H126.4
		c-1.5,0-2.7-1.2-2.7-2.6V71V57.7c0-1.5,1.2-2.7,2.7-2.7h137.8c1.5,0,2.6,1.2,2.6,2.7L266.9,71z M264.3,49.8h-2.7
		c-1.5,0-2.7-1.2-2.7-2.7s1.2-2.7,2.7-2.7h2.6c1.5,0,2.6,1.2,2.6,2.7C266.9,48.6,265.7,49.8,264.3,49.8z"/>
	<path class="st10" d="M126.4,49.8c1.5,0,2.7-1.2,2.7-2.7s-1.2-2.7-2.7-2.7c-1.5,0-2.7,1.2-2.7,2.7S124.9,49.8,126.4,49.8z"/>
	<path class="st11" d="M134.4,49.7c1.4,0,2.6-1.2,2.6-2.6s-1.2-2.6-2.6-2.6s-2.6,1.2-2.6,2.6S133,49.7,134.4,49.7z"/>
	<path class="st12" d="M142.3,49.7c1.4,0,2.6-1.2,2.6-2.6s-1.2-2.6-2.6-2.6c-1.4,0-2.6,1.2-2.6,2.6S140.9,49.7,142.3,49.7z"/>
	<path class="st13" d="M152.9,49.8h2.7c1.5,0,2.6-1.2,2.6-2.7s-1.1-2.6-2.6-2.6h-2.7c-1.5,0-2.6,1.2-2.6,2.7
		C150.3,48.6,151.5,49.8,152.9,49.8z"/>
	<path class="st13" d="M163.5,49.8h2.7c1.5,0,2.6-1.2,2.6-2.7s-1.2-2.7-2.6-2.7h-2.7c-1.5,0-2.6,1.2-2.6,2.7S162.1,49.8,163.5,49.8z
		"/>
	<path class="st13" d="M251,49.8h2.6c1.5,0,2.6-1.2,2.6-2.7s-1.2-2.7-2.6-2.7H251c-1.5,0-2.7,1.2-2.7,2.7
		C248.4,48.6,249.5,49.8,251,49.8z"/>
	<path class="st13" d="M264.3,44.5h-2.7c-1.5,0-2.7,1.2-2.7,2.7s1.2,2.7,2.7,2.7h2.6c1.5,0,2.6-1.2,2.6-2.7
		C266.9,45.7,265.7,44.5,264.3,44.5z"/>
	<path class="st13" d="M176.8,49.8h63.6c1.5,0,2.6-1.2,2.6-2.7s-1.2-2.7-2.6-2.7h-63.6c-1.5,0-2.7,1.2-2.7,2.7
		S175.3,49.8,176.8,49.8z"/>
</g>
</svg>
