<?xml version="1.0" encoding="utf-8"?>
<svg version="1.1" id="Layer_1" xmlns="http://www.w3.org/2000/svg" xmlns:xlink="http://www.w3.org/1999/xlink" x="0px" y="0px"
	 viewBox="0 0 31.1 31.2" style="enable-background:new 0 0 31.1 31.2;" xml:space="preserve">
<g>
    <path fill="#0478FF" d="M15.5,31.1C7,31.1,0,24.1,0,15.5S7,0,15.5,0s15.5,7,15.5,15.5C31.1,24.1,24.1,31.1,15.5,31.1z M15.5,1.8
        C7.9,1.8,1.8,7.9,1.8,15.5s6.2,13.8,13.8,13.8c7.6,0,13.8-6.2,13.8-13.8S23.1,1.8,15.5,1.8z"/>
    <path fill="#0478FF" d="M21.7,16.4H9.4c-0.5,0-0.9-0.4-0.9-0.9c0-0.5,0.4-0.9,0.9-0.9h12.2c0.5,0,0.9,0.4,0.9,0.9
        C22.5,16,22.1,16.4,21.7,16.4z"/>
    <path fill="#0478FF" d="M15.5,22.5c-0.5,0-0.9-0.4-0.9-0.9V9.4c0-0.5,0.4-0.9,0.9-0.9c0.5,0,0.9,0.4,0.9,0.9v12.2
        C16.4,22.1,16,22.5,15.5,22.5z"/>
</g>
</svg>
