<svg width="26" height="26" viewBox="0 0 26 26" fill="none" xmlns="http://www.w3.org/2000/svg">
<path d="M24.973 7.943C24.2883 6.357 23.361 4.979 22.191 3.809C21.021 2.639 19.643 1.71167 18.057 1.027C16.471 0.342333 14.7853 0 13 0C11.804 0 10.6513 0.156 9.542 0.468C8.43267 0.78 7.397 1.21767 6.435 1.781C5.473 2.34433 4.59767 3.02033 3.809 3.809C3.02033 4.59767 2.34433 5.473 1.781 6.435C1.21767 7.39709 0.78 8.43267 0.468 9.542C0.156 10.6513 0 11.804 0 13C0 14.196 0.156 15.3487 0.468 16.458C0.78 17.5672 1.21767 18.6029 1.781 19.565C2.34433 20.527 3.02033 21.4024 3.809 22.191C4.59767 22.9797 5.473 23.6558 6.435 24.219C7.397 24.7823 8.43267 25.22 9.542 25.532C10.6513 25.844 11.804 26 13 26C14.196 26 15.3487 25.844 16.458 25.532C17.5673 25.2199 18.6029 24.7823 19.565 24.219C20.527 23.6557 21.4024 22.9797 22.191 22.191C22.9797 21.4024 23.6558 20.527 24.219 19.565C24.7824 18.6029 25.22 17.5673 25.532 16.458C25.844 15.3487 26 14.196 26 13C26 11.2147 25.6577 9.529 24.973 7.943ZM12.61 9.022C12.5233 9.14329 12.428 9.204 12.324 9.204C10.5387 9.464 9.646 10.2873 9.646 11.674H11.232C11.5093 11.674 11.648 11.8127 11.648 12.09V18.07C11.648 18.3473 11.5093 18.486 11.232 18.486H6.24C5.96267 18.486 5.824 18.3473 5.824 18.07V12.896C5.824 8.82267 7.81733 6.682 11.804 6.474C11.908 6.45667 11.999 6.48267 12.077 6.552C12.155 6.62133 12.2113 6.708 12.246 6.812L12.662 8.71C12.6967 8.83133 12.6793 8.93533 12.61 9.022ZM20.306 9.022C20.2367 9.14329 20.1413 9.204 20.0201 9.204C18.2695 9.464 17.3767 10.2873 17.3421 11.674H18.9281C19.0494 11.674 19.1535 11.713 19.2401 11.791C19.3268 11.869 19.3703 11.9687 19.3703 12.09V18.07C19.3703 18.1913 19.3269 18.291 19.2401 18.369C19.1534 18.447 19.0494 18.486 18.9281 18.486H13.962C13.8408 18.486 13.7367 18.447 13.65 18.369C13.5633 18.291 13.52 18.1913 13.52 18.07V12.896C13.52 8.82267 15.522 6.682 19.526 6.474C19.6299 6.45667 19.721 6.48267 19.799 6.552C19.877 6.62133 19.9334 6.708 19.968 6.812L20.384 8.71C20.4187 8.83133 20.3927 8.93533 20.306 9.022Z" fill="white"/>
</svg>
