<?xml version="1.0" encoding="utf-8"?>
<!-- Generator: Adobe Illustrator 23.0.0, SVG Export Plug-In . SVG Version: 6.00 Build 0)  -->
<svg version="1.1" id="Layer_1" xmlns="http://www.w3.org/2000/svg" xmlns:xlink="http://www.w3.org/1999/xlink" x="0px" y="0px"
	 viewBox="0 0 30 30" style="enable-background:new 0 0 30 30;" xml:space="preserve">
<style type="text/css">
	.st0{fill:#28A197;}
</style>
<path class="st0" d="M15,0C6.72,0,0,6.72,0,15c0,8.28,6.72,15,15,15s15-6.72,15-15C30,6.72,23.28,0,15,0z M22.7,9.94l-8.89,9.73
	c0,0,0,0,0,0C13.6,19.89,13.33,20,13.07,20s-0.53-0.11-0.73-0.33L8.3,15.26c-0.41-0.44-0.41-1.16,0-1.61c0.41-0.44,1.06-0.44,1.47,0
	l3.3,3.61l8.16-8.93c0.4-0.44,1.06-0.44,1.47,0C23.1,8.78,23.1,9.49,22.7,9.94z"/>
</svg>
