<?xml version="1.0" encoding="utf-8"?>
<!-- Generator: Adobe Illustrator 23.0.2, SVG Export Plug-In . SVG Version: 6.00 Build 0)  -->
<svg version="1.1" id="Capa_1" xmlns="http://www.w3.org/2000/svg" xmlns:xlink="http://www.w3.org/1999/xlink" x="0px" y="0px"
	 viewBox="0 0 590.9 841.9" style="enable-background:new 0 0 590.9 841.9;" xml:space="preserve">
<style type="text/css">
	.st0{fill:#FFB007;}
</style>
<g>
	<g>
		<g>
			<path class="st0" d="M295.4,0C132.3,0,0,132.3,0,295.4c0,12.5,1,24.7,2.5,36.7c25.2,230.8,273.7,496.8,273.7,496.8
				c4.4,5,8.7,8,12.8,10.2l0.2,0.1l8.3,2.6l8.3-2.6l0.2-0.1c4.1-2.2,8.4-5.4,12.8-10.2c0,0,244.9-266.5,269.6-497.3
				c1.5-11.9,2.5-24,2.5-36.3C590.8,132.3,458.6,0,295.4,0z M295.4,485.5c-104.8,0-190-85.3-190-190s85.3-190,190-190
				s190,85.3,190,190S400.2,485.5,295.4,485.5z"/>
		</g>
	</g>
</g>
</svg>
