<?xml version="1.0" encoding="utf-8"?>
<!-- Generator: Adobe Illustrator 23.0.0, SVG Export Plug-In . SVG Version: 6.00 Build 0)  -->
<svg version="1.1" id="Layer_1" xmlns="http://www.w3.org/2000/svg" xmlns:xlink="http://www.w3.org/1999/xlink" x="0px" y="0px"
	 viewBox="0 0 51 42" style="enable-background:new 0 0 51 42;" xml:space="preserve">
<path d="M23.7,8.8c-0.3,0.4-0.6,0.6-1,0.6c-6.2,0.9-9.4,3.7-9.4,8.5h5.5c1,0,1.5,0.5,1.5,1.4v20.5c0,1-0.5,1.4-1.5,1.4H1.5
	c-1,0-1.5-0.5-1.5-1.4V22C0,8.1,7,0.7,20.9,0c0.4-0.1,0.7,0,1,0.3c0.3,0.2,0.5,0.5,0.6,0.9l1.5,6.5C24,8.1,23.9,8.5,23.7,8.8z
	 M50.6,8.8c-0.2,0.4-0.6,0.6-1,0.6c-6.1,0.9-9.2,3.7-9.4,8.5h5.5c0.4,0,0.8,0.1,1.1,0.4c0.3,0.3,0.5,0.6,0.5,1v20.5
	c0,0.4-0.2,0.8-0.5,1c-0.3,0.3-0.7,0.4-1.1,0.4H28.4c-0.4,0-0.8-0.1-1.1-0.4c-0.3-0.3-0.5-0.6-0.5-1V22c0-14,7-21.3,21-22
	c0.4-0.1,0.7,0,1,0.3c0.3,0.2,0.5,0.5,0.6,0.9l1.5,6.5C51,8.1,50.9,8.5,50.6,8.8z"/>
</svg>
