<?xml version="1.0" encoding="utf-8"?>
<!-- Generator: Adobe Illustrator 23.0.2, SVG Export Plug-In . SVG Version: 6.00 Build 0)  -->
<svg version="1.1" id="Capa_1" xmlns="http://www.w3.org/2000/svg" xmlns:xlink="http://www.w3.org/1999/xlink" x="0px" y="0px"
	 viewBox="0 0 490.7 467.3" style="enable-background:new 0 0 490.7 467.3;" xml:space="preserve">
<style type="text/css">
	.st0{fill:#FFB007;}
</style>
<g>
	<path class="st0" d="M453.4,148.5l-119.7-8.6c-2.5-0.2-4.7-1.7-5.6-4.1l-45.6-111C276.2,9.5,262,0,245.4,0s-30.7,9.5-37.1,24.9
		L162.6,136c-1,2.3-3.1,3.9-5.6,4.1l-119.5,8.6c-16.2,0.9-30,11.5-35.3,27.1c-5.4,15.8-0.9,32.4,11.9,43.3l92.5,76.4
		c1.9,1.6,2.8,4.2,2.2,6.6L80.6,417.5c-3.3,12-1,24.4,6.3,34.1c7.5,9.8,19.2,15.7,31.5,15.7c7.6,0,15-2.3,21.1-6.4L240.6,398
		c2.1-1.3,4.8-1.3,6.9,0l102.1,62.7c6.4,4.3,13.8,6.6,21.3,6.6c11.5,0,22.9-5.5,30.3-14.8c7.7-9.6,10.5-22.1,7.7-34.6l-28.3-115.7
		c-0.6-2.5,0.3-5.1,2.2-6.7l93.9-76.6c12.6-10.8,17.1-27.4,11.8-43.2C483.3,160.1,469.4,149.4,453.4,148.5z"/>
</g>
</svg>
