<?xml version="1.0" encoding="utf-8"?>
<!-- Generator: Adobe Illustrator 23.0.2, SVG Export Plug-In . SVG Version: 6.00 Build 0)  -->
<svg version="1.1" id="Layer_1" xmlns="http://www.w3.org/2000/svg" xmlns:xlink="http://www.w3.org/1999/xlink" x="0px" y="0px"
	 viewBox="0 0 346.8 427" style="enable-background:new 0 0 346.8 427;" xml:space="preserve">
<path d="M232.4,154.7c-5.5,0-10,4.5-10,10v189c0,5.5,4.5,10,10,10s10-4.5,10-10v-189C242.4,159.2,237.9,154.7,232.4,154.7z"/>
<path d="M114.4,154.7c-5.5,0-10,4.5-10,10v189c0,5.5,4.5,10,10,10s10-4.5,10-10v-189C124.4,159.2,119.9,154.7,114.4,154.7z"/>
<path d="M28.4,127.1v246.4c0,14.6,5.3,28.2,14.7,38.1c9.3,9.8,22.2,15.4,35.7,15.4H268c13.5,0,26.4-5.6,35.7-15.4
	c9.3-9.8,14.7-23.5,14.7-38.1V127.1c18.5-4.9,30.6-22.8,28.1-41.9C344,66.2,327.8,52,308.6,52h-51.2V39.5c0.1-10.5-4.1-20.6-11.5-28
	C238.4,4,228.3-0.1,217.8,0H129c-10.5-0.1-20.6,4-28.1,11.5c-7.4,7.4-11.6,17.5-11.5,28V52H38.2C19,52,2.8,66.2,0.3,85.3
	C-2.2,104.3,9.9,122.2,28.4,127.1z M268,407H78.8c-17.1,0-30.4-14.7-30.4-33.5V128h250v245.5C298.4,392.3,285.1,407,268,407z
	 M109.4,39.5c-0.1-5.2,2-10.2,5.7-13.9c3.7-3.7,8.7-5.7,13.9-5.6h88.8c5.2-0.1,10.2,1.9,13.9,5.6c3.7,3.7,5.7,8.7,5.7,13.9V52h-128
	V39.5z M38.2,72h270.4c9.9,0,18,8.1,18,18s-8.1,18-18,18H38.2c-9.9,0-18-8.1-18-18S28.3,72,38.2,72z"/>
<path d="M173.4,154.7c-5.5,0-10,4.5-10,10v189c0,5.5,4.5,10,10,10s10-4.5,10-10v-189C183.4,159.2,178.9,154.7,173.4,154.7z"/>
</svg>
