<?xml version="1.0" encoding="utf-8"?>
<svg version="1.1" id="Capa_1" xmlns="http://www.w3.org/2000/svg" xmlns:xlink="http://www.w3.org/1999/xlink" x="0px" y="0px"
	 viewBox="0 0 45.3 58" style="enable-background:new 0 0 45.3 58;" xml:space="preserve">
<style type="text/css">
	.st0{fill:#ffb007;}
</style>
<g>
	<path class="st0" d="M44.7,12.2L44,11.4L33.9,1.3l-0.8-0.8C32.8,0.2,32.3,0,31.8,0h-29C1.6,0,0.3,0.9,0.3,2.9V39v16.5V56
		c0,0.8,0.8,1.7,1.8,1.9c0.1,0,0.1,0,0.1,0c0.2,0,0.3,0,0.5,0h40.1c0.2,0,0.3,0,0.5,0c0.1,0,0.1,0,0.2,0c1-0.3,1.8-1.1,1.8-1.9v-0.5
		V39V14C45.3,13.2,45.2,12.6,44.7,12.2z M41.7,12h-8.4V3.6L41.7,12z M2.7,56c-0.1,0-0.1,0-0.2,0c-0.2-0.1-0.3-0.2-0.3-0.4V41h41
		v14.5c0,0.2-0.1,0.3-0.3,0.4c-0.1,0-0.1,0-0.2,0H2.7z M2.3,39V2.9c0-0.2,0-0.9,0.5-0.9h28.6c0,0.1-0.1,0.3-0.1,0.4V14h11.6
		c0.1,0,0.3,0,0.4-0.1c0,0,0,0,0,0v25H2.3z"/>
	<path class="st0" d="M15.8,44.7c-0.3-0.3-0.7-0.5-1.1-0.6c-0.4-0.1-0.8-0.2-1.3-0.2h-2.9V54h1.6v-3.6h1.2c0.5,0,1-0.1,1.4-0.2
		s0.8-0.4,1.1-0.7c0.3-0.3,0.6-0.6,0.7-1c0.2-0.4,0.3-0.9,0.3-1.4c0-0.5-0.1-0.9-0.3-1.3S16.2,45,15.8,44.7z M15.2,48.1
		c-0.1,0.3-0.2,0.5-0.4,0.6s-0.3,0.3-0.5,0.3c-0.2,0.1-0.4,0.1-0.6,0.1h-1.5v-4h1.2c0.4,0,0.8,0.1,1,0.2c0.3,0.1,0.5,0.3,0.6,0.5
		c0.1,0.2,0.2,0.4,0.3,0.6c0,0.2,0.1,0.4,0.1,0.6C15.4,47.5,15.3,47.8,15.2,48.1z"/>
	<path class="st0" d="M25.7,45.4c-0.4-0.4-1-0.8-1.6-1.1s-1.4-0.4-2.2-0.4h-3V54h3.8c0.1,0,0.3,0,0.6,0c0.3,0,0.6-0.1,0.9-0.2
		c0.3-0.1,0.6-0.3,1-0.5s0.6-0.5,0.9-0.9s0.5-0.9,0.7-1.5s0.3-1.3,0.3-2.1c0-0.6-0.1-1.2-0.3-1.8C26.5,46.4,26.2,45.8,25.7,45.4z
		 M24.5,51.7c-0.5,0.7-1.3,1.1-2.4,1.1h-1.6v-7.6h1c0.8,0,1.4,0.1,1.9,0.3s0.9,0.5,1.2,0.8s0.5,0.7,0.6,1.1c0.1,0.4,0.1,0.8,0.1,1.2
		C25.3,50,25,51,24.5,51.7z"/>
	<polygon class="st0" points="29.4,54 31.1,54 31.1,49.5 35.3,49.5 35.3,48.3 31.1,48.3 31.1,45.2 35.7,45.2 35.7,43.9 29.4,43.9 	
		"/>
	<path class="st0" d="M32.2,23c-0.9,0-2,0.1-3.4,0.4c-1.8-1.9-3.7-4.8-5.1-7.6c1.3-5.6,0.7-6.4,0.4-6.8c-0.3-0.4-0.8-1-1.3-1
		c-0.2,0-0.8,0.1-1,0.2c-0.6,0.2-0.9,0.6-1.1,1.2C20,10.9,21,13.8,22,15.9c-0.9,3.4-2.3,7.5-3.8,10.8c-3.8,1.7-5.8,3.4-6,5.1
		c-0.1,0.6,0.1,1.5,1.1,2.2c0.3,0.2,0.6,0.3,1,0.3l0,0c0.9,0,1.8-0.7,2.8-2.1c0.7-1,1.5-2.5,2.4-4.3c2.7-1.2,6-2.2,8.8-2.8
		c1.6,1.5,3,2.3,4.2,2.3c0.9,0,1.7-0.4,2.2-1.2c0.6-0.8,0.7-1.5,0.4-2.2C34.7,23.3,33.8,23,32.2,23z M14.3,32.6
		c-0.5-0.4-0.4-0.6-0.4-0.7c0.1-0.6,0.9-1.5,3.1-2.7C15.3,32.2,14.5,32.6,14.3,32.6z M22.5,9.7c0,0,1,1.1,0.1,3.2
		C21.2,11.5,22.4,9.7,22.5,9.7z M20.5,25.7c1-2.4,2-5.1,2.7-7.6c1.1,2,2.5,4,3.8,5.5C24.8,24.2,22.5,24.9,20.5,25.7z M33.4,25.3
		c-0.3,0.4-1,0.4-1.2,0.4c-0.5,0-0.7-0.3-1.5-0.9c0.7-0.1,1.3-0.1,1.8-0.1c0.9,0,1.1,0.1,1.2,0.2C33.6,24.9,33.5,25,33.4,25.3z"/>
</g>
</svg>
