<svg xmlns="http://www.w3.org/2000/svg" viewBox="0 0 664.955 148.529" width="664.955" height="148.529"><style>.st0{fill:#0a2240}</style><path class="st0" d="M138.438 68.815c4.094-3.608 4.094-9.458 0-13.066l-22.241-19.598c-4.095-3.608-10.733-3.608-14.827 0L79.129 55.749c-4.095 3.608-4.095 9.458 0 13.066l22.24 19.598c4.095 3.607 10.733 3.607 14.827 0l22.242-19.598z"/><path d="M89.27 109.61s4.275-7.241-.372-11.656C82.578 91.95 58.41 70.406 58.41 70.406s-8.55-8.83.372-16.954l29.692-26.918s4.884-5.929.05-11.933C84.375 9.443 73.283 1.533 73.283 1.533s-5.576-4.592-14.127 2.119C51.125 9.954 4.131 53.099 4.131 53.099s-9.295 8.83 0 17.66c9.295 8.829 53.908 50.505 53.908 50.505s8.18 7.065 14.872 2.12 16.358-13.775 16.358-13.775z" fill="#a7a8a9"/><path class="st0" d="M246.577 108.375l-5.12-1.76c-10.88 3.2-20.64 5.28-30.24 5.28-28.801 0-45.282-18.4-45.282-51.2 0-32.001 18.721-52.322 49.602-52.322 6.88 0 14.88.96 23.84 3.04l11.04-3.2v32.16l-4.8-.639c-5.12-18.24-14.24-26.72-29.12-26.72-23.2 0-34.881 16.48-34.881 49.28 0 29.12 12.16 44.641 34.56 44.641 14.88 0 25.281-9.44 31.841-28.32h4.16l-2.72 29.76h-2.88zM261.678 6.453c-1.6 0-2.56-.64-2.56-1.92.16-1.12.8-1.76 2.08-1.76h.48c9.76-.16 16.8-.64 21.44-2.08v88.321c0 10.082 1.12 14.561 9.92 16.641 1.6 0 2.4.48 2.4 1.92v.32c0 1.28-.64 1.92-1.92 1.92h-.48c-4.64-.16-9.44-.32-14.4-.32-5.76 0-11.84.16-18.08.48-1.6 0-2.56-.64-2.56-2.08 0-1.6.8-2.24 2.56-2.24 9.76-.64 11.36-6.24 11.36-19.36V17.013c0-6.88-1.44-8.64-10.24-10.56zM306.808 148.53c-5.92 0-9.76-3.36-9.76-8.642 0-4 2.88-6.56 6.56-6.56 4.48 0 5.76 6.081 10.24 6.081s6.334-2.427 10.974-10.587c5.6-9.76 6-10.354 6-14.834 0-1.6-5.867-18.6-6.667-21l-11.344-33.894c-3.2-9.6-6.88-14.24-14.56-14.88-.32-.48-.32-.96-.32-1.44 0-.64.16-1.28.8-1.92 6.72 0 12.64.32 17.76.32 1.6 0 6.72 0 15.04-.16.16.48.32.96.32 1.28 0 .8-.32 1.44-.64 2.08-5.28 1.12-7.68 3.36-7.68 7.52 0 1.44.32 4.32 1.28 7.52l12.64 39.84h1.12l16.16-36.64c2.401-5.44 3.2-9.92 3.2-11.68 0-4.48-2.08-5.6-7.679-7.04-.16-.32-.16-.64-.16-1.12 0-.64.16-1.28.48-2.08 8.16.32 12.96.48 14.4.48 2.4 0 6.4-.16 11.68-.32.32.48.481.96.481 1.6 0 .48-.16.96-.32 1.44-8.16 1.44-13.12 10.4-20.64 26.56l-21.684 47.034c-9.76 20.64-17.92 31.041-27.681 31.041z"/><path class="st0" d="M428.465 38.934c11.68 0 19.201 5.92 20.32 15.68 7.681-10.56 16.801-15.68 28.322-15.68 16.8 0 20.64 8.64 20.64 28.16v22.08c0 10.24 1.28 14.721 10.24 16.641 1.76 0 2.4.64 2.4 2.24 0 1.28-.64 1.92-1.92 1.92h-.48c-6.24-.32-12.16-.32-17.6-.32s-10.4 0-14.88.32h-.48c-1.28 0-1.92-.64-1.92-1.92v-.32c0-1.44.8-1.92 2.4-1.92 9.6-.8 10.88-6.4 10.88-19.36v-19.68c0-14.56-3.68-21.44-16.001-21.44-13.44 0-21.28 10.72-21.28 31.199v12.64c0 10.24 1.12 14.561 10.24 16.641 1.76 0 2.4.64 2.4 2.24 0 1.28-.64 1.92-1.92 1.92h-.48c-6.24-.32-12.16-.32-17.6-.32-5.44 0-10.4 0-14.88.32h-.481c-1.28 0-1.92-.64-1.92-1.92v-.32c0-1.44.8-1.92 2.4-1.92 9.601-.8 10.88-6.4 10.88-19.36v-19.68-2.24c0-4.96-.16-8.8-1.92-11.84-3.04-4.8-7.84-7.36-14.08-7.36-13.28 0-21.28 10.72-21.28 31.199v12.64c0 10.08 1.12 14.561 9.92 16.641 1.6 0 2.4.48 2.4 1.92v.32c0 1.28-.64 1.92-1.92 1.92h-.48c-4.64-.16-9.44-.32-14.4-.32-5.76 0-11.84.16-18.08.48-1.601 0-2.561-.64-2.561-2.08 0-1.6.8-2.24 2.56-2.24 9.76-.64 11.36-6.24 11.36-19.36v-30.72c0-6.88-1.28-8.8-10.24-10.72-1.6 0-2.56-.64-2.56-1.921.16-1.12.8-1.76 2.08-1.76h.48c9.44 0 16.8-.64 22.08-1.92v13.92c7.2-9.76 16.16-14.4 27.361-14.4zM572.928 102.935c-.48-1.6-.8-2.4-2.56-2.4-1.28 0-3.68 2.56-8.64 5.92-4.96 3.36-11.52 5.28-19.36 5.28-13.761 0-22.242-8-22.242-18.56 0-9.6 7.2-16.32 21.121-18.88 10.4-1.92 18.721-2.24 24.32-4.64 5.12-2.24 6.401-4.8 6.401-10.72 0-11.04-5.44-17.12-14.88-17.12-8.64 0-14.401 4.64-14.401 11.2 0 1.28.32 2.56.64 3.84-1.92 2.08-4 3.04-6.56 3.04-4.8 0-7.04-1.92-7.04-5.92 0-8.8 10.72-15.521 28.96-15.521 11.68 0 19.681 3.52 23.681 9.92 1.6 2.72 2.08 6.72 2.08 11.84 0 1.92-.16 3.84-.16 5.92l-.48 25.92v1.761c0 8.16 1.44 10.72 12.16 11.84v2.08l-20.96 1.92-2.08-6.72zm-8.32-28.32c-19.2 0-30.881 6.56-30.881 17.6 0 7.84 6.4 14.24 14.56 14.24 13.44 0 23.2-9.28 23.2-22.4 0-6.56-1.76-9.44-6.88-9.44zM651.835 53.494c-.96-7.68-5.6-11.2-14.88-11.2-13.76 0-23.2 12.32-23.2 32.16 0 19.04 10.4 31.04 24.799 31.04 6.24 0 11.201-2.398 16.96-5.759 4.321-2.56 6.08-5.28 6.88-5.28.641 0 1.441.64 1.441 1.44 0 .64-2.56 4.16-8.16 8-7.04 4.96-13.28 7.68-21.92 7.68-20.321 0-32.96-13.28-32.96-34.88 0-24.16 14.08-38.4 38.08-38.4 16.8 0 26.08 6.239 26.08 14.56 0 5.12-2.88 7.84-8 7.84-3.68 0-4.48-2.08-5.12-7.2z"/></svg>
