<?xml version="1.0" encoding="utf-8"?>
<!-- Generator: Adobe Illustrator 23.1.1, SVG Export Plug-In . SVG Version: 6.00 Build 0)  -->
<svg version="1.1" id="Layer_1" xmlns="http://www.w3.org/2000/svg" xmlns:xlink="http://www.w3.org/1999/xlink" x="0px" y="0px"
	 viewBox="0 0 598.6 185.1" style="enable-background:new 0 0 598.6 185.1;" xml:space="preserve">
<style type="text/css">
	.st0{clip-path:url(#SVGID_1_);fill:url(#SVGID_2_);}
	.st1{clip-path:url(#SVGID_3_);fill:url(#SVGID_4_);}
	.st2{clip-path:url(#SVGID_5_);fill:url(#SVGID_6_);}
	.st3{clip-path:url(#SVGID_7_);fill:url(#SVGID_8_);}
	.st4{clip-path:url(#SVGID_9_);fill:url(#SVGID_10_);}
	.st5{clip-path:url(#SVGID_11_);fill:url(#SVGID_12_);}
	.st6{clip-path:url(#SVGID_13_);fill:url(#SVGID_14_);}
	.st7{clip-path:url(#SVGID_15_);fill:url(#SVGID_16_);}
	.st8{clip-path:url(#SVGID_17_);fill:url(#SVGID_18_);}
	.st9{clip-path:url(#SVGID_19_);fill:url(#SVGID_20_);}
	.st10{clip-path:url(#SVGID_21_);fill:url(#SVGID_22_);}
	.st11{clip-path:url(#SVGID_23_);fill:url(#SVGID_24_);}
	.st12{fill:#010202;}
</style>
<g>
	<g>
		<defs>
			<path id="SVGID_39_" d="M67.9,0c-0.2,0-0.3,0.1-0.5,0.3c-2.6,11.5-4.1,23.1-3.1,35c1.7,19.2,11,33.4,27.2,43.4
				c0.5,0.3,1.1,0.4,1.7,0.6c0-0.7-0.2-1-0.5-1.2C76.8,60.9,69.2,40.4,68.2,17.3c-0.3-5.6,0.2-11.3,0.3-17C68.3,0.1,68.1,0,67.9,0
				L67.9,0z"/>
		</defs>
		<clipPath id="SVGID_1_">
			<use xlink:href="#SVGID_39_"  style="overflow:visible;"/>
		</clipPath>
		
			<radialGradient id="SVGID_2_" cx="-118.5497" cy="404.1419" r="1.52" gradientTransform="matrix(-59.8332 -49.3326 -49.3326 59.8332 12946.624 -29928.1367)" gradientUnits="userSpaceOnUse">
			<stop  offset="0" style="stop-color:#3374A7"/>
			<stop  offset="0.3701" style="stop-color:#258ECE"/>
			<stop  offset="0.751" style="stop-color:#8CD1F4"/>
			<stop  offset="1" style="stop-color:#FFFFFF"/>
		</radialGradient>
		<polygon class="st0" points="81.1,94 24.4,47.2 75.4,-14.7 132.1,32.1 		"/>
	</g>
	<g>
		<defs>
			<path id="SVGID_42_" d="M0.1,87.8C0,87.9,0,88,0,88.1v0c0,0.1,0,0.2,0.1,0.3c0.3,0.5,0.8,1,1.3,1.4c3.1,3.2,6,6.6,9.4,9.6
				c10.3,9.2,22.4,13.9,36.3,13.4c10.5-0.4,20.4-3.7,30.1-7.5c0.4-0.2,0.8-0.2,1.4-0.4c-0.8-0.6-0.9-0.7-1-0.7c-0.3,0-0.6,0-0.9,0.1
				c-9.8,2.7-19.8,3.1-30,2.3c-7.8-0.6-15.2-2.4-22.4-5.3c-8.1-3.1-15.4-7.6-22.1-13c-0.4-0.3-1.2-0.7-1.7-0.7
				C0.2,87.7,0.1,87.7,0.1,87.8"/>
		</defs>
		<clipPath id="SVGID_3_">
			<use xlink:href="#SVGID_42_"  style="overflow:visible;"/>
		</clipPath>
		
			<radialGradient id="SVGID_4_" cx="-118.5497" cy="404.1419" r="1.52" gradientTransform="matrix(-59.8332 -49.3326 -49.3326 59.8332 12946.624 -29928.1367)" gradientUnits="userSpaceOnUse">
			<stop  offset="0" style="stop-color:#3374A7"/>
			<stop  offset="0.3701" style="stop-color:#258ECE"/>
			<stop  offset="0.751" style="stop-color:#8CD1F4"/>
			<stop  offset="1" style="stop-color:#FFFFFF"/>
		</radialGradient>
		<polygon class="st1" points="46.7,151.9 -12.6,103 31.8,49.1 91.1,98.1 		"/>
	</g>
	<g>
		<defs>
			<path id="SVGID_45_" d="M103.5,129c-0.1,0.3-0.2,0.5-0.2,0.8c-0.5,5.1-0.9,10.3-1.5,15.4c-0.9,7.4-3,14.5-6.7,21
				c-3.9,6.8-9.3,12.3-15.4,17c-0.6,0.5-1.5,0.8-0.7,1.8h0.7c0.2-0.1,0.4-0.3,0.6-0.4c13.7-4.5,21.4-14,24.1-27.9
				c1.6-8.2,1.1-16.5,0.2-24.7c-0.1-1.1-0.4-2.1-0.7-3.1C103.9,129,103.7,129,103.5,129"/>
		</defs>
		<clipPath id="SVGID_5_">
			<use xlink:href="#SVGID_45_"  style="overflow:visible;"/>
		</clipPath>
		
			<radialGradient id="SVGID_6_" cx="-118.5497" cy="404.1419" r="1.52" gradientTransform="matrix(-59.8332 -49.3326 -49.3326 59.8332 12946.624 -29928.1367)" gradientUnits="userSpaceOnUse">
			<stop  offset="0" style="stop-color:#3374A7"/>
			<stop  offset="0.3701" style="stop-color:#258ECE"/>
			<stop  offset="0.751" style="stop-color:#8CD1F4"/>
			<stop  offset="1" style="stop-color:#FFFFFF"/>
		</radialGradient>
		<polygon class="st2" points="94.8,198.8 50.6,162.4 89.4,115.3 133.6,151.7 		"/>
	</g>
	<g>
		<defs>
			<path id="SVGID_48_" d="M6.1,59.6c0.1,0.5,0.1,1.1,0.3,1.6C8,65,9.5,69,11.5,72.6C18,84.4,27.7,92.3,40.7,96.2
				c10.6,3.2,21.5,3.3,32.4,1.9c1.9-0.2,3.7-0.6,5.5-0.9c0-0.2,0-0.5-0.1-0.7c-0.3-0.1-0.6-0.2-1-0.2c-3.6-0.2-7.2-0.3-10.8-0.6
				c-11.5-0.8-22.3-4-32.3-10C23.9,79.3,15.4,70.6,8,60.8c-0.4-0.5-0.9-1-1.4-1.5C6.4,59.4,6.3,59.5,6.1,59.6"/>
		</defs>
		<clipPath id="SVGID_7_">
			<use xlink:href="#SVGID_48_"  style="overflow:visible;"/>
		</clipPath>
		
			<radialGradient id="SVGID_8_" cx="-118.5497" cy="404.1419" r="1.52" gradientTransform="matrix(-59.8332 -49.3326 -49.3326 59.8332 12946.624 -29928.1367)" gradientUnits="userSpaceOnUse">
			<stop  offset="0" style="stop-color:#3374A7"/>
			<stop  offset="0.3701" style="stop-color:#258ECE"/>
			<stop  offset="0.751" style="stop-color:#8CD1F4"/>
			<stop  offset="1" style="stop-color:#FFFFFF"/>
		</radialGradient>
		<polygon class="st3" points="49.3,135.1 -13.6,83.3 35.4,23.7 98.3,75.6 		"/>
	</g>
	<g>
		<defs>
			<path id="SVGID_51_" d="M19.1,34.3c1,4.9,1.7,9.9,3.1,14.7c5,17.4,16.3,28.9,33.2,35.3c7.5,2.8,15.3,4.3,23.2,5.4
				c1,0.1,2,0.1,3,0.2c0-0.3,0.1-0.5,0.1-0.8c-1.8-0.5-3.6-1.1-5.4-1.6c-18.1-5-32.9-14.7-43.6-30.4c-4.6-6.8-8.4-14.1-11.5-21.7
				c-0.2-0.6-0.7-1-1.1-1.5C19.8,34,19.5,34.1,19.1,34.3"/>
		</defs>
		<clipPath id="SVGID_9_">
			<use xlink:href="#SVGID_51_"  style="overflow:visible;"/>
		</clipPath>
		
			<radialGradient id="SVGID_10_" cx="-118.5497" cy="404.1419" r="1.52" gradientTransform="matrix(-59.8332 -49.3326 -49.3326 59.8332 12946.624 -29928.1367)" gradientUnits="userSpaceOnUse">
			<stop  offset="0" style="stop-color:#3374A7"/>
			<stop  offset="0.3701" style="stop-color:#258ECE"/>
			<stop  offset="0.751" style="stop-color:#8CD1F4"/>
			<stop  offset="1" style="stop-color:#FFFFFF"/>
		</radialGradient>
		<polygon class="st4" points="56.4,120.5 -8.3,67.2 44.5,3.1 109.2,56.5 		"/>
	</g>
	<g>
		<defs>
			<path id="SVGID_54_" d="M42.5,12.4c-0.8,7.6-0.6,15.2,0.7,22.7c4.1,24.7,18.5,40.5,42,48.4c0.5,0.2,1.1,0.1,1.8,0.1
				c-0.2-0.4-0.2-0.6-0.3-0.6c-0.6-0.4-1.1-0.7-1.7-1.1C68.1,72,56.4,58,49.9,39.6c-3-8.4-5-17.1-6.1-25.9c-0.1-0.6-0.4-1.1-0.7-1.6
				C42.9,12.2,42.7,12.3,42.5,12.4"/>
		</defs>
		<clipPath id="SVGID_11_">
			<use xlink:href="#SVGID_54_"  style="overflow:visible;"/>
		</clipPath>
		
			<radialGradient id="SVGID_12_" cx="-118.5497" cy="404.1419" r="1.52" gradientTransform="matrix(-59.8332 -49.3326 -49.3326 59.8332 12946.624 -29928.1367)" gradientUnits="userSpaceOnUse">
			<stop  offset="0" style="stop-color:#3374A7"/>
			<stop  offset="0.3701" style="stop-color:#258ECE"/>
			<stop  offset="0.751" style="stop-color:#8CD1F4"/>
			<stop  offset="1" style="stop-color:#FFFFFF"/>
		</radialGradient>
		<polygon class="st5" points="68.6,105.8 6.6,54.7 59.9,-10.1 121.9,41 		"/>
	</g>
	<g>
		<defs>
			<path id="SVGID_57_" d="M78.5,112.3c-14.6,9.6-30.6,13-47.9,11.3c-8.5-0.9-16.7-3.3-24.6-6.6c-0.8-0.3-1.6-0.6-2.4-0.8
				c-0.1,0.3-0.2,0.5-0.3,0.8c6.2,5.2,13,9.2,20.7,11.7c11.1,3.6,22.2,3.3,33.1-0.9c9.5-3.6,22.7-13,22.3-15.8
				C79,112,78.7,112.1,78.5,112.3"/>
		</defs>
		<clipPath id="SVGID_13_">
			<use xlink:href="#SVGID_57_"  style="overflow:visible;"/>
		</clipPath>
		
			<radialGradient id="SVGID_14_" cx="-118.5497" cy="404.1419" r="1.52" gradientTransform="matrix(-59.8332 -49.3326 -49.3326 59.8332 12946.624 -29928.1367)" gradientUnits="userSpaceOnUse">
			<stop  offset="0" style="stop-color:#3374A7"/>
			<stop  offset="0.3701" style="stop-color:#258ECE"/>
			<stop  offset="0.751" style="stop-color:#8CD1F4"/>
			<stop  offset="1" style="stop-color:#FFFFFF"/>
		</radialGradient>
		<polygon class="st6" points="48.8,169.7 -6.8,123.9 34.2,74.3 89.7,120.1 		"/>
	</g>
	<g>
		<defs>
			<path id="SVGID_60_" d="M14.9,142.3c-0.1,0.6,0.8,1.3,1.4,1.5c3.4,1.3,6.8,2.7,10.4,3.6c10.3,2.6,20.4,2,30-2.6
				c11.4-5.4,19.6-14.2,26.5-24.6c0.2-0.3,0.3-0.7,0.4-1.1c-0.1-0.2-0.3-0.4-0.4-0.6C64.7,138.8,41.9,146.5,14.9,142.3"/>
		</defs>
		<clipPath id="SVGID_15_">
			<use xlink:href="#SVGID_60_"  style="overflow:visible;"/>
		</clipPath>
		
			<radialGradient id="SVGID_16_" cx="-118.5497" cy="404.1419" r="1.52" gradientTransform="matrix(-59.8332 -49.3326 -49.3326 59.8332 12946.624 -29928.1367)" gradientUnits="userSpaceOnUse">
			<stop  offset="0" style="stop-color:#3374A7"/>
			<stop  offset="0.3701" style="stop-color:#258ECE"/>
			<stop  offset="0.751" style="stop-color:#8CD1F4"/>
			<stop  offset="1" style="stop-color:#FFFFFF"/>
		</radialGradient>
		<polygon class="st7" points="55.7,183.7 -0.6,137.3 42.6,84.8 99,131.3 		"/>
	</g>
	<g>
		<defs>
			<path id="SVGID_63_" d="M88.5,124.5c-0.2,0.4-0.5,0.7-0.7,1.1C77.7,143,63.1,155,43.7,160.8c-3.3,1-6.8,1.5-10.2,2.3
				c-0.4,0.1-0.7,0.4-1,0.6c0.3,0.3,0.7,0.6,1.1,0.8c0.3,0.1,0.7,0.1,1.1,0.1c4.3-0.1,8.7,0,13-0.4c8.1-0.8,15.4-4,21.8-9
				c9.8-7.7,15.6-18.1,19.7-29.6c0.1-0.3,0.1-0.7,0.1-1.3C88.7,124.4,88.5,124.4,88.5,124.5"/>
		</defs>
		<clipPath id="SVGID_17_">
			<use xlink:href="#SVGID_63_"  style="overflow:visible;"/>
		</clipPath>
		
			<radialGradient id="SVGID_18_" cx="-118.5497" cy="404.1419" r="1.52" gradientTransform="matrix(-59.8332 -49.3326 -49.3326 59.8332 12946.624 -29928.1367)" gradientUnits="userSpaceOnUse">
			<stop  offset="0" style="stop-color:#3374A7"/>
			<stop  offset="0.3701" style="stop-color:#258ECE"/>
			<stop  offset="0.751" style="stop-color:#8CD1F4"/>
			<stop  offset="1" style="stop-color:#FFFFFF"/>
		</radialGradient>
		<polygon class="st8" points="66.3,192.4 12.7,148.2 55.5,96.3 109.1,140.5 		"/>
	</g>
	<g>
		<defs>
			<path id="SVGID_66_" d="M95.2,129.2c-1.5,4.5-2.8,9-4.7,13.4C85.9,153.1,79.1,162,70,168.9c-4.5,3.4-9.4,6.3-14.6,8.5
				c-0.4,0.2-0.7,0.7-1,1.1c0.5,0.1,1,0.4,1.4,0.3c2-0.4,3.9-0.7,5.8-1.2c13.6-3.5,23.8-11,29.4-24.2c3.4-7.9,4.7-16.3,5.6-24.8
				c0-0.2-0.2-0.5-0.6-1.1C95.5,128.4,95.3,128.8,95.2,129.2"/>
		</defs>
		<clipPath id="SVGID_19_">
			<use xlink:href="#SVGID_66_"  style="overflow:visible;"/>
		</clipPath>
		
			<radialGradient id="SVGID_20_" cx="-118.5497" cy="404.1419" r="1.52" gradientTransform="matrix(-59.8332 -49.3326 -49.3326 59.8332 12946.624 -29928.1367)" gradientUnits="userSpaceOnUse">
			<stop  offset="0" style="stop-color:#3374A7"/>
			<stop  offset="0.3701" style="stop-color:#258ECE"/>
			<stop  offset="0.751" style="stop-color:#8CD1F4"/>
			<stop  offset="1" style="stop-color:#FFFFFF"/>
		</radialGradient>
		<polygon class="st9" points="79.4,199.6 29.1,158.1 71.4,106.8 121.7,148.3 		"/>
	</g>
	<g>
		<defs>
			<path id="SVGID_69_" d="M111.2,129.2c0.7,3.9,1.6,7.8,1.9,11.8c0.4,5.5,0.8,11.1,0.4,16.6c-0.6,8.3-3.7,15.8-8.3,22.7
				c-0.3,0.5-0.3,1.1-0.5,1.6c0.2,0.1,0.4,0.1,0.6,0.2c7.5-5.8,12.4-13.2,13.5-22.9c1.3-10.9-1.8-20.9-6.7-30.5
				c-0.2-0.3-0.5-0.5-1-1C111.3,128.5,111.2,128.9,111.2,129.2"/>
		</defs>
		<clipPath id="SVGID_21_">
			<use xlink:href="#SVGID_69_"  style="overflow:visible;"/>
		</clipPath>
		
			<radialGradient id="SVGID_22_" cx="-118.5497" cy="404.1419" r="1.52" gradientTransform="matrix(-59.8332 -49.3326 -49.3326 59.8332 12946.624 -29928.1367)" gradientUnits="userSpaceOnUse">
			<stop  offset="0" style="stop-color:#3374A7"/>
			<stop  offset="0.3701" style="stop-color:#258ECE"/>
			<stop  offset="0.751" style="stop-color:#8CD1F4"/>
			<stop  offset="1" style="stop-color:#FFFFFF"/>
		</radialGradient>
		<polygon class="st10" points="114,189.7 78.2,160.1 111.1,120.2 147,149.8 		"/>
	</g>
	<g>
		<defs>
			<path id="SVGID_72_" d="M118.1,125c9,14,11.1,29.4,9.2,45.6c0.2,0.2,0.3,0.3,0.5,0.5c0.4-0.4,1.1-0.8,1.3-1.3
				c3.5-7,4.4-14.4,3-22.1c-1.6-8.6-5.2-16-11.7-22c-0.5-0.5-1.2-0.8-1.8-1.1C118.4,124.7,118.3,124.8,118.1,125"/>
		</defs>
		<clipPath id="SVGID_23_">
			<use xlink:href="#SVGID_72_"  style="overflow:visible;"/>
		</clipPath>
		
			<radialGradient id="SVGID_24_" cx="-118.5497" cy="404.1419" r="1.52" gradientTransform="matrix(-59.8339 -49.3333 -49.3333 59.8339 12946.8086 -29928.5234)" gradientUnits="userSpaceOnUse">
			<stop  offset="0" style="stop-color:#3374A7"/>
			<stop  offset="0.3701" style="stop-color:#258ECE"/>
			<stop  offset="0.751" style="stop-color:#8CD1F4"/>
			<stop  offset="1" style="stop-color:#FFFFFF"/>
		</radialGradient>
		<polygon class="st11" points="127.3,178.7 95.3,152.3 124.3,117 156.3,143.4 		"/>
	</g>
	<path class="st12" d="M420,80.4H436c-0.3-4.6-2.4-8.5-7.7-8.5C423.1,71.9,420.4,75.6,420,80.4 M442.4,92.4v7.7
		c-3.5,1.9-7.4,2.9-12.5,2.9c-12,0-18.9-6.9-18.9-18.8c0-10.5,5.6-19.2,16.8-19.2c13.5,0,17.2,9.2,17.2,21.9H420
		c0.4,5.8,4.5,9.2,10.3,9.2C434.9,96.1,438.8,94.4,442.4,92.4"/>
	<path class="st12" d="M271,80.4h16.1c-0.3-4.6-2.4-8.5-7.7-8.5C274.1,71.9,271.4,75.6,271,80.4 M293.4,92.4v7.7
		C290,102,286,103,281,103c-12,0-18.9-6.9-18.9-18.8c0-10.5,5.6-19.2,16.8-19.2c13.5,0,17.3,9.2,17.3,21.9H271
		c0.4,5.8,4.5,9.2,10.4,9.2C286,96.1,289.9,94.4,293.4,92.4"/>
	<path class="st12" d="M136.4,83.1l-7.1-20.3l-7.3,20.3H136.4z M104.7,102.1L123.9,53H135l19.3,49.2h-10.9l-4.2-11.3h-19.9
		l-4.3,11.3H104.7z"/>
	<rect x="518.7" y="50.2" class="st12" width="9.4" height="9"/>
	<path class="st12" d="M176,72.3c-6.1,0-8.5,6.5-8.5,11.6c0,5.1,2.1,11.8,8.3,11.8c6.2,0,8-6.8,8-11.8C183.9,79,182.2,72.3,176,72.3
		 M158.1,116.9V65.8h9V71c2.3-3.5,5.8-6,11.4-6c11.1,0,15.2,8.9,15.2,18.9c0,9.9-4.1,19.1-15.4,19.1c-4,0-7.3-1-10.6-5l0,18.9H158.1
		z"/>
	<path class="st12" d="M216.5,72.3c-6.1,0-8.5,6.5-8.5,11.6c0,5.1,2,11.8,8.3,11.8c6.2,0,8-6.8,8-11.8
		C224.4,79,222.7,72.3,216.5,72.3 M198.6,116.9V65.8h9V71c2.2-3.5,5.8-6,11.4-6c11.1,0,15.2,8.9,15.2,18.9c0,9.9-4.1,19.1-15.4,19.1
		c-4,0-7.3-1-10.6-5v18.9H198.6z"/>
	<path class="st12" d="M239.2,102.1V65.8h8.4v8.2c0.6-3.4,4.4-9.1,10.1-9.1c0.9,0,1.9,0,2.9,0.3v9.5c-0.9-0.5-2.5-0.8-4.2-0.8
		c-7.7,0-7.7,9.6-7.7,14.8v13.3H239.2z"/>
	<path class="st12" d="M301.1,102.1V65.8h8.9v4.9c3.1-4.2,7.1-5.8,12-5.8c8.6,0,12.3,6.1,12.3,14.2v22.9H325V82.7
		c0-4.4-0.1-10.4-6.1-10.4c-6.8,0-8.3,7.4-8.3,12.1v17.8H301.1z"/>
	<path class="st12" d="M344.6,91.2V72.7h-7v-6.9h7v-7.3l9.4-3v10.3h8.4v6.9H354v16.9c0,3.1,0.8,6,4.4,6c1.7,0,3.3-0.3,4.3-1l0.3,7.5
		c-2,0.6-4.2,0.8-7,0.8C348.7,103,344.6,98.4,344.6,91.2"/>
	<path class="st12" d="M408.7,66.2l-0.8,7.5c-1.7-0.8-3.5-1.3-6.4-1.3c-5.8,0-9.6,4.7-9.6,11.5c0,6.7,3.2,11.8,9.8,11.8
		c2.7,0,5.6-1,7.3-1.7l0.4,7.8c-2.8,0.8-5.6,1.2-9.4,1.2C388,103,382,94.9,382,83.8c0-10.5,6.2-18.8,17.5-18.8
		C403.3,65,406.1,65.4,408.7,66.2"/>
	<path class="st12" d="M472.9,66.3l-0.6,7.1c-2.9-1-5-1.5-8.4-1.5c-2.5,0-5.6,0.9-5.6,4c0,5.8,16.4,2.1,16.4,15.2
		c0,8.4-7.5,11.8-15.2,11.8c-3.6,0-7.3-0.6-10.7-1.6l0.6-7.7c3,1.5,6.1,2.4,9.3,2.4c2.4,0,6.2-0.9,6.2-4.4c0-7.1-16.4-2.2-16.4-15.4
		c0-7.8,6.8-11.3,14.2-11.3C467,65,469.9,65.7,472.9,66.3"/>
	<path class="st12" d="M596.9,66.3l-0.6,7.1c-2.9-1-5-1.5-8.4-1.5c-2.5,0-5.6,0.9-5.6,4c0,5.8,16.4,2.1,16.4,15.2
		c0,8.4-7.5,11.8-15.2,11.8c-3.6,0-7.3-0.6-10.7-1.6l0.6-7.7c3,1.5,6.1,2.4,9.3,2.4c2.4,0,6.2-0.9,6.2-4.4c0-7.1-16.4-2.2-16.4-15.4
		c0-7.8,6.8-11.3,14.2-11.3C591,65,593.9,65.7,596.9,66.3"/>
	<path class="st12" d="M479.5,102.1V52.3l9.4-3v21.5c2.5-3.5,6.6-5.8,11.6-5.8c8.6,0,12.3,6.1,12.3,14.2v22.9h-9.4V82.7
		c0-4.4-0.1-10.4-6.1-10.4c-6.8,0-8.3,7.4-8.3,12.1v17.8H479.5z"/>
	<path class="st12" d="M552,72.3c-6.1,0-8.5,6.5-8.5,11.6c0,5.1,2,11.8,8.3,11.8c6.2,0,8-6.8,8-11.8C559.8,79,558.1,72.3,552,72.3
		 M534,116.9V65.8h9V71c2.3-3.5,5.8-6,11.4-6c11.1,0,15.2,8.9,15.2,18.9c0,9.9-4.1,19.1-15.4,19.1c-4,0-7.3-1-10.6-5v18.9H534z"/>
	<rect x="368" y="65.8" class="st12" width="9.4" height="36.3"/>
	<rect x="368" y="50.2" class="st12" width="9.4" height="9"/>
	<rect x="518.7" y="65.8" class="st12" width="9.4" height="36.3"/>
</g>
</svg>
