<?xml version="1.0" encoding="utf-8"?>
<svg version="1.1" id="Layer_1" xmlns="http://www.w3.org/2000/svg" xmlns:xlink="http://www.w3.org/1999/xlink" x="0px" y="0px"
	 viewBox="0 0 13 18" style="enable-background:new 0 0 13 18;" xml:space="preserve">
<g>
	<path d="M13,1.5c-0.8,1-1.5,1.9-2.3,2.9c-0.7,1-1.5,1.9-2.2,2.9c0.4,0.8,0.8,1.6,1.2,2.4c0.4,0.9,0.8,1.8,1.2,2.7l-0.3,0.3l0,0.2
		c-0.1,0.1-0.1,0.1-0.2,0.2c-0.1,0.1-0.2,0.1-0.3,0.1l0.1,0.4c-0.1,0.1-0.2,0.3-0.3,0.4s-0.3,0.2-0.4,0.2c-0.2,0-0.5-0.4-1-1.1
		c-0.5-0.7-1.2-1.8-2-3.2C5.8,11,5,12.2,4.2,13.3s-1.5,2.3-2.1,3.6c-0.2,0.1-0.4,0.2-0.6,0.2c-0.2,0-0.4,0.1-0.6,0.1H0.8
		c-0.2-0.2-0.4-0.4-0.5-0.6c-0.1-0.2-0.2-0.4-0.2-0.5c0-0.1,0-0.2,0-0.3c0-0.1,0.1-0.2,0.1-0.4L0,14.9c0.3-0.7,0.8-1.6,1.7-2.8
		s2-2.7,3.5-4.6C4.9,6.8,4.6,5.9,4.3,5.1s-0.6-1.8-1-2.9C3.4,2,3.5,1.8,3.7,1.7S3.9,1.5,4,1.5c0.1,0,0.1,0,0.2,0
		c0.1,0,0.1,0.1,0.2,0.2c0,0,0.1-0.1,0.2-0.1c0.1,0,0.1,0,0.2,0h0.1c0.1-0.1,0.1-0.1,0.2-0.2C5,1.3,5,1.3,5.1,1.2h0
		c0.2,0,0.6,0.6,1.2,1.9C6.7,3.9,7,4.5,7.3,5c0.4-0.5,1-1.2,1.7-2c1.3-1.6,2-2.3,2.2-2.3c0.1,0,0.2,0,0.3,0.1s0.3,0.2,0.5,0.3
		l0.5-0.5c0.1,0.1,0.2,0.3,0.3,0.4C12.8,1.2,12.9,1.4,13,1.5z"/>
</g>
</svg>
