<?xml version="1.0" encoding="utf-8"?>
<!-- Generator: Adobe Illustrator 19.2.1, SVG Export Plug-In . SVG Version: 6.00 Build 0)  -->
<svg version="1.1" id="layer" xmlns="http://www.w3.org/2000/svg" xmlns:xlink="http://www.w3.org/1999/xlink" x="0px" y="0px"
	 viewBox="0 0 652 652" style="enable-background:new 0 0 652 652;" xml:space="preserve">
<style type="text/css">
	.st0{fill:#ffffff;}
	.st1{fill:#ffffff;}
</style>
<rect x="26.4" y="226.2" class="st0" width="6.7" height="200"/>
<polygon class="st1" points="65.2,369 72.8,369 72.8,393.6 102.9,393.6 102.9,369 110.5,369 110.5,426.2 102.9,426.2 102.9,400 
	72.8,400 72.8,426.2 65.2,426.2 "/>
<polygon class="st1" points="121.1,369 131.5,369 149.5,417.1 167.6,369 178,369 178,426.2 170.8,426.2 170.8,378.6 170.7,378.6 
	152.8,426.2 146.3,426.2 128.4,378.6 128.3,378.6 128.3,426.2 121.1,426.2 "/>
<g>
	<path class="st1" d="M254.2,419.1c-4.4,6-11.6,8.5-18.4,8.5c-17.1,0-27.2-13.9-27.2-28.9c0-16.7,9.1-31.1,27.2-31.1
		c12.5,0,22.4,5.6,24.6,19h-7.6c-1.5-8.7-8.5-12.6-17-12.6c-13.9,0-19.6,12-19.6,24.3c0,11.9,6.9,22.8,19.6,22.8
		c11.8,0,18.8-8.3,18.4-18.7h-18.3v-6.4H261v30.1h-4.8L254.2,419.1z"/>
	<path class="st1" d="M287.6,383.8c13.1,0,20.1,9.5,20.1,21.7c0,12.1-7,21.6-20.1,21.6c-13.1,0-20.1-9.5-20.1-21.6
		C267.5,393.3,274.5,383.8,287.6,383.8 M287.6,421.2c7.1,0,12.9-5.6,12.9-15.6c0-10.1-5.8-15.7-12.9-15.7c-7.1,0-12.9,5.6-12.9,15.7
		C274.7,415.6,280.5,421.2,287.6,421.2"/>
	<polygon class="st1" points="330.9,426.2 323.6,426.2 308.2,384.8 315.8,384.8 327.5,419.3 327.6,419.3 338.9,384.8 346.1,384.8 	
		"/>
	<path class="st1" d="M384.1,413.1c-1.8,9.1-8.4,14.1-17.7,14.1c-13.2,0-19.5-9.1-19.9-21.8c0-12.4,8.2-21.6,19.5-21.6
		c14.7,0,19.2,13.7,18.8,23.7h-31c-0.2,7.2,3.8,13.6,12.9,13.6c5.6,0,9.5-2.7,10.7-8.1H384.1z M377.5,401.5
		c-0.3-6.5-5.2-11.7-11.9-11.7c-7.1,0-11.4,5.4-11.9,11.7H377.5z"/>
	<path class="st1" d="M390.2,384.8h6.4v8.7h0.2c3.3-6.7,7.9-9.9,15.2-9.7v7.2c-11,0-15,6.3-15,16.8v18.4h-6.8V384.8z"/>
	<path class="st1" d="M415.8,384.8h6.4v6.6h0.2c2.9-5.1,7.5-7.5,13.5-7.5c10.9,0,14.3,6.2,14.3,15.1v27.2h-6.8v-28
		c0-5-3.2-8.3-8.4-8.3c-8.3,0-12.3,5.5-12.3,13v23.4h-6.8V384.8z"/>
	<path class="st1" d="M458.3,384.8h6.4v6.1h0.2c3-4.6,7.7-7.1,13.4-7.1c5.1,0,9.7,2,11.4,7.1c2.8-4.4,7.7-7.1,13-7.1
		c8.3,0,13.8,3.4,13.8,12v30.4h-6.8V399c0-5.1-1.4-9.2-8-9.2c-6.6,0-10.8,4.2-10.8,10.6v25.8H484V399c0-5.4-1.7-9.2-7.8-9.2
		c-8.1,0-11.1,7.5-11.1,10.6v25.8h-6.8V384.8z"/>
	<path class="st1" d="M560.1,413.1c-1.8,9.1-8.4,14.1-17.7,14.1c-13.2,0-19.5-9.1-19.9-21.8c0-12.4,8.2-21.6,19.5-21.6
		c14.7,0,19.2,13.7,18.8,23.7h-31c-0.2,7.2,3.8,13.6,12.9,13.6c5.6,0,9.5-2.7,10.7-8.1H560.1z M553.5,401.5
		c-0.3-6.5-5.2-11.7-11.9-11.7c-7.1,0-11.4,5.4-11.9,11.7H553.5z"/>
	<path class="st1" d="M566.3,384.8h6.4v6.6h0.2c2.9-5.1,7.5-7.5,13.5-7.5c10.9,0,14.3,6.2,14.3,15.1v27.2h-6.8v-28
		c0-5-3.2-8.3-8.4-8.3c-8.3,0-12.3,5.5-12.3,13v23.4h-6.8V384.8z"/>
	<path class="st1" d="M618.1,384.8h8.3v6h-8.3v25.7c0,3.1,0.9,3.7,5.1,3.7h3.1v6h-5.2c-7.1,0-9.9-1.4-9.9-9.1v-26.4h-7.1v-6h7.1
		v-12.4h6.8V384.8z"/>
	<path class="st1" d="M120.3,244.9c-0.7,1.3-1.2,2-1.1,2.9c0.1,1,1.1,1.7,1.6,2.6c0.4-1.1,1.2-2,1.1-2.9
		C121.7,246.8,120.5,245.6,120.3,244.9"/>
	<path class="st1" d="M137.1,244.9c0.7,1.3,1.2,2,1.1,2.9c-0.1,1-1.1,1.7-1.6,2.6c-0.4-1.1-1.2-2-1.1-2.9
		C135.6,246.8,136.9,245.6,137.1,244.9"/>
	<path class="st1" d="M110.6,244.2c0.6,0,1.1-0.5,1.1-1.1c0-0.6-0.5-1.1-1.1-1.1c-0.6,0-1.1,0.5-1.1,1.1
		C109.5,243.7,110,244.2,110.6,244.2"/>
	<path class="st1" d="M111.4,245.8c0-0.6-0.5-1.1-1.1-1.1c-0.6,0-1.1,0.5-1.1,1.1c0,0.6,0.5,1.1,1.1,1.1
		C110.9,247,111.4,246.5,111.4,245.8"/>
	<path class="st1" d="M111.9,248.6c0-0.6-0.5-1.1-1.1-1.1c-0.6,0-1.1,0.5-1.1,1.1c0,0.6,0.5,1.1,1.1,1.1
		C111.4,249.7,111.9,249.2,111.9,248.6"/>
	<path class="st1" d="M116.9,238.8c0.6,0,1.1-0.5,1.1-1.1c0-0.6-0.5-1.1-1.1-1.1c-0.6,0-1.1,0.5-1.1,1.1
		C115.8,238.3,116.3,238.8,116.9,238.8"/>
	<path class="st1" d="M114.1,239.7c0.6,0,1.1-0.5,1.1-1.1c0-0.6-0.5-1.1-1.1-1.1c-0.6,0-1.1,0.5-1.1,1.1
		C112.9,239.2,113.4,239.7,114.1,239.7"/>
	<path class="st1" d="M111.9,241.6c0.6,0,1.1-0.5,1.1-1.1c0-0.6-0.5-1.1-1.1-1.1c-0.6,0-1.1,0.5-1.1,1.1
		C110.7,241.1,111.2,241.6,111.9,241.6"/>
	<path class="st1" d="M119.9,239.1c0.6,0,1.1-0.5,1.1-1.1c0-0.6-0.5-1.1-1.1-1.1c-0.6,0-1.1,0.5-1.1,1.1
		C118.7,238.6,119.2,239.1,119.9,239.1"/>
	<path class="st1" d="M122.7,239.9c0.6,0,1.1-0.5,1.1-1.1c0-0.6-0.5-1.1-1.1-1.1c-0.6,0-1.1,0.5-1.1,1.1
		C121.5,239.4,122,239.9,122.7,239.9"/>
	<path class="st1" d="M125.3,241.1c0.6,0,1.1-0.5,1.1-1.1c0-0.6-0.5-1.1-1.1-1.1c-0.6,0-1.1,0.5-1.1,1.1
		C124.2,240.6,124.7,241.1,125.3,241.1"/>
	<path class="st1" d="M145.6,243.1c0,0.6,0.5,1.1,1.1,1.1c0.6,0,1.1-0.5,1.1-1.1c0-0.6-0.5-1.1-1.1-1.1
		C146.1,241.9,145.6,242.4,145.6,243.1"/>
	<path class="st1" d="M147.1,244.7c-0.6,0-1.1,0.5-1.1,1.1c0,0.6,0.5,1.1,1.1,1.1c0.6,0,1.1-0.5,1.1-1.1
		C148.2,245.2,147.7,244.7,147.1,244.7"/>
	<path class="st1" d="M146.5,247.4c-0.6,0-1.1,0.5-1.1,1.1c0,0.6,0.5,1.1,1.1,1.1c0.6,0,1.1-0.5,1.1-1.1
		C147.7,248,147.1,247.4,146.5,247.4"/>
	<path class="st1" d="M140.4,238.8c0.6,0,1.1-0.5,1.1-1.1c0-0.6-0.5-1.1-1.1-1.1c-0.6,0-1.1,0.5-1.1,1.1
		C139.3,238.3,139.8,238.8,140.4,238.8"/>
	<path class="st1" d="M143.2,239.7c0.6,0,1.1-0.5,1.1-1.1c0-0.6-0.5-1.1-1.1-1.1c-0.6,0-1.1,0.5-1.1,1.1
		C142.1,239.2,142.6,239.7,143.2,239.7"/>
	<path class="st1" d="M145.5,241.6c0.6,0,1.1-0.5,1.1-1.1c0-0.6-0.5-1.1-1.1-1.1c-0.6,0-1.1,0.5-1.1,1.1
		C144.3,241.1,144.8,241.6,145.5,241.6"/>
	<path class="st1" d="M137.5,239.1c0.6,0,1.1-0.5,1.1-1.1c0-0.6-0.5-1.1-1.1-1.1c-0.6,0-1.1,0.5-1.1,1.1
		C136.3,238.6,136.8,239.1,137.5,239.1"/>
	<path class="st1" d="M134.6,239.9c0.6,0,1.1-0.5,1.1-1.1c0-0.6-0.5-1.1-1.1-1.1c-0.6,0-1.1,0.5-1.1,1.1
		C133.5,239.4,134,239.9,134.6,239.9"/>
	<path class="st1" d="M130.9,240c0,0.6,0.5,1.1,1.1,1.1c0.6,0,1.1-0.5,1.1-1.1c0-0.6-0.5-1.1-1.1-1.1
		C131.4,238.9,130.9,239.4,130.9,240"/>
	<path class="st1" d="M126.7,246.1h1.3v-4.9c-0.4-0.1-0.9-0.2-1.3-0.4V246.1z"/>
	<path class="st1" d="M130.6,240.9c-0.4,0.2-0.8,0.3-1.3,0.4v4.9h1.3V240.9z"/>
	<path class="st1" d="M127.9,235.5v-2.9c-1.4,0.3-2.5,1.4-2.8,2.9H127.9z"/>
	<path class="st1" d="M129.4,235.5h2.8c-0.2-1.4-1.3-2.6-2.8-2.9V235.5z"/>
	<path class="st1" d="M125.2,236.9c0.4,1.6,1.8,2.8,3.5,2.8c1.7,0,3.1-1.2,3.5-2.8H125.2z"/>
	<path class="st1" d="M130.6,232.2c-0.8-0.6-1.4-1.6-1.5-2.5c0.9,0.2,2,0.8,2.6,1.6v-3.9c-0.6,0.8-1.7,1.5-2.6,1.6
		c0.1-0.9,0.7-1.8,1.5-2.8h-3.8c0.8,1,1.4,1.9,1.5,2.8c-0.9-0.2-2-0.8-2.6-1.6v3.9c0.6-0.8,1.7-1.5,2.6-1.6c-0.1,1-0.7,1.9-1.5,2.5
		H130.6z"/>
	<path class="st1" d="M130.7,313.6c-0.8,0-1.4-0.6-1.4-1.4c0-0.8,0.6-1.4,1.4-1.4c0.8,0,1.4,0.6,1.4,1.4
		C132.1,313,131.5,313.6,130.7,313.6 M124,311.5c-0.8,0-1.5-0.7-1.5-1.5c0-0.8,0.7-1.5,1.5-1.5c0.8,0,1.5,0.7,1.5,1.5
		C125.5,310.9,124.9,311.5,124,311.5 M121.7,304.8l-0.4-0.3c-0.7-0.5-1.3-0.5-1.9,0c-0.3,0.3-0.6,0.6-0.8,0.9l-0.4,0.4l0.3,0.2
		c0.7,0.6,0.8,1.2,0.6,1.6c-0.1,0.1-0.2,0.2-0.4,0.3c-0.4,0.1-0.9,0-1.4-0.4l-0.3-0.2l-0.2,0.3c0,0.1-0.1,0.1-0.1,0.2
		c-0.1,0.1-0.1,0.2-0.2,0.3c-0.3,0.5-0.5,1-0.5,1.3c0,0.1,0,0.2,0,0.3c0.1,0.4,0.4,0.6,0.7,0.7l0.2,0.1c0.3,0.2,0.8,0.5,1.1,0.7
		c-0.6,0.4-1.3,0.4-1.9,0.1c-1-0.5-1.6-1.6-1.6-2.1c0-0.8,0.4-1.9,1.1-3l0.1-0.2l-0.1-0.2c-0.2-0.3-0.4-0.7-0.5-1
		c0.4,0.1,0.7,0.1,1.1,0.2l0.2,0l0.1-0.1c0.4-0.5,1.9-2,3.3-2c0.6,0,1.3,0.3,1.8,0.9c0.4,0.4,0.6,0.9,0.7,1.4
		C122.1,305.1,121.9,304.9,121.7,304.8 M134.8,310.1c-3.6-0.9-7.8-2.4-11.8-4.2l0,0c0.1-0.8-0.2-1.7-0.8-2.4
		c-0.6-0.7-1.4-1.1-2.3-1.1c-0.4,0-0.7,0.1-1.1,0.2c-0.6-0.5-1.1-1.1-1.6-1.7c-1.5-1.8-2.7-3.8-3.5-6.1c-0.5-1.3-0.8-2.7-1-4
		c-0.2,1.2-1.5,2.7-3.7,2.7c0-0.2,0-0.8-0.2-0.9c-0.6,0.6-1.5,1.4-3.5,0.6c0.3,1.6,0.7,3.1,1.3,4.6c1.2,3.2,2.9,6.1,5.1,8.6
		c0.7,0.8,1.5,1.6,2.3,2.3c0,0.2,0,0.3,0,0.5c0,0.8,0.8,2.2,2,2.7c1,0.5,2,0.3,2.9-0.3c1.7,0.9,3.9,1.8,6.3,2.5
		c2.7,0.7,5.3,1.2,7.3,1.2c1.7,0,4-0.8,6.3-2.2c0.9-0.6,1.8-1.2,2.4-1.8c0.1-0.1,0.2-0.2,0.2-0.2C139.6,311.2,137,310.7,134.8,310.1
		"/>
	<path class="st1" d="M133.8,324.6c-0.3-0.5-0.6-0.8-1-0.8c-1.5,0-0.9,3.8-2.6,3.8c-0.8,0-1.2-0.5-1.2-1c0-0.5,0.4-0.7,0.4-1.1
		c0-0.4-0.3-0.6-0.7-0.6c-0.4,0-0.7,0.2-0.7,0.6c0,0.4,0.4,0.6,0.4,1.1c0,0.5-0.4,1-1.2,1c-1.7,0-1.2-3.8-2.6-3.8
		c-0.3,0-0.7,0.3-1,0.8c-0.3-0.5-0.5-1.1-0.5-1.5c0-0.7,0.5-1.7,1.7-1.7c1.9,0,1.5,2.7,2.4,2.7c0.4,0,0.7-0.3,0.7-0.7
		c0-0.8-1.4-1.5-1.4-2.6c0-1.1,1-2,2.1-2.9c1.1,0.9,2.1,1.8,2.1,2.9c0,1.1-1.4,1.8-1.4,2.6c0,0.4,0.3,0.7,0.7,0.7
		c0.9,0,0.5-2.7,2.4-2.7c1.1,0,1.7,1,1.7,1.7C134.2,323.5,134.1,324.1,133.8,324.6 M128.7,330c-0.5,0-0.9-0.4-0.9-0.9
		c0-0.5,0.4-0.9,0.9-0.9c0.5,0,1,0.4,1,0.9C129.6,329.6,129.2,330,128.7,330 M132.6,320.7c-0.3,0-0.5,0-0.7,0.1v-4.3
		c-1.9-0.1-4.1-0.4-6.2-0.9v5.2c-0.2-0.1-0.5-0.1-0.8-0.1c-1.5,0-2.4,1.3-2.4,2.4c0,1.1,0.6,2.1,1.2,2.8c0.3-0.7,0.5-1.2,0.9-1.2
		c0.7,0,0.4,3.7,2.6,3.8c-0.1,0.2-0.1,0.4-0.1,0.6c0,0.9,0.8,1.7,1.7,1.7c0.9,0,1.7-0.8,1.7-1.7c0-0.2,0-0.4-0.1-0.6
		c2.2-0.1,1.8-3.8,2.6-3.8c0.4,0,0.6,0.5,0.9,1.2c0.6-0.6,1.2-1.7,1.2-2.8C135,321.9,134.1,320.7,132.6,320.7"/>
	<path class="st1" d="M182.7,325.8c-0.1-0.2-0.3-0.3-0.6-0.3c-5,1.5-11.2-2.7-17.2-6.7c-5.1-3.4-9.8-6.5-13.9-6.5
		c-1.5,0-2.9,0.3-4,0.9c-1.4,0.8-2.5,2-3.2,3.7c-0.7,1.7-1.4,2.8-2,3.7c-0.7,1.1-1.2,1.9-1.2,2.9c0,0.8,0.3,1.5,1,2.2
		c0.6,0.6,1.4,1.1,2.6,1.8c0.3,0.1,0.5,0.3,0.8,0.4c1,0.5,1.6,0.8,1.7,1.4c-2,0.9-4.5,1.6-7.4,2.1c-3.3,0.6-6.9,0.9-10.7,0.9
		c-3.8,0-7.4-0.3-10.7-0.9c-2.9-0.5-5.5-1.2-7.5-2.1c0.1-0.8,0.7-1.2,1.8-1.7c0.3-0.1,0.5-0.2,0.8-0.4c1-0.5,1.9-1,2.6-1.6
		c0.7-0.6,1-1.3,1-2.1c0-1-0.5-1.8-1.2-2.9c-0.6-0.9-1.3-2.1-2-3.7c-0.7-1.7-1.8-2.9-3.2-3.7c-1.2-0.6-2.5-1-4-1
		c-4.1,0-8.9,3.2-13.9,6.5c-6,4-12.2,8.1-17.2,6.7c-0.2-0.1-0.5,0.1-0.6,0.3c-0.1,0.2,0,0.5,0.2,0.6c1.5,0.7,2.9,1.7,4.2,2.7
		c1.8,1.4,3.5,2.7,5.4,2.7c1.8,0,3.7-0.6,6-1.8c2-1.1,4.1-2.5,6.1-3.9c4-2.7,8-5.5,11.9-5.8c-0.4,0.4-0.8,0.8-1.2,1.1
		c-1.1,1-2.1,1.9-2.1,3.7c0,1.4,0.5,2.4,1.2,3.8c0.2,0.4,0.4,0.9,0.6,1.4c0.4,1,0.6,1.7,0.9,2.8c0.1,0.5,0.2,1,0.4,1.6
		c0.2,0.9,0.7,2.6,3.5,4.1c3.3,1.7,9,2.5,16.9,2.5c7.9,0,13.6-0.9,16.9-2.5c2.8-1.4,3.3-3.2,3.5-4.1c0.2-0.6,0.3-1.1,0.4-1.6
		c0.3-1.1,0.4-1.8,0.9-2.8c0.3-0.7,0.6-1.3,0.9-1.8c0.6-1.1,1.1-2,1.1-3.3c0-1.8-1-2.7-2.2-3.8c-0.4-0.3-0.8-0.7-1.2-1.1
		c3.9,0.3,8,3.1,11.9,5.8c2,1.4,4.1,2.8,6.1,3.9c2.3,1.2,4.2,1.8,6,1.8c1.9,0,3.6-1.3,5.4-2.7c1.3-1,2.6-2.1,4.2-2.7
		C182.7,326.3,182.8,326,182.7,325.8"/>
	<path class="st1" d="M129.4,287v-18.8c2,0.1,3.9,0.6,5.7,1.5c1.9,1,3.7,2.3,5.2,4.1c1.5,1.8,2.7,3.8,3.5,6.1
		c0.8,2.3,1.2,4.7,1.3,7.1H129.4z M128.7,260.3c-5.3,0-9,1.6-11.1,3c-1.2-0.7-1.8-1.5-1.8-2.3c0-3,8.5-3.3,12.9-3.3h0h0
		c4.3,0,12.9,0.3,12.9,3.3c0,0.8-0.5,1.6-1.8,2.3C137.7,261.9,134,260.3,128.7,260.3 M128.4,287h-16c0-2.5,0.5-4.9,1.3-7.1
		c0.8-2.3,2-4.3,3.5-6.1c1.5-1.8,3.2-3.1,5.2-4.1c1.9-0.9,3.9-1.4,6-1.5V287z M152.7,285.8c-0.6-0.4-1.5-1.3-1.9-2.2
		c-0.6-1.2-3.1-6.1-3.5-6.8c-0.3-0.5-0.5-1-0.5-1.5c0-0.5,0.3-0.9,0.5-1.3c0.2-0.2,0.7-0.8,0.9-1.1c0.2-0.2,0.3-0.4,0.4-0.6
		c-0.9-1.6-1.8-2.7-3-4.1c-1.5-1.6-3.1-3-4.9-4.2c1-0.6,1.9-1.5,1.9-3c0-0.9-0.4-1.6-1-2.1c1-3.2,2.8-7.1,4.3-8.8l-3.2-1.4
		c0.8,1.3,0.9,2.8,0.7,3.6c-0.8-0.6-1.6-1.4-1.8-2.4c-0.2,1-0.7,2.5-1.2,3.5c0.9-0.4,1.7-0.6,2.6-0.2c-0.5,0.7-1.9,1.9-4,1.4
		c-1.1-0.3-2.3-0.9-2.2-1.8c0-0.5,0.4-1.2,1.1-1.1c0.7,0.1,0.7,1.1,0.5,1.6c0.9-0.5,1.9-3.2,0.4-3.6c-1.1-0.3-2.2,1.2-2.5,2.4
		c-0.2-1.4-0.8-2.8-1.9-2.7c-1.5,0.1-1,2.8-0.5,3.5c0.1-1,0.6-1.5,1.1-1.4c0.4,0,0.9,0.3,0.8,1.2c-0.1,0.9-1.3,1.4-2.8,1.4
		c-1.4,0-3.7-0.4-4-3c0.9,0.2,2.3,0.8,2.9,1.7c-0.2-1.6-0.2-2.7,0-4.4c-0.7,1-2,1.6-2.8,1.7c0.2-1.1,1.2-2.3,2.3-3h-5.8
		c1.1,0.7,2.1,1.9,2.3,3c-0.9-0.1-2.1-0.7-2.8-1.7c0.2,1.6,0.2,2.8,0,4.4c0.6-0.9,1.9-1.5,2.8-1.7c-0.2,2.6-2.6,3-4,3
		c-1.4,0-2.7-0.5-2.8-1.4c-0.1-0.9,0.4-1.2,0.8-1.2c0.4,0,1,0.5,1,1.4c0.5-0.7,1-3.4-0.5-3.5c-1.1-0.1-1.7,1.3-2,2.7
		c-0.4-1.2-1.4-2.7-2.5-2.4c-1.4,0.4-0.5,3.1,0.4,3.6c-0.2-0.5-0.2-1.5,0.5-1.6c0.7-0.1,1.1,0.6,1.1,1.1c0.1,0.9-1.1,1.5-2.2,1.8
		c-2.1,0.5-3.5-0.6-4-1.3c1-0.4,1.7-0.2,2.7,0.2c-0.5-0.9-1-2.5-1.2-3.5c-0.2,1.1-1,1.9-1.8,2.5c-0.2-0.9-0.1-2.4,0.7-3.6l-3.2,1.4
		c1.5,1.7,3.3,5.6,4.3,8.8c-0.6,0.5-1,1.2-1,2.1c0,1.5,1,2.4,1.9,3c-1.8,1.2-3.4,2.6-4.8,4.2c-2.2,2.5-3.9,5.3-5.1,8.6
		c0.4,0.5,2.4,2.6,2.8,3.1c0.8,1,1.3,2,1.3,2.8c0,1.5,0.4,2,1.1,3c0.2,0.3,0.6,1.4,0.6,2.1h16v17.4c-0.6,0-1.3,0.2-1.8,0.9
		c1.8,0.7,3.6,1.4,5.4,2c0.2-1.1,0.4-1.8,1-2.5c0,0-2.3-0.2-3.6-0.3v-17.4H145c-0.1,2.4-0.5,4.7-1.3,6.9c-0.8,2.3-2,4.3-3.5,6.1
		c-1.5,1.8-3.2,3.1-5.2,4.1c-0.3,0.2-0.3,0.4-0.6,0.5c-0.3,0.3-0.5,0.8-0.8,1.4c-0.2,0.5-0.3,0.9-0.4,1.6c0.7,0.2,1.1,0.3,1.8,0.5
		c5.5,1.4,6.8,1,7.1,0.7l0,0c1.2-0.9,2.4-2,3.4-3.2c2.2-2.5,3.9-5.4,5.1-8.6c1.3-3.3,1.9-6.9,1.9-10.5
		C152.7,286.6,152.7,286.4,152.7,285.8"/>
	<path class="st1" d="M138.1,275.8c-0.1,0.1-0.2,0.3-0.2,0.4c0.1,0.2,0.2,0.3,0.5,0.3c-0.2,0.1-0.3,0.4-0.4,0.7c0.3,0,0.5,0,0.7-0.2
		c-0.1,0.3,0,0.4,0.2,0.5c0.1,0.1,0.3,0.1,0.4,0c1.2,1.9,2,4.1,2.3,6.3c-0.1-0.1-0.3-0.2-0.6-0.2c0,0.3,0.1,0.6,0.3,0.7h-3.9
		c0-0.2-0.1-0.5-0.3-0.5c-0.2-0.1-0.3,0-0.5,0.2c0-0.2-0.1-0.5-0.3-0.7c-0.2,0.2-0.3,0.5-0.3,0.7c-0.2-0.2-0.4-0.2-0.5-0.2
		c-0.2,0.1-0.3,0.3-0.3,0.5H132c0.1-0.2,0.2-0.4,0.2-0.7c-0.3,0-0.5,0.1-0.7,0.2v-5.4c0.3,0,0.5-0.1,0.5-0.3c0.1-0.2,0-0.4-0.2-0.5
		c0.2,0,0.5-0.1,0.7-0.3c-0.2-0.2-0.5-0.3-0.7-0.3c0.2-0.2,0.2-0.4,0.2-0.5c-0.1-0.2-0.3-0.3-0.5-0.3v-4.6c0.1,0.1,0.3,0.2,0.6,0.2
		c0-0.3,0-0.5-0.2-0.7c1,0.3,2,0.8,3,1.5C136.1,273.7,137.2,274.7,138.1,275.8 M142.5,283.9c0.3,0.2,0.2,0.6-0.2,0.6
		c-0.3-2.8-1.4-5.6-3-7.9c0,0,0,0,0,0c0.3-0.1,0.6-0.4,0.7-0.8c-0.5-0.1-0.8,0.2-1,0.4c-0.1-0.2-0.2-0.3-0.3-0.4
		c-1-1.3-2.1-2.3-3.4-3.2c-1.2-0.8-2.5-1.4-3.8-1.7c0-0.3,0.4-0.4,0.6-0.1c0-0.5-0.4-0.7-0.6-0.6c-0.1,0-0.3,0.2-0.3,0.4
		c-0.2-0.2-0.4-0.3-0.7-0.4c0,0.3,0.1,0.6,0.2,0.7c-0.2,0-0.3,0.1-0.4,0.2c-0.1,0.2,0,0.7,0.5,0.7c-0.2-0.2-0.1-0.6,0.2-0.6v6.1
		c-0.3-0.1-0.7-0.1-1,0.3c0.3,0.3,0.7,0.4,1,0.3v6.6c-0.3,0-0.4-0.4-0.2-0.6c-0.5,0-0.7,0.4-0.6,0.7c0.1,0.2,0.2,0.3,0.5,0.2
		c-0.2,0.2-0.3,0.4-0.3,0.7c0.3,0,0.5-0.1,0.7-0.3c0,0.3,0.1,0.4,0.3,0.5c0.2,0.1,0.7-0.1,0.7-0.6c-0.2,0.3-0.6,0.2-0.6-0.1h4.6
		c-0.1,0.3,0,0.7,0.3,1c0.3-0.3,0.4-0.7,0.3-1h5.1c0,0.3-0.4,0.4-0.6,0.2c0,0.5,0.5,0.7,0.7,0.6c0.2-0.1,0.3-0.2,0.2-0.5
		c0.2,0.1,0.4,0.2,0.7,0.2c0-0.3-0.1-0.5-0.3-0.7c0.3,0,0.4-0.1,0.5-0.3C143.2,284.3,143,283.9,142.5,283.9"/>
	<path class="st1" d="M139.8,282.2c0.2-0.1,0.4-0.2,0.4-0.4c-0.2,0.1-0.4,0-0.4-0.1c0.2-0.1,0.3,0,0.2-0.3c-0.2-0.3-0.3-0.3-0.5-0.1
		c-0.2,0.2-1.4-0.1-1.4-1c0.1,0.2,0.2,0.3,0.4,0.4c0,0,0.1,0,0.1,0.1c0.1,0,0.1,0,0.2,0c0.1,0,0.2,0.1,0.4,0.1c0,0,0.1,0,0.1,0v0
		c0.3-0.1,0.5-0.2,0.5-0.5c0-0.5-0.4-0.7-1-1.2c-0.2-0.2-0.4-0.3-0.5-0.5c-0.2-0.4-0.1-0.7-0.5-1.4c0-0.2-0.1-0.3-0.2-0.6
		c-0.2,0.4-0.4,1.3,0.3,2c0.5,0.6,1.6,1.1,1.6,1.6c0,0.1-0.1,0.2-0.3,0.2c0,0-0.1,0-0.2,0c0,0-0.1,0-0.1,0c-0.1,0-0.2,0-0.2-0.1
		c-0.1-0.1-0.2-0.2-0.4-0.3c-0.5-0.4-0.9-1.1-1.1-1.4c-0.5-0.7-0.3-1.3-0.2-1.8c0.4-0.5-0.2-1.5-0.6-1.8c0,0,0.1-0.2,0-0.5
		c-0.1,0.1-0.2,0-0.3,0c-0.1-0.2-0.1-0.2-0.3-0.2c-0.2,0-0.2-0.2-0.2-0.2c-0.1,0.1-0.2,0.2-0.3,0.2c-0.2,0-0.3,0-0.3,0.1
		c-0.1,0.1-0.2,0.1-0.4,0.1c-0.2,0-0.2,0.1-0.2,0.3c0,0.1,0,0.2,0.2,0.3c0,0,0,0,0.1,0l0.2,0.2l0.1-0.2c0.1-0.1,0.4-0.1,0.4,0.1
		c0,0.1,0.1,0.2-0.1,0.2c-0.2,0-0.3,0-0.4,0c-0.1,0-0.1,0.2-0.1,0.3c0,0.1,0.1,0.2,0.4,0.1c0.3-0.1,0.7-0.1,0.7,0.1
		c0,0.6-0.6,0.5-0.8,1.2c-0.2-0.1-0.3-0.2-0.4-0.4c-0.1-0.2-0.2-0.4-0.5-0.6c-0.1-0.1-0.3-0.3-0.5-0.4c-0.2-0.1-0.2-0.2-0.2-0.5
		c0-0.2,0.1-0.4,0.1-0.6c0,0,0-0.1-0.1-0.2c0-0.1-0.2-0.2-0.3-0.2c0,0,0.1,0.1,0.1,0.2c0,0-0.1,0.1-0.1,0.1c0,0-0.1,0.1,0,0.2
		c0,0,0,0,0,0c0,0,0,0,0,0.1c0,0,0,0,0,0c-0.1-0.1-0.1-0.3-0.2-0.4c0,0-0.1,0-0.1,0c0,0,0,0,0,0c0-0.1-0.2-0.3-0.3-0.1
		c0,0,0.1,0,0.1,0.1c0,0,0,0.1,0,0.1c0,0.1,0.1,0.2,0.3,0.2c0,0,0,0,0,0c0,0,0,0,0,0.1c0,0,0,0,0,0c-0.3-0.1-0.4,0-0.4,0.1
		c0,0,0,0.1,0,0.1c-0.1,0.1-0.1,0.2,0.1,0.3c0,0,0-0.1,0-0.2c0,0,0,0,0,0c0,0,0.1,0.1,0.1,0.1c0,0,0.1,0,0.1,0c0,0,0,0,0.1,0
		c0,0,0,0,0.1,0c0,0,0,0,0,0c-0.2,0.2-0.1,0.3,0.1,0.4c-0.1,0.2-0.4,0.1-0.4-0.2c-0.2,0.4,0.1,0.6,0.4,0.5c0,0.1,0,0.4,0,0.4
		c0,0,0-0.1,0.1-0.1c0,0,0,0,0,0c0,0.1,0,0.2,0.2,0.2c0-0.1,0-0.1,0-0.1c0,0.1,0.1,0.2,0.1,0.2c0.1,0.3,0.4,0.9,1.1,1.2
		c-0.3,0.2-0.6,0.5-0.8,0.7c-0.2,0.2-0.5,0.4-0.6,0.3c-0.1-0.1-0.1-0.1-0.2-0.2c-0.1-0.1-0.2-0.1-0.2-0.1c0,0-0.1,0-0.1,0
		c-0.1,0-0.3,0-0.3,0.1c0.1,0,0.1,0,0.2,0c0,0,0,0.1,0,0.1c0,0.1,0.1,0.2,0.4,0.1c0,0,0.1,0,0,0c0,0-0.1,0.1-0.2,0
		c-0.2,0-0.2-0.2-0.3,0c0,0,0,0.1-0.1,0.1c0,0,0,0,0,0c-0.1,0-0.3,0.3-0.1,0.4c0,0,0-0.1,0.1-0.2c0,0,0.1,0.1,0.1,0.1
		c0.1,0.1,0.2,0.2,0.4-0.1c0,0,0,0,0,0c0,0.2-0.2,0.4,0,0.4c0,0,0.1,0,0.1,0c0,0,0,0,0,0c0,0.2,0.3,0.2,0.4,0.2
		c-0.1,0-0.2-0.1-0.2-0.2c0,0,0.1,0,0.1,0c0.1-0.1,0-0.3,0-0.4c0,0,0,0,0,0c0,0.1,0.1,0.2,0.3,0.1c0.1-0.1,0.1-0.1,0.1-0.2
		c0.2-0.1,0.4-0.2,0.6-0.1c0-0.1,0.1-0.3,0.4-0.4c0.2-0.1,0.4,0,0.4,0.1c0-0.1,0.1-0.3,0.2-0.4c0,1,1.3,1,1.6,1.5
		c-0.4-0.2-0.8-0.3-1.1-0.2c-0.3,0.1-0.9,0.4-1,0.7c-0.1,0.3,0.3,0.8,0.6,1c-0.4,0.1-0.5,0-0.9,0c0,0,0,0,0,0
		c-0.3,0-0.3-0.5-0.7-0.4c0,0-0.1,0-0.1,0.1h0c-0.1,0-0.3,0.2-0.3,0.3c0,0,0.1-0.1,0.2-0.1c0,0,0,0.1,0,0.1c0,0.1,0,0.1,0.1,0.1
		c0.1,0,0.1,0,0.1,0c0,0,0,0,0,0c0,0.1-0.4-0.1-0.4,0.3c0,0,0,0.1,0.1,0.1c0,0.1,0.1,0.2,0.3,0.2c0,0-0.1-0.1-0.1-0.1
		c0,0,0.1,0,0.1,0c0,0,0,0,0-0.1c0,0,0,0,0,0c0,0,0,0,0,0c0,0,0,0,0,0.1c0,0,0,0.1,0,0.1c0,0.1,0.2,0.3,0.4,0.1
		c-0.1,0-0.2,0-0.2-0.1c0,0,0.1,0,0.1,0c0,0,0-0.1,0-0.1c0,0,0,0,0,0c0,0,0.1,0,0.1,0c0,0,0,0,0.1,0c0,0.1,0.1,0.2,0.3,0.1
		c0.1,0,0.1-0.1,0.1-0.1c0.1,0,0.1,0.1,0.2,0.1c0-0.1,0.1-0.3,0.4-0.1l0.2-0.2c0,0,0.3,0.1,0.4,0c0.2-0.2,0.1-0.2,0.1-0.3
		c-0.1-0.3-0.2-0.3-0.3-0.5c-0.1-0.5,0.6-0.8,1-0.7c0.1,0.3,0.5,1.1,1.2,1.4c0.4,0.2,0.6-0.3,0.8-0.3c0,0,0.1,0.1,0.1,0.1
		c0,0.2,0,0.4,0,0.5c0,0.1-0.3,0-0.5,0c-0.1,0-0.2,0.1-0.2,0.1c-0.1,0-0.3,0.1-0.3,0.3c0.1,0,0.1-0.1,0.3-0.1c0,0,0,0.1,0,0.1
		c0,0.2,0.2,0.3,0.4,0.1c0,0,0.1,0,0,0c-0.1,0.1-0.3,0.3-0.1,0.3c0,0,0.1,0,0.1,0c0,0.1,0.1,0.2,0.2,0.3c0-0.1,0-0.1,0-0.2
		c0,0,0.1,0,0.1,0c0.1,0,0.1-0.2,0.2-0.3c0,0,0,0,0,0c0,0.1-0.1,0.3,0.1,0.3c0,0,0.1,0,0.1,0c0,0.1,0.2,0.2,0.3,0.1
		c0,0-0.1-0.1-0.2-0.1c0,0,0.1-0.1,0.1-0.1c0.1-0.3-0.2-0.3-0.2-0.4c0-0.1,0.3-0.1,0.3-0.3c0,0,0,0,0,0c0.1-0.1,0.3-0.2,0.3-0.3
		C139.9,282.3,139.8,282.2,139.8,282.2L139.8,282.2z"/>
	<path class="st1" d="M125.2,290.9l-0.2,0c-0.2,0-0.6,0.1-0.6,0.4c0,0.3,0.2,0.5,0.5,0.5l0.2,0c0,0.1,0,0.1,0,0.2
		c-0.1,0.5-0.2,1.3-0.3,2.2l-2.4-3.4c1.1-0.4,2-0.9,2.5-0.9C125.2,289.9,125.3,290.1,125.2,290.9 M124.3,296.8l-3.8-5.4
		c0.4-0.1,0.8-0.2,1.2-0.4l2.8,4C124.5,295.7,124.4,296.3,124.3,296.8 M123.9,299.3l-5.3-7.6c0.2,0,0.3,0,0.5,0c0.3,0,0.5,0,0.8-0.1
		l4.3,6.1C124.1,298.3,124,298.8,123.9,299.3 M117.9,291.7l5.8,8.4C120.6,298.8,117.5,296,117.9,291.7 M126.6,291l-0.3,0l0-0.3
		c0-0.9-0.5-1.6-1.5-1.6c-0.9,0-2.6,1.2-5.1,1.2c-1,0-2.3-0.5-3-1l-0.3,0.7c0,0,0,0,0-0.1c0-0.3-0.3-0.6-0.6-0.6
		c-0.3,0-0.6,0.3-0.6,0.6c0,0.3,0.3,0.6,0.6,0.6c0.2,0,0.4-0.1,0.5-0.2l-0.3,0.7c0.1,0,0.2,0.1,0.3,0.1c-0.4,3.7,2.4,8.4,7.2,9.8
		c0.7-0.2,1.4-0.1,1.4,0.7c0,0.5-0.2,0.7-0.7,0.7c-0.3,0-0.5-0.2-0.5-0.4c0-0.3,0.6-0.1,0.6-0.4c0.1-0.3-0.1-0.4-0.4-0.4
		c-0.3,0-0.8,0.2-0.8,0.8c0,0.7,0.5,1.1,1.1,1.1c0.5,0,1.7-0.3,1.5-1.6c0.3,0,0.5,0,0.6-0.3l0.1-0.7l-0.3,0l0.2-8.4l0.2,0
		c0.3,0,0.6-0.1,0.6-0.4C127.1,291.2,126.9,291,126.6,291"/>
	<path class="st1" d="M122.3,273.2c0-0.1,0.1-0.1,0.1-0.1c0.1,0,0.1,0,0.1-0.1c0-0.1,0-0.1-0.1-0.2c0.1,0,0.1,0,0.1-0.1
		c0,0-0.1,0-0.1,0c0,0,0-0.1,0.1-0.1c0,0,0.1,0,0.1,0l0.3,0.1c0,0,0.1,0,0.1,0.1c0,0,0,0.1,0,0.1c0,0,0-0.1-0.1-0.1c0,0,0,0,0,0.1
		c-0.1,0-0.1-0.1-0.2,0c0,0.1,0,0.1,0,0.2c0,0,0,0.1,0,0.1c0,0.1-0.1,0.2-0.2,0.1C122.3,273.4,122.3,273.3,122.3,273.2 M122.7,272.4
		c0,0.1-0.2,0.2-0.2,0.1c-0.1-0.1,0-0.1-0.1-0.3C122.5,272.3,122.6,272.4,122.7,272.4 M122.9,272.6c0,0,0.3,0.1,0.4,0.1
		c-0.2,0-0.1,0.1-0.2,0.1C122.9,272.8,122.9,272.7,122.9,272.6 M122.1,272.8C122.1,272.8,122.1,272.8,122.1,272.8
		C122.1,272.8,122.1,272.8,122.1,272.8 M125.6,274c1.1,0,1.7-0.4,1.7-0.7c0-1.3-3.1-0.5-3.1-1.3c0-0.1,0.1-0.2,0.2-0.3h0
		c1.6-0.1,1.6-1.2,2.7-1.4c-1.4-0.2-1.5,0.9-2.1,0.9c0.3-0.1,0.4-0.5,0.4-0.7c-0.3,0.4-0.9,0.4-1.2,0.8c0,0.1-0.1,0.2-0.1,0.2
		c-0.2,0.1-0.3,0.3-0.3,0.5c0,1.2,3.2,0.4,3.2,1.2c0,0.3-0.5,0.5-1.4,0.5c-0.7,0-1.1-0.5-2.3-0.2c0-0.2,0.4-0.6,0.2-0.8
		c0.1,0,0.2-0.1,0.2-0.2c-0.1-0.1-0.2-0.1-0.2-0.1c0-0.1,0-0.1-0.1-0.2c0,0,0-0.1-0.1-0.2c0,0-0.1-0.1-0.3-0.2
		c-0.1-0.1-0.2-0.1-0.3-0.1c0,0-0.2,0-0.2,0c-0.1,0-0.2,0-0.2,0.1c-0.1-0.1-0.1-0.1-0.2-0.1c0,0.1-0.1,0.2,0,0.3
		c-0.1,0-0.2,0.3-0.3,0.3c0,0.1,0.1,0.1,0.1,0.1c-0.1,0.2-0.1,0.4-0.2,0.4c0,0,0.1,0.1,0.1,0.1c-0.1,0.3-0.1,0.6-0.2,0.7h0
		c-0.1-0.1-0.2-0.1-0.3-0.2c-0.2-0.1-0.2-0.2-0.1-0.4c0-0.2,0.1-0.3,0.1-0.4c0,0,0-0.1,0-0.1c0-0.1-0.2-0.2-0.2-0.2
		c0,0,0.1,0.1,0.1,0.2c0,0-0.1,0.1-0.1,0.1c0,0-0.1,0.1,0,0.2c0,0,0,0,0,0c0,0,0,0,0,0.1c0,0,0,0,0,0c0-0.1-0.1-0.3-0.2-0.3
		c0,0-0.1,0-0.1,0c0,0,0,0,0,0c0-0.1-0.1-0.2-0.3-0.1c0,0,0.1,0,0.1,0c0,0,0,0.1-0.1,0.1c0,0.1,0.1,0.2,0.2,0.2c0,0,0,0,0,0
		c0,0,0,0,0,0.1c0,0,0,0,0,0c-0.2-0.1-0.3,0-0.4,0.1c0,0,0,0.1,0,0.1c-0.1,0-0.1,0.2,0,0.2c0,0,0-0.1,0.1-0.1c0,0,0,0,0,0
		c0,0,0,0,0,0.1c0,0,0.1,0,0.1,0c0,0,0,0,0.1,0c0,0,0,0,0.1,0c0,0,0,0,0,0c-0.2,0.1-0.2,0.3,0,0.3c0,0,0,0,0,0
		c-0.1,0.3-0.4,0.2-0.4,0c-0.3,0.3,0.1,0.5,0.4,0.4c0,0,0,0,0,0c0,0.1,0,0.1,0.1,0.1c0,0,0-0.1,0.1-0.1c0,0,0,0,0,0
		c0,0.1,0,0.2,0.1,0.2c0-0.1,0-0.1,0-0.1c0,0,0.1,0.2,0.3,0.4c-0.3,0.1-0.7,0.2-0.7,0.2c-0.1,0-0.4,0-0.6,0
		c-0.2,0.1-0.6,0.3-0.8,0.1c0-0.1,0-0.1-0.1-0.2c0-0.1-0.1-0.1-0.1-0.1c0,0-0.1,0-0.1,0c-0.1-0.1-0.2-0.1-0.3,0c0.1,0,0.1,0,0.2,0.1
		c0,0,0,0.1,0,0.1c0,0.1,0,0.1,0.3,0.2c0,0,0,0,0,0c0,0-0.1,0-0.2,0c-0.1-0.1-0.1-0.2-0.3-0.1c0,0,0,0-0.1,0c0,0,0,0,0,0
		c-0.1,0-0.3,0.1-0.2,0.3c0,0,0.1-0.1,0.2-0.1c0,0,0,0.1,0,0.1c0,0.1,0.1,0.3,0.4,0.1c0,0,0,0,0,0c-0.1,0.1-0.3,0.2-0.1,0.3
		c0,0,0,0,0.1,0c0,0,0,0,0,0c0,0.2,0.1,0.3,0.2,0.3c0,0-0.1-0.1-0.1-0.2c0,0,0.1,0,0.1,0c0.1-0.1,0.1-0.2,0.1-0.3c0,0,0,0,0,0
		c0,0.1,0,0.2,0.2,0.2c0.2,0,0.2-0.2,0.2-0.2c0,0,0,0,0,0c0.1,0,0.1,0.1,0.1,0.2c0,0,0.1-0.1,0.1-0.1c0,0.1,0,0.2-0.1,0.3
		c0.1,0,0.2-0.1,0.3-0.3c0,0,0,0.1,0.1,0.1c0,0,0,0,0,0c0.1,0,0.2,0,0.3,0c0,0,0,0,0,0c0,0.1,0,0.1,0,0.2c0,0,0-0.1,0.1-0.1
		c0,0,0,0.2,0.1,0.3c0-0.4,0.3-0.3,0.5-0.4c0,0,0,0,0,0c0,0-0.1,0.1-0.1,0.1c0.1,0,0.3-0.1,0.3-0.2c0,0,0.1-0.1,0.2-0.1
		c0.1,0,0.2,0,0.3-0.1c0,0,0.1,0.2,0,0.2c0.3,0,0.6-0.3,0.7-0.3c0.6-0.1-0.4-0.6,0.9-0.5c0.1,0,0.3-0.1,0.4-0.1
		c-0.1,0.2-0.1,0.6,0.1,0.6c0.1,0,0.2,0.1,0.3,0.1c0,0,0,0,0,0c-0.1,0-0.2,0-0.3,0.1c-0.3,0.2-0.3-0.4-0.6-0.3c0,0-0.1,0-0.1,0.1
		c-0.1,0-0.3,0.1-0.3,0.3c0,0,0.1-0.1,0.2-0.1c0,0,0,0.1,0,0.1c0,0,0,0.1,0.1,0.1c0.1,0,0.1,0,0.1,0c0,0,0,0,0,0
		c0,0.1-0.4-0.1-0.3,0.3c0,0,0,0.1,0.1,0.1c0,0.1,0.1,0.2,0.2,0.1c0,0-0.1-0.1-0.1-0.1c0,0,0.1,0,0.1,0c0,0,0,0,0-0.1c0,0,0,0,0,0
		c0,0,0,0,0,0c0,0,0,0,0,0.1c0,0,0,0.1,0,0.1c0,0.1,0.2,0.2,0.3,0.1c0,0-0.1,0-0.2-0.1c0,0,0.1,0,0.1,0c0,0,0-0.1,0-0.1c0,0,0,0,0,0
		c0,0,0.1,0,0.1,0c0,0,0,0,0.1,0c0,0.1,0.1,0.1,0.2,0.1c0.2-0.1,0-0.2,0.2-0.3c0,0,0.1,0,0.1,0c0.2,0,0.4,0,0.4,0
		c0-0.1,0-0.4-0.1-0.5c-0.1,0,0-0.2-0.1-0.3c0.2,0.1,0.4,0.1,0.6,0.1c0.4,0,0-0.1,0.2-0.2c0.2-0.1,0.5-0.1,0.5-0.1
		c0.1,0,0.1,0,0.1,0.1c0,0.2,0,0.3,0,0.4c0,0.1-0.2,0-0.4,0c-0.1,0-0.1,0-0.1,0.1c-0.1,0-0.2,0.1-0.2,0.2c0,0,0.1-0.1,0.2-0.1
		c0,0,0,0,0,0c0,0.2,0.2,0.2,0.3,0.1c0,0,0.1,0,0,0c-0.1,0.1-0.3,0.2-0.1,0.3c0,0,0,0,0.1,0c0,0.1,0.1,0.2,0.1,0.2
		c0-0.1,0-0.1,0-0.2c0,0,0.1,0,0.1,0c0.1,0,0.1-0.2,0.2-0.2c0,0,0,0,0,0c0,0.1-0.1,0.2,0,0.3c0,0,0,0,0.1,0c0,0.1,0.1,0.1,0.3,0.1
		c0,0-0.1,0-0.1-0.1c0,0,0.1-0.1,0.1-0.1c0.1-0.2-0.1-0.2-0.1-0.3c0-0.1,0.2,0,0.2-0.3c0,0,0-0.1-0.1-0.1c0,0,0,0,0,0h0
		c0.1,0,0.1,0,0.2-0.1c-0.2,0-0.1-0.1-0.1-0.2c0,0,0,0,0,0c0.1,0,0.1-0.1,0.1-0.3c-0.1,0.1-0.3,0.2-0.3,0c0,0,0-0.1-0.2-0.1
		C126.3,274.3,126.1,274.1,125.6,274C125.5,274.1,125.5,274.1,125.6,274"/>
	<path class="st1" d="M120.4,280.1C120.4,280.1,120.4,280,120.4,280.1C120.4,280.1,120.4,280.1,120.4,280.1 M119.5,278.1
		c0-0.1,0.1-0.1,0.1-0.1c0.1,0,0.1,0,0.1-0.1c0-0.1,0-0.1-0.1-0.2c0.1,0,0.1-0.1,0.1-0.1c-0.1,0-0.1,0-0.1,0c0,0,0-0.1,0.1-0.1
		c0,0,0.1,0,0.1,0l0.3,0.2c0,0,0.1,0,0.1,0.1c0,0,0,0.1,0,0.1c0,0,0-0.1-0.1-0.1c-0.1,0-0.1,0.1,0,0.1c-0.1,0-0.2-0.1-0.2,0
		c0,0.1,0,0.1,0,0.2c0,0,0,0.1,0,0.2s-0.1,0.2-0.3,0.1C119.5,278.3,119.5,278.2,119.5,278.1 M119.9,277.2c-0.1,0.1-0.2,0.2-0.3,0.1
		c-0.1-0.1,0-0.1-0.1-0.3C119.7,277.1,119.9,277.2,119.9,277.2 M120.2,277.3c0,0,0.3,0.1,0.4,0.2c-0.2,0-0.1,0.1-0.3,0.1
		C120.2,277.6,120.2,277.5,120.2,277.3 M118.4,278.9C118.4,278.9,118.4,278.9,118.4,278.9C118.4,278.9,118.4,278.9,118.4,278.9
		 M127.2,278.3c0-0.3-0.4-0.6-1.5-0.6c-1.1,0-3.6,0.4-3.6-0.2c0-0.3,0.5-0.3,1.1-0.2c0,0,0.1,0.1,0.2,0.1c1.4,0.4,3.1-0.3,4-0.1
		c-1-0.8-1.9,0-3-0.2c0.6,0,0.9-0.2,0.9-0.4c-0.5,0.3-1.4-0.2-2,0.2c0,0-0.1,0-0.1,0.1c-0.8,0-1.4,0-1.4,0.5c0,1.1,3,0.5,3.9,0.5
		c0.9,0,1.1,0.1,1.1,0.3c0,0.3-0.9,0.3-1.5,0.3c-0.8,0-3.3-0.4-4.7-0.1c0.1-0.2,0.4-0.5,0.2-0.7c0.1-0.1,0.2-0.2,0.2-0.3
		c-0.1-0.1-0.2-0.1-0.3-0.1c0-0.1,0-0.1-0.1-0.2c0,0,0-0.2-0.1-0.2c-0.1,0-0.2-0.1-0.3-0.2c-0.2-0.1-0.3-0.1-0.3-0.1
		c0,0-0.2,0-0.2,0c-0.1,0-0.2,0-0.2,0.1c-0.1-0.1-0.2-0.1-0.3-0.1c-0.1,0.1-0.1,0.2,0,0.4c-0.1,0-0.3,0.4-0.4,0.3
		c0,0.1,0.1,0.1,0.1,0.1c-0.1,0.2-0.2,0.4-0.3,0.4c0.1,0.1,0.1,0.2,0.2,0.2c0,0.1,0,0.3,0,0.4l-0.2-0.1c0,0,0,0-0.1,0
		c0,0-0.1,0-0.1,0c0,0,0.1,0,0.1,0l-0.1,0c-0.1-0.1-0.3-0.3-0.5-0.4c-0.2-0.1-0.2-0.2-0.2-0.5c0-0.2,0.1-0.4,0.1-0.6
		c0,0,0-0.1,0-0.2c0-0.1-0.2-0.2-0.3-0.2c0,0,0.1,0.1,0.1,0.2c0,0-0.1,0.1-0.1,0.1c0,0.1-0.1,0.1,0,0.2c0,0,0,0,0,0c0,0,0,0,0,0.1
		c0,0,0,0,0,0c0-0.1-0.1-0.3-0.2-0.4c0,0-0.1,0-0.1,0c0,0,0,0,0,0c0-0.1-0.1-0.3-0.3-0.1c0,0,0.1,0,0.1,0.1c0,0,0,0.1,0,0.1
		c0,0.1,0.1,0.2,0.2,0.2c0,0,0,0,0,0c0,0,0,0,0,0.1c0,0,0,0,0,0c-0.2-0.1-0.4,0-0.4,0.1c0,0,0,0.1,0,0.1c-0.1,0.1-0.1,0.2,0,0.3
		c0,0,0-0.1,0.1-0.2c0,0,0,0,0,0c0,0,0.1,0.1,0.1,0.1c0,0,0.1,0,0.1,0c0,0,0,0,0.1,0c0,0,0,0,0.1,0c0,0,0,0,0,0
		c-0.2,0.2-0.2,0.3,0.1,0.4c0,0,0,0,0,0c0,0.3-0.5,0.3-0.4-0.1c-0.2,0.4,0.1,0.6,0.5,0.5c0,0,0,0,0,0c0,0.1,0,0.1,0.1,0.1
		c0,0,0-0.1,0.1-0.1c0,0,0,0,0,0c0,0.1,0,0.2,0.1,0.2c0-0.1,0-0.1,0-0.1c0.1,0,0.2,0.2,0.4,0.4c0.2,0.1,0.4,0.3,0.5,0.2
		c0,0.2,0.2,0.5,0.1,0.5c-0.1,0-0.6,0-0.8,0c-0.2,0.1-0.7,0.3-0.9,0.1c-0.1-0.1,0-0.1-0.1-0.3c0-0.1-0.1-0.1-0.2-0.1
		c0,0-0.1,0-0.1,0c-0.1-0.1-0.3-0.1-0.4,0c0.1,0,0.1,0,0.2,0.1c0,0,0,0.1-0.1,0.1c0,0.1,0,0.2,0.3,0.3c0,0,0,0,0,0c0,0-0.1,0-0.2,0
		c-0.1-0.1-0.1-0.2-0.3-0.2c0,0-0.1,0-0.1,0.1c0,0,0,0,0,0c-0.1,0-0.4,0.2-0.3,0.3c0,0,0.1-0.1,0.2-0.1c0,0,0,0.1,0,0.1
		c0,0.2,0.1,0.3,0.4,0.1c0,0,0,0,0,0c-0.1,0.1-0.3,0.3-0.1,0.4c0,0,0,0,0.1,0.1c0,0,0,0,0,0c0,0.2,0.2,0.3,0.3,0.3
		c0-0.1-0.1-0.1-0.1-0.3c0,0,0.1,0,0.1,0c0.2-0.1,0.1-0.3,0.2-0.3c0,0,0,0,0,0c0,0.1,0,0.3,0.2,0.2c0.2,0,0.3-0.2,0.3-0.3
		c0,0,0,0,0,0c0.1,0,0.1,0.1,0.1,0.2c0,0,0.1-0.1,0.1-0.1c0,0.1,0,0.2-0.1,0.3c0.1,0,0.3-0.1,0.3-0.3c0,0,0.1,0.1,0.1,0.1
		c0,0,0,0,0,0c0.1,0,0.2,0,0.4,0c0,0,0,0,0,0c0,0.1,0,0.2,0,0.2c0,0,0.1-0.1,0.1-0.1c0.1,0,0,0.2,0.1,0.3c0-0.5,0.3-0.3,0.6-0.5
		c0,0,0,0,0,0c0,0.1-0.1,0.1-0.1,0.2c0.3,0.1,0.9-0.4,1-0.7c0.1,0,0.3,0,0.3,0c1,0.1,0.3-0.9,1.9-0.6c0.1,0,0.3-0.1,0.4-0.2
		c-0.1,0.2-0.1,0.6,0.1,0.7c0.1,0,0.3,0.1,0.4,0.2c0,0,0,0,0,0c-0.1,0-0.3,0-0.3,0.1c-0.3,0.2-0.3-0.5-0.7-0.4c0,0-0.1,0-0.1,0.1
		c-0.1,0-0.3,0.2-0.3,0.3c0,0,0.1-0.1,0.2-0.1c0,0,0,0.1,0,0.1c0,0,0,0.1,0.1,0.1c0.1,0,0.1,0,0.1,0c0,0,0,0,0,0
		c0,0.1-0.4-0.1-0.4,0.3c0,0,0,0.1,0.1,0.1c0,0.1,0.1,0.2,0.3,0.2c0,0-0.1-0.1-0.1-0.1c0,0,0.1,0,0.1,0c0,0,0,0,0-0.1c0,0,0,0,0,0
		c0,0,0,0,0,0c0,0,0,0,0,0.1c0,0,0,0.1,0,0.1c0,0.1,0.2,0.3,0.4,0.1c-0.1,0-0.2,0-0.2-0.1c0,0,0.1,0,0.1,0c0,0,0-0.1,0-0.1
		c0,0,0,0,0,0c0,0,0.1,0,0.1,0c0,0,0.1,0,0.1,0c0,0.1,0.1,0.2,0.3,0.1c0.2-0.1,0-0.3,0.2-0.3c0,0,0.1,0,0.1,0c0.2,0,0.5,0,0.5,0
		c0.1-0.1,0-0.4-0.2-0.5c-0.1-0.1,0-0.2-0.1-0.4c0.2,0.1,0.4,0.2,0.7,0.2c0.5,0,0.6-0.1,0.9-0.2c0.3-0.2,0.5-0.1,0.6-0.1
		c0.1,0,0.1,0,0.1,0.1c-0.1,0.3,0,0.3,0,0.4c0,0.1-0.3,0-0.4,0c-0.1,0-0.2,0-0.2,0.1c-0.1,0-0.3,0.1-0.3,0.3c0,0,0.1-0.1,0.2-0.1
		c0,0,0,0,0,0.1c0,0.2,0.2,0.2,0.3,0.1c0,0,0.1,0,0,0c-0.1,0.1-0.3,0.2-0.1,0.3c0,0,0.1,0,0.1,0.1c0,0.1,0.1,0.2,0.2,0.2
		c0-0.1,0-0.1,0-0.2c0,0,0.1,0,0.1,0c0.1,0,0.1-0.2,0.2-0.3c0,0,0,0,0,0c0,0.1-0.1,0.3,0,0.3c0,0,0.1,0,0.1,0c0,0.1,0.2,0.2,0.3,0.1
		c0,0-0.1-0.1-0.1-0.1c0,0,0.1-0.1,0.1-0.1c0.1-0.3-0.2-0.3-0.2-0.4c0-0.1,0.3,0,0.3-0.3c0-0.1,0-0.1-0.1-0.2c0,0,0,0,0,0h0
		c0.1,0,0.2,0,0.2-0.1c-0.2,0-0.1-0.2-0.2-0.3c0,0,0,0,0,0c0.1,0,0.1-0.1,0.1-0.3c-0.1,0.1-0.3,0.2-0.3,0c0,0,0-0.1-0.2-0.1
		c-0.3,0-0.6,0-1.2-0.1C126.1,278.9,127.2,278.7,127.2,278.3"/>
	<path class="st1" d="M118.2,283c0-0.1,0.1-0.1,0.1-0.1c0.1,0,0.1,0,0.1-0.1c0-0.1,0-0.1-0.1-0.2c0.1,0,0.1-0.1,0.1-0.1
		c0,0-0.1,0-0.1,0c0,0,0-0.1,0.1-0.1c0,0,0.1,0,0.1,0l0.3,0.2c0,0,0.1,0,0.1,0.1c0,0,0,0.1,0,0.1c0,0,0-0.1-0.1-0.1c0,0,0,0,0,0.1
		c-0.1,0-0.2-0.1-0.2,0c0,0.1,0,0.1,0,0.2c0,0,0,0.1,0,0.2c0,0.1-0.1,0.2-0.2,0.1C118.2,283.2,118.2,283.1,118.2,283 M118.6,282.2
		c-0.1,0.1-0.2,0.2-0.3,0.1c-0.1-0.1,0-0.1-0.1-0.3C118.4,282.1,118.6,282.2,118.6,282.2 M118.9,282.3c0,0,0.3,0.1,0.4,0.2
		c-0.2,0-0.1,0.1-0.3,0.1C118.9,282.6,118.9,282.4,118.9,282.3 M126.7,283.2c0-0.3-0.4-0.5-1.4-0.5c-1.1,0-4.3,0.4-4.3-0.2
		c0-0.4,1.1-0.2,1.9-0.2c0,0.1,0.1,0.1,0.2,0.2c1.4,0.4,2.8-0.5,3.8-0.2c-0.8-0.7-1.8,0.1-2.8-0.1c0.6,0,1.2-0.1,1.3-0.3
		c-0.5,0.3-1.8-0.2-2.4,0.1c0,0-0.1,0-0.1,0.1c-1,0-2.2-0.1-2.2,0.5c0,1.1,3.7,0.4,4.6,0.4c0.9,0,1.1,0.1,1.1,0.3
		c0,0.3-0.9,0.3-1.4,0.3c-0.8,0-4.3-0.4-5.7,0c0.1-0.2,0.4-0.6,0.3-0.8c0.1-0.1,0.2-0.2,0.2-0.3c-0.1-0.1-0.2-0.1-0.3-0.1
		c0-0.1,0-0.1-0.1-0.2c0,0,0-0.2-0.1-0.2c-0.1,0-0.2-0.1-0.3-0.2c-0.2-0.1-0.3-0.1-0.3-0.1c0,0-0.2,0-0.2,0c-0.1,0-0.2,0-0.2,0.1
		c-0.1-0.1-0.1-0.1-0.2-0.1c-0.1,0.1-0.1,0.2,0,0.4c-0.1,0-0.3,0.3-0.4,0.3c0,0.1,0.1,0.1,0.1,0.1c-0.1,0.2-0.1,0.4-0.3,0.4
		c0,0.1,0.1,0.1,0.1,0.1c0,0.1,0,0.2,0,0.3l-0.1,0c-0.1,0-0.1,0-0.2,0c-0.1,0-0.1,0-0.2,0c-0.2,0-0.3-0.3-0.6-0.4
		c-0.2-0.1-0.2-0.2-0.2-0.4c0-0.2,0.1-0.4,0.1-0.5c0,0,0-0.1-0.1-0.2c0-0.1-0.2-0.2-0.3-0.2c0,0,0.1,0.1,0.1,0.2
		c0,0-0.1,0.1-0.1,0.1c0,0-0.1,0.1,0,0.2c0,0,0,0,0,0c0,0,0,0,0,0.1c0,0,0,0,0,0c0-0.1-0.1-0.3-0.2-0.3c0,0-0.1,0-0.1,0c0,0,0,0,0,0
		c0-0.1-0.2-0.2-0.3-0.1c0,0,0.1,0,0.1,0.1c0,0,0,0.1,0,0.1c0,0.1,0.1,0.2,0.2,0.2c0,0,0,0,0,0c0,0,0,0,0,0.1c0,0,0,0,0,0
		c-0.2-0.1-0.3,0-0.3,0.1c0,0,0,0.1,0,0.1c-0.1,0.1-0.1,0.2,0,0.3c0,0,0-0.1,0.1-0.1c0,0,0,0,0,0c0,0,0.1,0.1,0.1,0.1
		c0,0,0.1,0,0.1,0c0,0,0,0,0.1,0c0,0,0,0,0.1,0c0,0,0,0,0,0c-0.2,0.2-0.1,0.3,0.1,0.3c0,0,0,0,0,0c0,0.3-0.4,0.2-0.4-0.1
		c-0.2,0.3,0.2,0.6,0.5,0.4c0,0,0,0,0,0c0,0.1,0,0.1,0.1,0.1c0,0,0-0.1,0.1-0.1c0,0,0,0,0,0c0,0.1,0,0.2,0.1,0.2c0-0.1,0-0.1,0-0.1
		c0.1,0,0.3,0.4,0.7,0.6c0.1,0,0.2,0,0.2-0.1c0,0,0,0.1,0.1,0.1c0,0.2,0.1,0.4,0.1,0.4c-0.1,0-0.7,0-0.9,0c-0.2,0.1-0.7,0.3-0.8,0.1
		c0-0.1,0-0.1-0.1-0.2c0-0.1-0.1-0.1-0.2-0.1c0,0-0.1,0-0.1,0c-0.1-0.1-0.3-0.1-0.3,0c0.1,0,0.1,0,0.2,0.1c0,0,0,0.1-0.1,0.1
		c0,0.1,0,0.2,0.3,0.3c0,0,0,0,0,0c0,0-0.1,0-0.2,0c-0.1-0.1-0.1-0.2-0.3-0.1c0,0-0.1,0-0.1,0c0,0,0,0,0,0c-0.1,0-0.3,0.2-0.3,0.3
		c0,0,0.1-0.1,0.2-0.1c0,0,0,0.1,0,0.1c0,0.2,0.1,0.3,0.4,0.1c0,0,0,0,0,0c-0.1,0.1-0.3,0.3-0.1,0.4c0,0,0,0,0.1,0.1c0,0,0,0,0,0
		c0,0.2,0.2,0.3,0.3,0.3c0,0-0.1-0.1-0.1-0.3c0,0,0.1,0,0.1,0c0.2-0.1,0.1-0.2,0.2-0.3c0,0,0,0,0,0c0,0.1,0,0.3,0.2,0.2
		c0.2,0,0.3-0.2,0.2-0.3c0,0,0,0,0,0c0.1,0,0.1,0.1,0.1,0.2c0,0,0.1-0.1,0.1-0.1c0,0.1,0,0.2-0.1,0.3c0.1,0,0.3-0.1,0.3-0.3
		c0,0,0.1,0.1,0.1,0.1c0,0,0,0,0,0c0.1,0,0.2,0,0.4,0c0,0,0,0,0,0c0,0.1,0,0.2,0,0.2c0,0,0-0.1,0.1-0.1c0,0,0,0.2,0.1,0.3
		c0-0.5,0.6-0.2,0.9-0.4c0,0,0,0,0,0c0,0.1-0.1,0.1-0.1,0.2c0.1,0,0.3-0.1,0.4-0.2c0,0,0,0,0,0l0.5-0.2c0-0.1,0-0.1,0-0.1
		c0.1,0,0.1,0,0.2,0c0,0,0,0,0,0c0.3,0,0.3-0.2,0.4-0.2c1.7,0.2,0.7-0.7,2.8-0.5c0.1,0,0.1,0,0.2-0.1c-0.1,0.2-0.1,0.5,0.1,0.6
		c0.1,0,0.3,0.1,0.4,0.2c0,0,0,0,0,0c-0.1,0-0.3,0-0.3,0.1c-0.3,0.2-0.3-0.5-0.7-0.3c0,0-0.1,0-0.1,0.1c-0.1,0-0.3,0.2-0.3,0.3
		c0,0,0.1-0.1,0.2-0.1c0,0,0,0.1,0,0.1c0,0.1,0,0.1,0.1,0.1c0.1,0,0.1,0,0.1,0c0,0,0,0,0,0c0,0.1-0.4-0.1-0.3,0.3c0,0,0,0.1,0.1,0.1
		c0,0.1,0.1,0.2,0.3,0.2c0,0-0.1-0.1-0.1-0.1c0,0,0.1,0,0.1,0c0,0,0,0,0,0c0,0,0,0,0,0c0,0,0,0,0,0c0,0,0,0,0,0.1c0,0,0,0.1,0,0.1
		c0,0.1,0.2,0.3,0.4,0.1c0,0-0.2,0-0.2-0.1c0,0,0.1,0,0.1,0c0,0,0-0.1,0-0.1c0,0,0,0,0,0c0,0,0.1,0,0.1,0c0,0,0.1,0,0.1,0
		c0,0.1,0.1,0.2,0.3,0.1c0.2-0.1,0-0.3,0.2-0.3c0,0,0.1,0,0.1,0c0.2,0,0.4,0,0.5,0c0-0.1,0-0.4-0.2-0.5c-0.1-0.1,0-0.2-0.1-0.4
		c0.2,0.1,0.4,0.2,0.7,0.2c0.5,0,0.6-0.1,0.8-0.2c0.2-0.1,0.5-0.1,0.6-0.1c0.1,0,0.1,0,0.1,0.1c-0.1,0.3,0,0.3,0,0.4
		c0,0.1-0.3,0-0.4,0c-0.1,0-0.2,0.1-0.2,0.1c-0.1,0-0.3,0.1-0.3,0.3c0,0,0.1-0.1,0.2-0.1c0,0,0,0,0,0c0,0.2,0.2,0.2,0.3,0.1
		c0,0,0.1,0,0,0c-0.1,0.1-0.3,0.2-0.1,0.3c0,0,0,0,0.1,0c0,0.1,0.1,0.2,0.2,0.2c0-0.1,0-0.1,0-0.2c0,0,0.1,0,0.1,0
		c0.1,0,0.1-0.2,0.2-0.3c0,0,0,0,0,0c0,0.1-0.1,0.3,0,0.3c0,0,0,0,0.1,0c0,0.1,0.2,0.2,0.3,0.1c0,0-0.1,0-0.1-0.1
		c0,0,0.1-0.1,0.1-0.1c0.1-0.3-0.1-0.3-0.1-0.4c0-0.1,0.3,0,0.3-0.3c0,0,0-0.1-0.1-0.2c0,0,0,0,0,0v0c0.1,0,0.1,0,0.2-0.1
		c-0.2,0-0.1-0.1-0.2-0.3c0,0,0,0,0,0c0.1,0,0.1-0.1,0.1-0.3c-0.1,0.1-0.3,0.2-0.3,0c0,0,0-0.1-0.2-0.1c-0.3,0-0.5,0-1.2-0.1
		C125.6,283.7,126.7,283.6,126.7,283.2"/>
	<path class="st1" d="M134.9,291.7L134.9,291.7C134.9,291.7,134.9,291.7,134.9,291.7 M133.3,289.3
		C133.3,289.3,133.3,289.3,133.3,289.3C133.3,289.3,133.3,289.3,133.3,289.3 M133.2,289.6L133.2,289.6L133.2,289.6z M133.5,290.1
		c0-0.1,0.1-0.1,0.1-0.1c0.1,0,0.1,0,0.1-0.1c0-0.1,0-0.1-0.1-0.2c0.1,0,0.1-0.1,0.1-0.1c0,0-0.1,0-0.1,0c0,0,0-0.1,0.1-0.1
		c0,0,0.1,0,0.1,0l0.3,0.2c0,0,0.1,0,0.1,0.1c0,0,0,0.1,0,0.1c0,0,0-0.1-0.1-0.1c-0.1,0-0.1,0,0,0.1c-0.1,0-0.2-0.1-0.2,0
		c0,0.1,0,0.1,0,0.2c0,0,0,0.1,0,0.2c0,0.1-0.1,0.2-0.2,0.1C133.4,290.3,133.4,290.2,133.5,290.1 M133.9,289.3
		c-0.1,0.1-0.2,0.2-0.3,0.1c-0.1-0.1,0-0.1-0.1-0.3C133.6,289.1,133.8,289.3,133.9,289.3 M134.1,289.4c0,0,0.3,0.1,0.4,0.2
		c-0.2,0-0.1,0.1-0.3,0.1C134.1,289.7,134.1,289.5,134.1,289.4 M141.8,291.4C141.8,291.4,141.8,291.3,141.8,291.4
		c0.1-0.1,0.1-0.2,0.1-0.3c-0.1,0.1-0.3,0.2-0.3,0c0,0,0-0.1-0.2-0.1c-0.3,0-0.6,0-1.2-0.1c0,0-0.1,0,0,0c0.6,0,1.7-0.1,1.7-0.5
		c0-0.3-0.4-0.5-1.4-0.5c-1.1,0-4.3,0.4-4.3-0.2c0-0.4,1.1-0.2,1.9-0.2c0,0.1,0.1,0.1,0.2,0.1c1.4,0.4,2.9-0.6,3.8-0.4
		c-1.1-0.4-1.7,0.3-2.8,0.1c0.6,0,1.2-0.1,1.3-0.3c-0.5,0.3-1.8-0.2-2.4,0.1c0,0-0.1,0-0.1,0.1c-1,0-2.2-0.1-2.2,0.5
		c0,1.1,3.7,0.4,4.6,0.4c0.9,0,1.1,0.1,1.1,0.3c0,0.3-0.9,0.3-1.4,0.3c-0.8,0-4.3-0.5-5.7,0c0.1-0.2,0.4-0.6,0.3-0.8
		c0.1-0.1,0.2-0.2,0.2-0.3c-0.1-0.1-0.2-0.1-0.3-0.1c0-0.1,0-0.1-0.1-0.2c0,0,0-0.2-0.1-0.2c0,0-0.2-0.1-0.3-0.2
		c-0.1-0.1-0.3-0.1-0.3-0.1c0,0-0.2,0-0.2,0c-0.1,0-0.2,0-0.2,0.1c-0.1-0.1-0.2-0.1-0.3-0.1c-0.1,0.1-0.1,0.2,0,0.4
		c-0.1,0-0.3,0.3-0.4,0.3c0,0.1,0.1,0.1,0.1,0.1c-0.1,0.2-0.1,0.4-0.3,0.4c0.1,0.1,0.1,0.2,0.2,0.2c0,0.1,0,0.2,0,0.3l-0.2-0.1
		c-0.1,0-0.2,0-0.2,0c0,0-0.1,0-0.2,0c-0.2,0-0.3-0.3-0.6-0.5c-0.2-0.1-0.2-0.2-0.2-0.4c0-0.2,0.1-0.3,0.1-0.5c0,0,0-0.1-0.1-0.2
		c0-0.1-0.2-0.2-0.3-0.2c0,0,0.1,0.1,0.1,0.2c0,0-0.1,0.1-0.1,0.1c0,0,0,0.1,0,0.2c0,0,0,0,0,0c0,0,0,0,0,0.1c0,0,0,0,0,0
		c0-0.1-0.1-0.3-0.2-0.3c0,0-0.1,0-0.1,0c0,0,0,0,0,0c0-0.1-0.1-0.2-0.3-0.1c0,0,0.1,0,0.1,0.1c0,0,0,0.1,0,0.1
		c0,0.1,0.1,0.2,0.2,0.2c0,0,0,0,0,0c0,0,0,0,0,0.1c0,0,0,0,0,0c-0.2-0.1-0.3,0-0.4,0.1c0,0,0,0.1,0,0.1c-0.1,0.1-0.1,0.2,0.1,0.3
		c0,0,0-0.1,0.1-0.2c0,0,0,0,0,0c0,0,0.1,0,0.1,0c0,0,0.1,0,0.1,0c0,0,0,0,0.1,0c0,0,0,0,0.1,0c0,0,0,0,0,0
		c-0.2,0.2-0.1,0.3,0.1,0.4c0,0,0,0,0,0c0,0.3-0.4,0.2-0.4-0.1c-0.2,0.3,0.2,0.6,0.5,0.4c0,0,0,0,0,0c0,0.1,0,0.1,0.1,0.1
		c0,0,0-0.1,0.1-0.1c0,0,0,0,0,0c0,0.1,0,0.2,0.1,0.2c0-0.1,0-0.1,0-0.1c0.1,0,0.3,0.4,0.7,0.7c0,0,0.2-0.1,0.3-0.2
		c0,0.1,0.1,0.2,0.1,0.2l0.1,0c0,0.2,0.2,0.4,0.2,0.4c-0.1,0-0.5-0.1-0.6,0c-0.2,0.1-0.7,0.3-0.8,0.1c0-0.1,0-0.1-0.1-0.2
		c0-0.1-0.1-0.1-0.2-0.1c0,0-0.1,0-0.1,0c-0.1-0.1-0.3-0.1-0.3,0c0.1,0,0.1,0,0.2,0.1c0,0,0,0.1,0,0.1c0,0.1,0,0.2,0.3,0.3
		c0,0,0,0,0,0c0,0-0.1,0-0.2,0c-0.1-0.1-0.1-0.2-0.3-0.1c0,0,0,0-0.1,0c0,0,0,0,0,0c-0.1,0-0.3,0.2-0.3,0.3c0,0,0.1-0.1,0.2-0.1
		c0,0,0,0.1,0,0.1c0,0.2,0.1,0.3,0.4,0.1c0,0,0,0,0,0c-0.1,0.1-0.3,0.3-0.1,0.4c0,0,0,0,0.1,0.1c0,0,0,0,0,0c0,0.2,0.2,0.3,0.3,0.3
		c0,0-0.1-0.1-0.1-0.3c0,0,0.1,0,0.1,0c0.2-0.1,0.1-0.3,0.2-0.3c0,0,0,0,0,0c0,0.1,0,0.3,0.2,0.2c0.2,0,0.3-0.2,0.2-0.3c0,0,0,0,0,0
		c0.1,0,0.1,0.1,0.1,0.2c0,0,0.1-0.1,0.1-0.1c0,0.1,0,0.2-0.1,0.3c0.1,0,0.3-0.1,0.3-0.3c0,0,0.1,0.1,0.1,0.1c0,0,0,0,0,0
		c0.1,0,0.2,0,0.4,0c0,0,0,0,0,0c0,0.1,0,0.2,0,0.2c0,0,0-0.1,0.1-0.1c0.1,0,0,0.2,0.1,0.3c0-0.5,0.3-0.3,0.6-0.5c0,0,0,0,0,0
		c0,0.1-0.1,0.1-0.1,0.2c0.1,0.1,0.5-0.2,0.5-0.4c0,0,0.2-0.1,0.3-0.1c0.3,0,0.3-0.2,0.4-0.2c1.7,0.2,0.7-0.7,2.8-0.5
		c0.1,0,0.1-0.1,0.2-0.2c-0.1,0.2-0.1,0.6,0.1,0.6c0.1,0,0.3,0.1,0.4,0.1c0,0,0,0,0,0c-0.1,0-0.2,0-0.3,0.1
		c-0.3,0.2-0.3-0.5-0.7-0.4c0,0-0.1,0.1-0.1,0.1c-0.1,0-0.3,0.2-0.3,0.3c0,0,0.1-0.1,0.2-0.1v0.1c0,0.1,0,0.1,0.1,0.1
		c0.1,0,0.1,0,0.1,0c0,0,0,0,0,0c0,0.1-0.4-0.1-0.3,0.3c0,0,0,0.1,0.1,0.1c0,0.1,0.1,0.2,0.3,0.1c0,0-0.1-0.1-0.1-0.1
		c0,0,0.1,0,0.1,0c0,0,0,0,0-0.1c0,0,0,0,0,0c0,0,0,0,0,0c0,0,0,0,0,0.1c0,0,0,0.1,0,0.1c0,0.1,0.2,0.3,0.4,0.1
		c-0.1,0-0.2,0-0.2-0.1c0,0,0.1,0,0.1,0c0,0,0-0.1,0-0.1c0,0,0,0,0,0c0,0,0.1,0,0.1,0c0,0,0,0,0.1,0c0,0.1,0.1,0.1,0.3,0.1
		c0.2-0.1,0-0.3,0.2-0.3c0,0,0.1,0,0.1,0c0.2,0,0.4,0,0.5,0c0-0.1,0-0.4-0.2-0.5c-0.1-0.1,0-0.2-0.1-0.4c0.2,0.1,0.4,0.2,0.7,0.2
		c0.5,0,0.6-0.1,0.9-0.2c0.3-0.2,0.5-0.1,0.6-0.1c0.1,0,0.1,0,0.1,0.1c-0.1,0.3,0,0.3-0.1,0.4c0,0.1-0.3,0-0.4,0
		c-0.1,0-0.1,0.1-0.1,0.1c-0.1,0-0.3,0.1-0.3,0.3c0,0,0.1-0.1,0.2-0.1v0.1c0,0.2,0.2,0.2,0.3,0.1c0,0,0.1,0,0,0
		c-0.1,0.1-0.3,0.2-0.1,0.3c0,0,0,0,0.1,0c0,0.1,0,0.2,0.1,0.2c0-0.1,0-0.1,0-0.2h0.1c0.1,0,0.1-0.2,0.2-0.3c0,0,0,0,0,0
		c0,0.1-0.1,0.3,0,0.3c0,0,0,0,0.1,0c0,0.1,0.1,0.2,0.3,0.1c0,0-0.1,0-0.1-0.1c0,0,0.1-0.1,0.1-0.1c0.1-0.3-0.1-0.3-0.1-0.4
		c0-0.1,0.3,0,0.3-0.3c0,0,0-0.1-0.1-0.2c0,0,0,0,0,0h0c0.1,0,0.1,0,0.2-0.1C141.7,291.6,141.8,291.5,141.8,291.4"/>
	<path class="st1" d="M134.1,294.4c-0.1,0-0.2-0.2-0.1-0.3c0,0,0.3,0.1,0.4,0.2C134.2,294.3,134.2,294.4,134.1,294.4 M133.9,294.6
		c0,0,0-0.1-0.1-0.1c-0.1,0,0,0,0,0.1c-0.1,0-0.1-0.1-0.2,0c0,0.1,0,0.1,0,0.2c0,0,0,0.1,0,0.2c0,0.1-0.1,0.2-0.2,0.1
		c-0.1-0.1-0.1-0.2-0.1-0.2c0-0.1,0.1-0.1,0.1-0.1c0.1,0,0.1,0,0.1-0.1c0-0.1,0-0.1-0.1-0.2c0.1,0,0.1-0.1,0.1-0.1
		c-0.1,0-0.1,0-0.1,0c0,0,0-0.1,0.1-0.1c0,0,0.1,0,0.1,0l0.3,0.1c0,0,0.1,0,0.1,0.1C133.9,294.5,134,294.6,133.9,294.6 M133.7,294
		c-0.1,0.1-0.2,0.2-0.3,0.1c-0.1-0.1,0-0.1-0.1-0.3C133.5,293.9,133.7,294,133.7,294 M137,294.1c0,0.1,0.1,0.1,0.2,0.2
		c1.3,0.4,2.8-0.6,3.6-0.4c-1-0.4-1.7,0.3-2.7,0.1c0.6,0,1.2-0.1,1.2-0.3c-0.4,0.3-1.7-0.2-2.2,0.1c0,0-0.1,0-0.1,0.1
		c-0.7,0-1.3,0-1.3,0.5c0,1,2.7,0.4,3.6,0.4c0.8,0,0.7,0.1,0.7,0.3c0,0.2-1,0.3-1.4,0.3c-0.7,0-2.9-0.4-4.3-0.1
		c0.1-0.2,0.4-0.5,0.2-0.7c0.1,0,0.2-0.1,0.2-0.3c-0.1-0.1-0.2-0.1-0.2-0.1c0-0.1,0-0.1-0.1-0.2c0,0,0-0.1-0.1-0.2
		c0,0-0.2-0.1-0.3-0.2c-0.2-0.1-0.2-0.1-0.3-0.1c0,0-0.2,0-0.2,0c-0.1,0-0.2,0-0.2,0.1c-0.1-0.1-0.1-0.1-0.2-0.1
		c-0.1,0.1-0.1,0.2,0,0.4c-0.1,0-0.2,0.3-0.4,0.3c0,0.1,0.1,0.1,0.1,0.1c-0.1,0.2-0.1,0.4-0.3,0.4c0,0.1,0.1,0.1,0.1,0.1
		c0,0.1-0.1,0.3-0.1,0.4l-0.1,0c0,0,0,0-0.1,0c-0.2,0-0.3,0-0.5-0.2c-0.2-0.1-0.2-0.2-0.2-0.4c0-0.2,0.1-0.3,0.1-0.5
		c0,0,0-0.1,0-0.2c0-0.1-0.2-0.2-0.3-0.2c0,0,0.1,0.1,0.1,0.2c0,0-0.1,0.1-0.1,0.1c0,0.1-0.1,0.1,0,0.2c0,0,0,0,0,0c0,0,0,0,0,0.1
		c0,0,0,0,0,0c0-0.1-0.1-0.3-0.2-0.3c0,0-0.1,0-0.1,0c0,0,0,0,0,0c0-0.1-0.1-0.2-0.3-0.1c0,0,0.1,0,0.1,0.1c0,0,0,0.1,0,0.1
		c0,0.1,0.1,0.2,0.2,0.2c0,0,0,0,0,0c0,0,0,0,0,0.1c0,0,0,0,0,0c-0.2-0.1-0.3,0-0.3,0.1c0,0,0,0.1,0,0.1c-0.1,0.1-0.1,0.2,0,0.3
		c0,0,0-0.1,0-0.1c0,0,0,0,0,0c0,0,0.1,0.1,0.1,0.1c0,0,0.1,0,0.1,0c0,0,0,0,0.1,0c0,0,0,0,0.1,0.1c0,0,0,0,0,0
		c-0.2,0.1-0.1,0.3,0.1,0.3c0,0,0,0,0,0.1c0,0.3-0.4,0.2-0.4-0.1c-0.2,0.3,0.2,0.6,0.4,0.4c0,0,0,0,0,0c0,0.1,0,0.1,0.1,0.1
		c0,0,0-0.1,0.1-0.1c0,0,0,0,0,0c0,0.1,0,0.2,0.1,0.2c0-0.1,0-0.1,0-0.1c0.1,0,0-0.1,0.4,0.1c0,0.1,0.1,0.1,0.1,0.1l0.3,0
		c0,0.2,0,0.5,0,0.5c-0.1,0-0.4,0-0.6,0c-0.2,0.1-0.7,0.3-0.8,0.1c0-0.1,0-0.1-0.1-0.2c0-0.1-0.1-0.1-0.2-0.1H131
		c-0.1-0.1-0.2-0.1-0.3,0c0.1,0,0.1,0,0.2,0.1c0,0,0,0.1,0,0.1c0,0.1,0,0.2,0.3,0.3c0,0,0,0,0,0c0,0-0.1,0-0.2,0
		c-0.1-0.1-0.1-0.2-0.3-0.1c0,0-0.1,0-0.1,0c0,0,0,0,0,0c-0.1,0-0.3,0.2-0.2,0.3c0,0,0.1-0.1,0.2-0.1c0,0,0,0.1,0,0.1
		c0,0.2,0.1,0.3,0.4,0.1c0,0,0,0,0,0c-0.1,0.1-0.3,0.3-0.1,0.4c0,0,0,0,0.1,0c0,0,0,0,0,0c0,0.2,0.2,0.3,0.3,0.3
		c0,0-0.1-0.1-0.1-0.3c0,0,0.1,0,0.1,0c0.1-0.1,0.1-0.2,0.2-0.3c0,0,0,0,0,0c0,0.1,0,0.2,0.2,0.2c0.2,0,0.2-0.2,0.2-0.2c0,0,0,0,0,0
		c0.1,0,0.1,0.1,0.1,0.2c0,0,0.1-0.1,0.1-0.1c0,0.1,0,0.2-0.1,0.3c0.1,0,0.2-0.1,0.3-0.3c0,0,0.1,0.1,0.1,0.1c0,0,0,0,0,0
		c0,0,0.2,0,0.3,0c0,0,0,0,0,0c0,0.1,0,0.1,0,0.2c0,0,0-0.1,0.1-0.1c0,0,0,0.2,0.1,0.3c0-0.4,0.4-0.3,0.7-0.5c0,0,0,0,0,0
		c0,0.1-0.1,0.1-0.1,0.1c0.3,0.2,0.6-0.2,0.7-0.4c0,0,0.1-0.1,0.1-0.1c0,0,0,0.1-0.1,0.1c0.3,0,0.3-0.2,0.4-0.2
		c0.9,0.1,0.2-0.7,1.6-0.5c0.1,0,0.3-0.1,0.4-0.2c-0.1,0.2-0.1,0.6,0.1,0.6c0.1,0,0.3,0.1,0.3,0.1c0,0,0,0,0,0c-0.1,0-0.2,0-0.3,0.1
		c-0.3,0.2-0.3-0.5-0.6-0.3c0,0-0.1,0-0.1,0.1c-0.1,0-0.3,0.2-0.3,0.3c0,0,0.1-0.1,0.2-0.1c0,0,0,0.1,0,0.1c0,0,0,0.1,0.1,0.1
		c0.1,0,0.1,0,0.1,0c0,0,0,0,0,0c0,0.1-0.4-0.1-0.3,0.3c0,0,0,0.1,0.1,0.1c0,0.1,0.1,0.2,0.2,0.1c0,0-0.1-0.1-0.1-0.1
		c0,0,0.1,0,0.1,0c0,0,0,0,0,0c0,0,0,0,0,0c0,0,0,0,0,0c0,0,0,0,0,0.1c0,0,0,0.1,0,0.1c0,0.1,0.2,0.2,0.3,0.1c-0.1,0-0.2,0-0.2-0.1
		c0,0,0.1,0,0.1,0c0,0,0-0.1,0-0.1c0,0,0,0,0,0c0,0,0.1,0,0.1,0c0,0,0.1,0,0.1,0c0,0.1,0.1,0.1,0.2,0.1c0.2-0.1,0-0.3,0.2-0.3
		c0,0,0.1,0,0.1,0c0.2,0,0.4,0,0.5,0c0-0.1,0-0.4-0.2-0.5c-0.1,0,0-0.2-0.1-0.3c0.2,0.1,0.4,0.2,0.6,0.2c0.5,0,0.7-0.1,0.9-0.2
		c0.3-0.1,0.5-0.1,0.6-0.1c0.1,0,0.1,0,0.1,0.1c-0.1,0.2,0,0.3-0.1,0.4c-0.1,0.1-0.2,0-0.4,0c-0.1,0-0.2,0.1-0.2,0.1
		c-0.1,0-0.3,0.1-0.3,0.3c0,0,0.1-0.1,0.2-0.1c0,0,0,0,0,0.1c0,0.2,0.1,0.2,0.3,0.1c0,0,0.1,0,0,0c-0.1,0.1-0.3,0.2-0.2,0.3
		c0,0,0,0,0.1,0c0,0.1,0,0.2,0.1,0.2c0-0.1,0-0.1,0.1-0.2c0,0,0.1,0,0.1,0c0.1,0,0.1-0.2,0.2-0.3c0,0,0,0,0,0
		c-0.1,0.1-0.1,0.3,0,0.3c0,0,0,0,0.1,0c0,0.1,0.1,0.2,0.3,0.1c0,0-0.1-0.1-0.1-0.1c0,0,0.1-0.1,0.1-0.1c0.1-0.3-0.1-0.3-0.1-0.4
		c0-0.1,0.3,0,0.3-0.3c0,0,0-0.1-0.1-0.2c0,0,0,0,0,0h0c0.1,0,0.1,0,0.2-0.1c-0.2,0-0.1-0.1-0.1-0.2c0,0,0,0,0,0
		c0.1,0,0.1-0.1,0.1-0.3c-0.1,0.1-0.3,0.2-0.3,0c0,0,0-0.1-0.2-0.1c-0.3,0-0.8,0-1.3-0.1c0,0-0.1,0,0,0c0.6,0,1.8-0.1,1.8-0.5
		c0-0.3-0.1-0.5-1.1-0.5c-1,0-3.3,0.4-3.3-0.2C136,294,136.5,294,137,294.1"/>
	<path class="st1" d="M132.9,299.5c0-0.1,0.1-0.1,0.1-0.1c0.1,0,0.1,0,0.1-0.1c0-0.1,0-0.1-0.1-0.1c0.1,0,0.1-0.1,0.1-0.1
		c0,0-0.1,0-0.1,0c0,0,0-0.1,0.1-0.1c0,0,0.1,0,0.1,0l0.3,0.1c0,0,0.1,0,0.1,0.1c0,0,0,0.1,0,0.1c0,0,0-0.1-0.1-0.1c0,0,0,0,0,0.1
		c-0.1,0-0.1-0.1-0.2,0c0,0.1,0,0.1,0,0.2c0,0,0,0.1,0,0.2c0,0.1-0.1,0.2-0.2,0.1C132.9,299.7,132.9,299.6,132.9,299.5 M133.3,298.7
		c-0.1,0.1-0.2,0.2-0.2,0.1c-0.1-0.1,0-0.1-0.1-0.3C133,298.6,133.2,298.7,133.3,298.7 M133.5,298.9c0,0,0.3,0.1,0.4,0.1
		c-0.2,0-0.1,0.1-0.2,0.1C133.5,299.1,133.5,299,133.5,298.9 M135.9,298.7c0,0.1,0.1,0.1,0.2,0.2c1.3,0.4,2.8-0.6,3.6-0.4
		c-1-0.4-1.7,0.3-2.7,0.1c0.6,0,1.2-0.1,1.2-0.3c-0.4,0.3-1.7-0.2-2.2,0.1c0,0-0.1,0.1-0.1,0.1c-0.4,0.1-0.7,0.3-0.7,0.6
		c0,0.9,3.3,0.2,3.3,0.5c0,0.2-0.7,0.4-1.5,0.4c-0.7,0-1.8-0.4-3.3-0.1v0c0.1-0.2,0.4-0.6,0.3-0.8c0.1,0,0.2-0.1,0.2-0.2
		c-0.1-0.1-0.2-0.1-0.2-0.1c0-0.1,0-0.1-0.1-0.2c0,0,0-0.1-0.1-0.2c0,0-0.1-0.1-0.3-0.2c-0.1-0.1-0.2-0.1-0.3-0.1c0,0-0.2,0-0.2,0
		c-0.1,0-0.2,0-0.2,0.1c-0.1-0.1-0.1-0.1-0.2-0.1c-0.1,0.1-0.1,0.2,0,0.3c-0.1,0-0.2,0.3-0.3,0.3c0,0.1,0.1,0.1,0.1,0.1
		c-0.1,0.2-0.1,0.4-0.2,0.4c0,0.1,0.1,0.1,0.1,0.1c-0.1,0.3-0.1,0.6-0.1,0.8c-0.2-0.2-0.5-0.7-0.7-0.8c-0.2-0.1-0.2-0.2-0.2-0.4
		c0-0.2,0.1-0.3,0.1-0.5c0,0,0-0.1,0-0.2c0-0.1-0.2-0.2-0.3-0.2c0,0,0.1,0.1,0.1,0.2c0,0-0.1,0.1-0.1,0.1c0,0-0.1,0.1,0,0.2
		c0,0,0,0,0,0c0,0,0,0,0,0.1c0,0,0,0,0,0c0-0.1-0.1-0.3-0.2-0.3c0,0-0.1,0-0.1,0c0,0,0,0,0,0c0-0.1-0.1-0.2-0.3-0.1
		c0,0,0.1,0,0.1,0.1c0,0,0,0.1,0,0.1c0,0.1,0.1,0.2,0.2,0.2c0,0,0,0,0,0c0,0,0,0,0,0.1c0,0,0,0,0,0c-0.2-0.1-0.3,0-0.3,0.1
		c0,0,0,0.1,0,0.1c-0.1,0.1-0.1,0.2,0,0.3c0,0,0-0.1,0-0.1c0,0,0,0,0,0c0,0,0.1,0.1,0.1,0.1c0,0,0.1,0,0.1,0c0,0,0,0,0,0
		c0,0,0,0,0.1,0c0,0,0,0,0,0c-0.1,0.1-0.1,0.3,0.1,0.3c0,0,0,0,0,0c0,0.3-0.4,0.2-0.4-0.1c-0.2,0.3,0.2,0.6,0.4,0.4c0,0,0,0,0,0
		c0,0,0,0.1,0.1,0.1c0,0,0-0.1,0.1-0.1c0,0,0,0,0,0c0,0.1,0,0.2,0.1,0.2c0-0.1,0-0.1,0-0.1c0,0,0,0.4,0.4,0.6
		c0.1,0.2,0.3,0.4,0.5,0.3c0.1,0.2,0.2,0.3,0.1,0.3c-0.1,0-0.5,0-0.6,0c-0.1,0.1-0.3,0.1-0.4,0.1l0,0c0,0,0,0,0,0
		c-0.1,0-0.3,0-0.3-0.1c0-0.1,0-0.1-0.1-0.2c0-0.1-0.1-0.1-0.1-0.1c0,0-0.1,0-0.1,0c-0.1-0.1-0.2-0.1-0.3,0c0.1,0,0.1,0,0.2,0.1
		c0,0,0,0.1,0,0.1c0,0.1,0,0.2,0.3,0.2c0,0,0,0,0,0c0,0-0.1,0-0.2,0c-0.1-0.1-0.1-0.2-0.3-0.1c0,0,0,0-0.1,0c0,0,0,0,0,0
		c-0.1,0-0.3,0.1-0.2,0.3c0,0,0.1-0.1,0.1-0.1c0,0,0,0.1,0,0.1c0,0.1,0.1,0.3,0.4,0.1c0,0,0,0,0,0c-0.1,0.1-0.3,0.2-0.1,0.3
		c0,0,0,0,0.1,0c0,0,0,0,0,0c0,0.2,0.2,0.3,0.2,0.3c0,0-0.1-0.1-0.1-0.2c0,0,0.1,0,0.1,0c0.1-0.1,0.1-0.2,0.1-0.3c0,0,0,0,0,0
		c0,0.1,0,0.2,0.2,0.2c0.2,0,0.2-0.2,0.2-0.2c0,0,0,0,0,0c0.1,0,0.1,0.1,0.1,0.2c0,0,0.1-0.1,0.1-0.1c0,0.1,0,0.2-0.1,0.3
		c0.1,0,0.2-0.1,0.3-0.3c0,0,0.1,0.1,0.1,0.1c0,0,0,0,0,0c0.1,0,0.2,0,0.3,0c0,0,0,0,0,0c0,0.1,0,0.1,0,0.2c0,0,0-0.1,0.1-0.1
		c0,0,0,0.2,0.1,0.3c0-0.4,0.3-0.3,0.5-0.4c0,0,0,0,0,0c0,0-0.1,0.1-0.1,0.1c0.1,0,0.4-0.1,0.4-0.3c0-0.1,0.2-0.2,0.2-0.7
		c0,0,0.1,0,0.1,0c0.4,0,0.5-0.3,0.9-0.3c-0.1,0.1-0.1,0.3-0.1,0.5c0,0.2,0.3,0.4,0.3,0.5c0,0,0,0,0,0c-0.1,0-0.2,0-0.3,0.1
		c-0.3,0.2-0.3-0.4-0.6-0.3c0,0-0.1,0-0.1,0.1c-0.1,0-0.3,0.1-0.3,0.3c0,0,0.1-0.1,0.2-0.1v0.1c0,0.1,0,0.1,0.1,0.1
		c0.1,0,0.1,0,0.1,0c0,0,0,0,0,0c0,0.1-0.4-0.1-0.3,0.3c0,0,0,0.1,0,0.1c0,0.1,0.1,0.2,0.2,0.1c0,0-0.1-0.1-0.1-0.1c0,0,0.1,0,0.1,0
		c0,0,0,0,0-0.1c0,0,0,0,0,0c0,0,0,0,0,0c0,0,0,0,0,0.1c0,0,0,0.1,0,0.1c0,0.1,0.1,0.2,0.3,0.1c0,0-0.2,0-0.2-0.1c0,0,0.1,0,0.1,0
		c0,0,0-0.1,0-0.1c0,0,0,0,0,0c0,0,0.1,0,0.1,0c0,0,0,0,0.1,0c0,0.1,0.1,0.1,0.2,0.1c0.2-0.1,0-0.2,0.2-0.3c0,0,0.1,0,0.1,0
		c0.2,0,0.3,0.1,0.3,0c0-0.1,0-0.4-0.2-0.5c-0.1-0.1,0.1-0.7-0.3-1c0.2,0.1,1,0.2,1.1,0c0.2,0.1,0.5,0.2,0.5,0.2c0,0,0,0.1,0,0.1
		c-0.2,0.1-0.2,0.2-0.3,0.2l0,0c-0.1-0.1-0.1-0.2-0.2-0.2c-0.1,0-0.1,0-0.2,0c-0.1,0-0.3,0-0.3,0.1c0,0,0.1,0,0.2,0c0,0,0,0,0,0
		c0,0,0,0.1,0,0.1h0h0c0,0,0,0,0,0c0,0,0,0,0,0c-0.1,0-0.3,0-0.3,0.1c0,0,0,0,0,0.1c-0.1,0.1-0.1,0.2,0,0.2c0-0.1,0-0.1,0.1-0.1
		c0,0,0,0.1,0,0.1c0.1,0.1,0.2-0.1,0.3-0.1c0,0,0,0,0,0c-0.1,0-0.2,0.1-0.2,0.2c0,0,0,0,0,0.1c0,0.1,0,0.2,0.1,0.3c0,0,0-0.1,0-0.2
		c0,0,0.1,0,0.1,0c0.2-0.1,0.1-0.3,0.2-0.3c0.1-0.1,0.2,0.1,0.4,0c0,0,0.1-0.1,0-0.2c0,0,0,0,0,0v0c0,0,0.1,0.1,0.2,0.1
		c-0.1-0.1,0-0.2,0.1-0.3c0,0,0,0,0,0c0.1,0,0.1,0,0.2-0.1c-0.1,0-0.4-0.1-0.2-0.2c0.2-0.1,0.3-0.2,0.2-0.3
		c-0.2-0.2-0.5-0.3-0.5-0.5c0.1,0,0.3,0,0.3,0c1.1,0,1.8-0.3,1.8-0.7c0-0.8-3.4,0.1-3.4-0.5C135.5,299,135.7,298.8,135.9,298.7"/>
	<path class="st1" d="M81.4,240.1c0-0.4-0.4-0.8-0.8-0.8c-0.4,0-0.8,0.4-0.8,0.8c0,0.4,0.4,0.8,0.8,0.8
		C81.1,240.9,81.4,240.5,81.4,240.1"/>
	<path class="st1" d="M81.1,237.9c0-0.4-0.4-0.8-0.8-0.8c-0.4,0-0.8,0.4-0.8,0.8c0,0.4,0.4,0.8,0.8,0.8
		C80.8,238.7,81.1,238.4,81.1,237.9"/>
	<path class="st1" d="M81.6,236.9c0.5,0,0.8-0.4,0.8-0.8c0-0.4-0.4-0.8-0.8-0.8c-0.4,0-0.8,0.4-0.8,0.8
		C80.8,236.6,81.2,236.9,81.6,236.9"/>
	<path class="st1" d="M83.8,236.8c0.5,0,0.8-0.4,0.8-0.8c0-0.4-0.4-0.8-0.8-0.8c-0.4,0-0.8,0.4-0.8,0.8
		C83,236.4,83.3,236.8,83.8,236.8"/>
	<path class="st1" d="M93,235.3c0.3,0.3,0.8,0.3,1.2,0c0.3-0.3,0.3-0.8,0-1.1c-0.3-0.3-0.8-0.3-1.2,0C92.7,234.4,92.7,235,93,235.3"
		/>
	<path class="st1" d="M92.9,233.5c0.3-0.3,0.3-0.8,0-1.2c-0.3-0.3-0.8-0.3-1.2,0c-0.3,0.3-0.3,0.8,0,1.2
		C92,233.9,92.5,233.9,92.9,233.5"/>
	<path class="st1" d="M90.7,233.2c0.3-0.3,0.3-0.8,0-1.2c-0.3-0.3-0.8-0.3-1.2,0c-0.3,0.3-0.3,0.8,0,1.2
		C89.9,233.5,90.4,233.5,90.7,233.2"/>
	<path class="st1" d="M88.8,234.6c0.3-0.3,0.3-0.8,0-1.2c-0.3-0.3-0.8-0.3-1.2,0c-0.3,0.3-0.3,0.8,0,1.2
		C88,234.9,88.5,234.9,88.8,234.6"/>
	<path class="st1" d="M83.6,233.4l0.7,1.4l0.8-1c0,0,0.1,0,0.1,0c0.1,0.5,0.1,1.3,0.1,1.8c0,0.6,0.5,1,1,1c0.6,0,1-0.5,1-1
		c0-0.4-0.2-0.7-0.6-0.9c-0.4-0.3-0.9-0.7-1.2-1.1c0,0,0-0.1,0-0.1l1.4,0.1l-0.5-1.5l-1,0.9c0,0,0,0-0.1,0l-0.1-1.5l-1.4,0.5l1,1.1
		c0,0,0,0.1-0.1,0.1L83.6,233.4z"/>
	<path class="st1" d="M93.1,236c0.3,0.5,0.4,0.7,0.5,1.1c-0.2-0.1-0.5-0.4-0.8-0.8l0.2,1.9c0.2-0.3,0.4-0.6,0.7-0.7
		c-0.1,1.2-0.6,1.7-1,1.8c-0.5,0.1-0.9-0.2-1-0.6c-0.1-0.6,0.4-0.9,0.9-0.4c0.1-1.1-0.8-1.1-1.2-0.6c0.5-1.1,0.3-1.8-0.7-2.4
		c-0.6,1-0.4,1.7,0.4,2.5c-0.8-0.4-1.4,0.3-0.8,1.1c0.1-0.7,0.8-0.6,0.9,0c0.1,0.5-0.4,1.1-1.2,1.4c-1.2,0.4-1.5-0.4-1.8-1
		c0.3-0.2,0.9-0.1,1.5,0.3l-0.6-1.9c-0.3,0.7-0.7,0.9-1.1,1.1c0-0.5,0.4-1.6,0.4-1.6l-2.2,0.9c0,0,1,0.5,1.4,0.9
		c-0.5,0.2-0.9,0.3-1.6,0l0.9,1.7c0.2-0.8,0.6-1.2,0.9-1.3c0.2,0.7,0.5,1.5-0.6,2c-0.8,0.4-1.5,0.3-1.8-0.2c-0.3-0.5,0-1.1,0.7-0.7
		c-0.1-1.1-1-1.1-1.3-0.3c0-1.1-0.3-1.8-1.4-2.1c-0.3,1.1,0.1,1.8,1.2,2.2c-0.6-0.1-1.3,0.6-0.4,1.3c0-0.7,0.6-0.8,0.9-0.3
		c0.2,0.3,0.2,0.8-0.3,1.1c-0.4,0.2-1.1,0.2-2-0.6c0.3-0.1,0.6-0.1,1,0l-1.2-1.5c0.1,0.5,0,0.9-0.1,1.1c-0.3-0.3-0.3-0.5-0.5-1.1
		l-0.9,0.8c0.9,0.5,1.9,1.4,3.1,3c1.3-0.8,3.6-1.9,5-2.5c1.4-0.6,3.8-1.4,5.3-1.7c-0.3-2-0.2-3.3,0.1-4.3L93.1,236z"/>
	<path class="st1" d="M95.7,246.8c-1.1,0.9-2.7,0.1-3.3-1.1c1.6-0.6,3.4-1.4,4.6-2.1C95.8,245.3,96.6,246.1,95.7,246.8 M95.4,258.6
		c-1.5,0.6-2.6-0.7-2.9-1.5c-0.3-0.9-0.5-1.6-0.2-1.9c0.6-0.6,0.8-1.1,0.4-1.9c-0.4-0.9-1.4-0.5-2.4-0.2c0.5-0.9,0.5-1.5-0.1-1.4
		c-0.8,0.1-0.8,1.4-1.2,1.2c-0.4-0.1-0.2-0.9-0.2-1.3c0-0.5,0.4-0.7,0.9-1L94,249c0.5-0.2,0.9-0.3,1.3,0.1c0.3,0.3,1,0.6,0.7,1
		c-0.2,0.4-1.1-0.5-1.7,0c-0.5,0.4-0.1,0.8,0.9,1.1c-0.9,0.5-1.9,0.9-1.6,1.8c0.3,0.8,0.7,1,1.6,1c0.5,0,0.8,0.7,1.2,1.5
		C96.9,256.4,97,258,95.4,258.6 M87.3,250.1c-1.1,0.1-1.1-1-3.1-1.5c1.4-0.3,3.2-1,4.8-1.6C89.3,248.3,88.8,249.9,87.3,250.1
		 M111,287.9c0.3-0.9-1.3-1.9-1.5-3.1c-0.2-1.3,0-2.4-1.5-4.1c-1.4-1.6-6.3-6.9-7.8-8.5c0.4,0,1.2-0.2,2.1,0.6
		c0.5,0.5,1.6,1.5,2.5,2.4c1.3-3.3,2.9-5.8,5.2-8.3c0.3-0.3,0.6-0.7,0.9-1c-0.8,0.3-2.1,0.5-2.9,1c-0.1-1.4,0.1-2.6-0.9-3.5
		c0.4-2,0-4.4-4.4-7.4c2.3,0.6,3.7,2.6,5.4,1c-1.6,0-1.6-3.5-7.3-6.3c2.2,0,3.9,3.5,6.4,1.5c-2.4-0.3-3.2-4.5-7.4-5.8
		c1.5,0.2,3,0.9,4.3-0.8c-1.5,0.4-2.4-1-4-1.1c0.6-1.8,0.5-3-0.2-4.4c-1.1,0.1-2.3,0.4-3.1,1.1c-0.1-1-1.2-1.1-2.1-1
		c0,0.4,0.3,1.1-0.2,1.2c-0.8,0.1-3.3,0.8-5.3,1.6c-2,0.8-4.2,2.2-4.9,2.6c-0.4,0.3-0.7-0.4-1-0.7c-0.7,0.6-1.4,1.4-0.9,2.1
		c-1.1,0.1-2.3,0.4-3.3,1.2c0,1.3,1.1,2.5,2.6,3.2c-2.6,2.6-0.3,5.1-2.6,7.3c3.3,0.1,2.7-4.4,4.4-5.1c-0.2,3.2-2,3.8-2,7.2
		c0,1.8,1.1,3.8,0.1,5.1c2.7-0.8,2-6.8,3.7-8.6c0.3,1,0.1,2-0.2,3.1c-1,2.8,0.1,6.7-1.4,7.9c2.8-0.3,3.1-4.8,5.4-6.4
		c-2,4-4,12.6-6.9,16.9c-4.8,6.4-7.6,14.3-11.9,14.3c-1.9,0-3.4-1.2-3.4-3.6c0-7.3,12.5-12.3,12.5-20.1c0-3.5-2.8-4.8-4.6-4.8
		c-1.2,0-2.6,0.6-3.8,1.6c-0.5-0.2-1-0.3-1.5-0.3c-4.4,0-3.3,8-7.1,7.9c1.5,0.9,4.2-0.8,5.7-3c-0.6,5.2-8.1,3.8-7.5,10
		c1-4.9,12.9-4.1,12.9-11.5c0-0.8-0.4-1.5-1-2.1c0.9-0.6,1.7-0.8,2.5-0.8c1.4,0,2.7,1.1,2.7,3.1c0,6.5-12.5,12-12.5,20
		c0,1.4,0.4,2.5,1,3.4c-0.9,0.4-1.8,0.2-2.5-0.7c-0.1,2.1,2.9,3.4,4.7,2.3c0.4,0.1,0.8,0.2,1.3,0.3c-0.6,1.5-2.5,2-3.5,1.9
		c3.1,2.4,8.4-0.8,8.1-3.5c2.4-2,4-5.3,5.7-7.5c-0.1,0.5-0.2,1-0.3,1.5c-1.8,3.2-3.5,6.2-3.9,10.4c-0.4,3.6-2.2,6.8-4.7,6.8
		c-0.6,0-1.5-0.7-1.9-0.4c-0.8,0.7,0,1.4,0,2c0,1-2,2-2,5.2c0,1.4,0.8,3.1,0.5,4c0.8-0.4,1.9-1.8,2.3-3.5c0.9,4.2-1.8,4,0.1,7.7
		c0.2-1.2,1.5-1.7,2.2-1.2c0.7,0.5,0.4,0.9-0.2,1.4c-0.6,0.5-1.1,3.3,1.5,3.1c-0.5-0.3-0.5-1,0.7-1.3c1.7-0.3,2.2,0.4,4.1,0.4
		c1.1,0,1.5-1.5,2.4-1.5s0.9,0.7,0.6,1.2c1.5-0.4,1.7-1.2,1.7-2c0-0.8-0.7-1.3-0.2-1.6c0.5-0.3,2.2,0,1.5,1.4
		c0.9-0.2,1.3-0.8,1.3-1.8s-1.2-1.7-2.4-1.5c-0.2-0.7-1.2-1-2.1-1c-2,0-1.7,1.6-3.1,1.6c-2.2,0-4.4-2.9-4.4-7.8
		c0-2.6,2.8-3.3,4.8-4.2c2-0.9,5.5-3,7.6-6.6c1.7-2.8,1.7-5.8,1.5-9.4c2.8,1.6,3.2,3.9,3.2,5.6c0,2.2-1.1,3.1-2,3.5
		c-0.8,0.4-1,0.2-1.1,0.7c-0.1,0.6,0.3,0.9,0.6,1.1c1,0.5,0.8,1.5,1.1,2.6c0.3,1.1,1.2,2.7,2.8,3.9c0.2-0.7,0.1-1.7,0-3.1
		c2.2,1.1,0.4,5.4,4.6,5.4c-0.8-0.4-0.6-1.6-0.1-1.7c0.4-0.2,1,0.3,1.8,1.4c0.8,1.1,0.6,1,2.6,1c2,0,1.1-0.7,2.1-0.7
		c1.1,0,1,1.2,0.4,2.1c1.8-0.5,2.3-1.9,1.7-3.3c1.6-0.8,2.4,0.4,2.6,1.2c1.5-1.5,0-3.4-1.2-3.5c0-0.6-0.5-1.2-1.1-1.2
		c-0.6,0-1.3-0.1-2,0c-0.7,0-1.1,1.1-2,1.1c-2.6,0-7.9-4.8-7.9-6.9s5-3.3,5-6.5c0-4.2-4.1-5.6-7.6-8.3c1.2-1.4,4.9-1.7,6.9-0.7
		c0.2-1.2,1-0.9,1.3-2.9c0.7,1.8,0,3.3,0.7,4.1c0.6-0.9,2.1-0.7,2-2.9c0.5,1.4-0.6,3.5,0.5,4.4c0.2-1.1,0.9-1.3,1.3-1.3
		c0.4,0,0.8,0.3,0.8,1c0,1.7-2.1,0.9-2.1,2.8c0,0.8,1,1.1,1,1.6c0,0.5-0.8,1.3-1.8,0.6c0.3,0.7,1,1.4,1.9,1.4c0.9,0,1.9-0.7,2.3-1.7
		c0.5,1.2,0.1,2.5-0.8,2.7c0.9,0.5,3.1,0,2.8-2.8c1.2,0.2,1.9,1,1.1,2.5c1-0.2,1.9-0.7,1.9-1.8C111.5,289.2,110.6,289,111,287.9"/>
	<path class="st1" d="M191.7,308c0-1.4,1.2-2.6,2.6-2.6c1.4,0,2.6,1.2,2.6,2.6c0,1.4-1.2,2.6-2.6,2.6
		C192.9,310.7,191.7,309.5,191.7,308 M190.8,308c0,1.9,1.6,3.5,3.5,3.5c1.9,0,3.5-1.6,3.5-3.5c0-1.9-1.6-3.5-3.5-3.5
		C192.4,304.5,190.8,306.1,190.8,308"/>
	<path class="st1" d="M179.3,314.4c-1-0.2-1.7-0.9-1.6-1.7c0.1-0.4,0.3-0.6,0.5-0.7c0.4-0.3,1-0.4,1.6-0.3c0.9,0.2,1.6,0.8,1.6,1.5
		c0,0.1,0,0.1,0,0.2C181.2,314.1,180.3,314.6,179.3,314.4 M177.7,311.3c-0.5,0.3-0.8,0.8-0.9,1.3c-0.1,0.6,0.1,1.2,0.5,1.8
		c0.4,0.5,1.1,0.8,1.8,1c0.7,0.1,1.4,0,2-0.3c0.6-0.3,1-0.8,1.1-1.5c0.2-1.2-0.8-2.4-2.3-2.7C179.1,310.7,178.3,310.8,177.7,311.3"
		/>
	<path class="st1" d="M158.1,263.9c0-0.5,0.3-1,0.7-1.3c0.4-0.3,0.9-0.5,1.3-0.4c0.2,0,0.5,0.1,0.7,0.4c0.2,0.2,0.2,0.5,0.2,0.7
		c-0.1,0.4-0.3,0.9-0.7,1.2c-0.7,0.5-1.6,0.6-2,0.1C158.2,264.3,158.1,264.1,158.1,263.9 M158.3,261.9c-1.1,0.9-1.4,2.3-0.7,3.2
		c0.7,0.9,2.2,0.9,3.3,0.1c0.6-0.5,1-1.1,1.1-1.8c0.1-0.5-0.1-1-0.4-1.4c-0.3-0.4-0.7-0.6-1.3-0.7
		C159.6,261.2,158.9,261.4,158.3,261.9"/>
	<path class="st1" d="M174.9,310.3L174.9,310.3L174.9,310.3z M174.9,309.4L174.9,309.4c-0.4,0-0.6-0.2-0.8-0.4
		c-0.3-0.4-0.5-0.9-0.5-1.5c0-0.6,0.2-1.1,0.6-1.5c0.2-0.2,0.4-0.4,0.8-0.4c0.7,0,1.3,0.9,1.3,1.9c0,0.6-0.2,1.1-0.6,1.5
		C175.6,309.2,175.3,309.4,174.9,309.4 M173.6,305.4c-0.5,0.5-0.8,1.3-0.9,2.1v0.1c0,0.8,0.3,1.6,0.8,2.1c0.4,0.4,0.9,0.6,1.4,0.6
		c0.5,0,1-0.2,1.4-0.6c0.5-0.5,0.8-1.3,0.9-2.1c0-0.7-0.2-1.4-0.6-1.9c-0.4-0.6-1-0.9-1.6-0.9C174.5,304.8,174,305,173.6,305.4"/>
	<path class="st1" d="M157,280.4c-0.9-0.4-1.4-1.3-1.1-2c0.2-0.3,0.4-0.5,0.7-0.6c0.5-0.2,1-0.1,1.6,0.1c0.5,0.3,0.9,0.7,1.1,1.1
		c0.1,0.2,0.1,0.6,0,0.9c-0.2,0.3-0.5,0.5-0.7,0.6C158.1,280.7,157.6,280.7,157,280.4 M156.3,277c-0.5,0.2-1,0.6-1.2,1
		c-0.5,1.1,0.1,2.6,1.5,3.2c0.8,0.4,1.6,0.4,2.3,0.2c0.5-0.2,1-0.5,1.2-1c0.2-0.5,0.2-1,0.1-1.6c-0.2-0.7-0.8-1.3-1.6-1.7
		C157.8,276.8,157,276.7,156.3,277"/>
	<path class="st1" d="M181.8,293c-0.6,0.8-1.6,1.1-2.2,0.6c-0.6-0.5-0.7-1.5-0.1-2.3c0.6-0.8,1.6-1.1,2.2-0.7
		C182.4,291.2,182.4,292.2,181.8,293 M177.7,299.6c-0.6,0.8-1.6,1.1-2.2,0.7c-0.6-0.5-0.7-1.5-0.1-2.3c0.6-0.8,1.6-1.1,2.2-0.7
		C178.2,297.7,178.3,298.7,177.7,299.6 M163.5,263.7c0.5-1.5,1.4-4.6,1.4-4.6l1.6,0.6c-0.5,0.2-1,0.6-1.5,1.1c0.4,0.2,1,0.2,1.4-0.1
		l-0.6,1.6c-0.1-0.3-0.6-0.8-1-0.9c-0.3,1.3,0.5,1.8,1.1,2.1c1,0.5,1.6,0.6,1.9,0.1c0.3-0.6-0.3-1.3-1.2-1c-0.1-0.8,0.4-1.3,0.9-1.3
		c0.4,0,0.8,0.4,0.9,0.9c-0.1-1.4,0.6-2.4,1.8-2.8c0.5,1.3,0.1,2.2-0.9,3.2c0.5-0.2,1.1-0.2,1.4,0.2c0.3,0.5,0.2,1.1-0.5,1.5
		c-0.2-0.9-1.2-0.9-1.5-0.4c-0.3,0.6,0.1,1.1,1,1.6c1,0.6,1.9,0.2,2.4-0.7c-0.3-0.1-0.9,0-1.5,0.3l1.1-2c0.1,0.3,0.2,0.8,0.7,1.2
		c0.2-0.4,0.4-1.2,0.1-1.9l2.3,1.3c-0.8,0.1-1.3,0.7-1.6,1c0.6,0.2,1.1,0.1,1.3,0l-1.2,1.9c0-0.7-0.2-1.2-0.5-1.4
		c-0.5,0.9-0.4,1.8,0.6,2.4c0.9,0.5,1.6,0.6,1.9,0.1c0.3-0.5-0.2-1.4-1.1-1.1c0-0.8,0.5-1.3,1-1.2c0.4,0,0.8,0.5,0.9,1.1
		c0.3-1.3,0.9-2.1,2.3-2.4c0.3,1.3-0.3,2.3-1.5,3c0.5-0.2,1.1-0.1,1.3,0.3c0.3,0.5,0.1,1.1-0.6,1.5c-0.1-0.9-1.1-1.1-1.4-0.5
		c-0.3,0.5,0.1,1,1.1,1.6c0.6,0.4,1.4,0.8,2.3-0.1c-0.3-0.4-1-0.4-1.3-0.4l1.1-1.4c0,0.5,0.3,1.1,0.6,1.3c0.2-0.7,0.3-1.4,0.2-1.9
		l1.3,1.1c0,0-2.2,2.3-3.2,3.5L163.5,263.7z M180.7,283.3c0-0.2,0.1-0.6,0.3-0.8c0.3-0.2,0.6-0.3,0.8-0.3c0.5,0,1,0.3,1.4,0.7
		c0.4,0.4,0.6,1,0.6,1.5c0,0.2-0.1,0.5-0.3,0.8v0c-0.3,0.2-0.6,0.3-0.8,0.3c-0.5,0-1-0.3-1.4-0.7
		C180.9,284.3,180.7,283.7,180.7,283.3 M187,312.3c0.1-0.5,0.4-1,0.9-1.3c0.5-0.3,1.1-0.5,1.6-0.4c0.2,0.1,0.5,0.2,0.7,0.5v0
		c0.2,0.3,0.2,0.6,0.1,0.9c-0.1,0.5-0.4,1-0.9,1.3c-0.9,0.6-1.9,0.5-2.3-0.1C186.9,312.8,187,312.5,187,312.3 M157,268.6
		c0,0.5-0.2,1-0.5,1.2c-0.1,0.1-0.4,0.3-0.7,0.3c-0.6,0-1.1-0.7-1.1-1.5c0,0,0-0.1,0-0.1c0-0.5,0.2-1,0.5-1.2
		c0.1-0.1,0.4-0.3,0.7-0.3c0.3,0,0.5,0.2,0.6,0.3C156.9,267.6,157,268.1,157,268.6 M166.3,249.5c0.5-0.9,0-2.4,1.7-2.4
		c0.8,0,1.6,0.8,2.6,1.2C169,248.4,167.5,248.8,166.3,249.5 M193.3,273.4c1.1,3.1,3.4,4.3,5.2,3.5c-3.9-0.5-0.7-7.1-5.7-7.1
		c-0.3,0-0.6,0-0.8,0.1c-0.9-0.9-1.8-1.3-3.3-1.3c-2.1,0-5.8,2-5.8,6.3c0,9.1,10.6,9.9,10.6,17.9c0,2.4-1.8,3.8-3.8,3.8
		c-1.8,0-3.2-2-4.7-5.1c-0.7-1.5-2.2-3.5-3.9-5.6c0.5,0.3,1,0.5,1.6,0.5c0.6,0,1.1-0.2,1.5-0.5c0.4-0.4,0.6-0.9,0.6-1.4v-0.1
		c0-0.7-0.3-1.5-0.9-2c-0.6-0.6-1.3-1-2.1-1c-0.6,0-1.1,0.2-1.5,0.5c-0.4,0.4-0.6,0.9-0.6,1.4v0.1c0,0.3,0.1,0.6,0.2,0.9
		c-2.3-3-4.4-5.9-4.4-7.5c0-1.4,1-2.6,2.2-4.1c0.1,0,0.4,0.2,0.4,0.2l0.3-0.4c0.4-0.5,1.3-1.4,3.1-3.4l0.1-0.1l0,0l0.4-0.5l-1.1-0.9
		c0.3-0.7,0.6-1.4,0.8-2.2c0.4,1.5,1.1,2.4,2.1,2.1c-0.7-1.5,0.7-3.5-0.2-7.2c0.9,1.4,2.1,2.2,3,1.9c-2.3-2.1,0.7-5-2.3-9.4
		c1,0.3,1.7,0.1,2.1-0.4c-2.8-0.4-1.5-3.9-6.4-5.2c1.2-0.2,1.9-0.9,1.7-1.6c-1.3,0.9-2.4-1.7-6.6-1.7c-0.3-1.6-1.7-3.2-3.4-4
		c0.3,1.2,0,2.3-0.3,3.2l-13.8-13.5c-0.4-0.4-0.6-0.5-0.7-0.3c-0.1,0.1-0.1,0.4,0.2,0.7l11.8,14.8c-0.9,0.3-1.8,0.7-2.7,1
		c-0.6,0.2-1,0.8-1,1.5c-2.2,1.1-4.1,2.4-5.1,3.3c-0.7,0.7-1.3,0.8-0.7,2.3c0.2,0.6-0.5,2,1.2,0.9c1.1-0.7,3.7-2.1,4-1.2
		c0.2,0.5-1.1,1.1-1.9,1.4c-0.9,0.3-1.8,1-1.7,1.3c0.1,0.3,0.8,0,0.9,0.3c0,0.4,0.3,0.7,0.7,0.7c0.3,0,0.8-0.7,1.1-0.5
		c0.3,0.2-0.1,1.9-0.4,2.3c1.3-0.2,2.2-1.4,2.2-2.4c0-1,0.3-1.2,0.5-1.4c0.2-0.1,0.4,1.1,0.2,1.8c0.7-0.1,1.4-1.1,1.3-2.8
		c0.4-0.3,0.7-0.5,1-0.5c0.4,0,1.3,1.2,2.6,1.2c2.3,0,3.6-1.9,3.8-2.8c0.1-0.7,0.1-1.4-0.3-1.9c0.8,0.7,1.1,1.7,1.1,2.5
		c0,3.3-5.9,4.9-8.3,7.2c-0.1,0.1-0.2,0.2-0.3,0.2l-2.8-1.1l-0.2,0.6c0,0,0,0.1-0.2,0.5c-0.3,0.9-0.9,2.9-1.3,4c0,0-0.1,0.4-0.1,0.4
		l0.2,0.1c-1.6,2.2-2.9,4.6-3.2,7.1c-0.7-0.7-1.3-1.2-2-1.8c0.1-0.2,0.1-0.5,0.1-0.8c0-0.7-0.2-1.4-0.6-1.9
		c-0.3-0.4-0.8-0.6-1.3-0.6c-0.5,0-1,0.1-1.3,0.5c-0.1,0.1-0.2,0.2-0.2,0.3c-0.1-0.1-0.2-0.2-0.3-0.2c-0.9-0.7-2-1.5-2.7-2.3
		c-0.3-0.3-0.6-0.5-1.2-0.5c-0.2,0-0.8,0-1.2,0c-0.4,0-0.6,0.3-1.1,0.7c-0.2,0.2-0.9,0.7-1.6,1.2c0.3,0.3,0.7,0.7,1,1.1
		c0.2,0.2,0.3,0.4,0.5,0.6c0.2-0.1,0.4-0.3,0.5-0.4c0.3-0.2,0.7-0.3,1-0.3c0.4,0,0.9,0.3,1.2,0.8c0.2,0.4,2.5,3.3,4.3,5.3
		c-0.2,0.1-0.4,0.1-0.6,0.2c-0.8,0.3-2.6,0.3-3.4,0.2c-0.8-0.1-0.9-0.3-1.5,0.6c-0.2,0.3-0.5,0.7-0.7,1c-0.3,0.3-0.5,0.7,0.1,1.6
		c0.8,1.4,2.8,5,3.5,6.6c0.7,1.6,1.5,1.9,2.7,2.4c1.3,0.5,3.5,1.8,3.7,2.1l0.1-1.2c-0.4-0.4-1.6-0.8-2.1-1c-0.5-0.2-0.6-0.4,0-0.4
		c0.5,0,2.1,0.6,3.2,1c-0.3-1.2-1.5-2.6-2.2-3.3c-0.9-0.3-1.9-0.3-2.2,0c0,0.3-0.1,0.6-0.5,0.6c-0.4,0-0.6-0.3-0.5-0.6
		c0.1-0.4,0.7-0.5,0.5-1.2c-0.1-0.7-1-0.8-1.5-0.9c-0.8-1.1-1.7-2.8-2.1-3.5c-0.4-0.7-0.2-1.1,0.1-1.3c0.7-0.5,2.1,0.3,4.9,0.5
		c1,0.1,2.2,0.1,3.5,0.2c0.4,3.2,1.7,6.3,6.2,7.5c2.2,0.5,4.5,2.2,5.3,4.3c-9-0.2-10.5,3.4-10.5,6.7c0,3.8,3.2,3.6,3.2,6.4
		c0,2.5-7.6,3.5-9.9,3.8c-1.9,0.3-3.1,0.7-4,1.7c-0.9,0.9-1.9,1.8-3.6,3.5c0,0,0.7,0.2,1.4,0.1l1.3-1.7c0.4-0.6,0.6-1,0.9-1
		c0.3,0,0.1,0.5-0.2,1.1l-1.1,1.8c4.5,0.3,4.7-1.4,4.7-2c0-0.7-1.1-1.1-0.5-1.6c0.6-0.4,1.2-0.1,1.7,0.5c0.5,0.6,0.7,1.1,1.9,0.6
		c0,0,9.7-4,10.9-4.6c1.1-0.5,0.8-1,0.1-1.5c-0.7-0.6-0.8-1.6-0.8-2.6c0-2.9,1.8-3.9,4.9-3.8c-0.1,0.5-0.1,1-0.1,1.4
		c0,4.6,6.9,9.1,8.8,9.1c0.8,0,2-0.6,2,2.1c0.1,2,0.5,3.5,0.1,5.8c-0.4,2.3-1,2.7-2.5,3.7c-1.4,1-2.7,4.1-3.3,4.7
		c0.6,0.4,1.3,0.5,1.8-1c0.4-1.3,0.9-2.1,1.5-2.4c-0.5,1.4-1,3.4-1.2,4c1.8,0.3,4.6-1.3,4.6-2.6c0-1.2-1-1.1-1-2
		c0-0.4,0.4-0.8,1-0.8c0.7,0,1.3,0.6,1.3,0.8c0.8-0.4,1.3-1.2,1.3-3c0-0.7,0-1.5-0.1-2.2c0,0.1,0.1,0.2,0.2,0.3
		c0.3,0.5,0.9,0.8,1.6,0.9c0.6,0.1,1.3-0.1,1.9-0.5c0.7-0.5,1.2-1.1,1.3-1.9c0-0.1,0.1-0.3,0.1-0.4c0-0.4-0.1-0.8-0.3-1.1
		c-0.3-0.4-0.8-0.7-1.3-0.9c-0.7-0.2-1.5,0-2.2,0.5c-0.6,0.4-1.1,1-1.3,1.7c-0.1-2.5-0.3-4.9-0.3-5.8c0.1-1.4,0.2-2-0.3-2.2
		c-0.5-0.2-1,0.6-1.7,0.6c-0.7,0-2.7-1.9-2.7-3.9c0-2,2.1-4.5,2-7.3c0-0.8,0.5-1.3,0.8-0.5c0.4,0.9,1,2.2,1.9,3.2
		c-0.6,3.4,3.2,6.7,6.3,4.3c-1.5,0.2-2.6-1.1-3.3-2.5c0.3,0,0.5,0.1,0.8,0.1c0.2,0,0.3,0,0.5,0c1.1,1.3,4.5,1.2,5.4-2.1
		c-0.6,0.7-1.8,1.2-2.7,1.1c1.3-1,2-2.7,2-4.4c0-8.7-10.5-9.7-10.5-17.5c0-2.9,2.6-4.8,4.3-4.8c0.7,0,1.2,0.2,1.6,0.5
		c-0.7,0.7-1,1.7-1,3c0.3,6.2,10.4,5.9,10.6,8.9C201.2,278,193.6,279.4,193.3,273.4"/>
</g>
</svg>
