<?xml version="1.0" encoding="utf-8"?>
<!-- Generator: Adobe Illustrator 23.1.1, SVG Export Plug-In . SVG Version: 6.00 Build 0)  -->
<svg version="1.1" id="Layer_1" xmlns="http://www.w3.org/2000/svg" xmlns:xlink="http://www.w3.org/1999/xlink" x="0px" y="0px"
	 viewBox="0 0 600 200" style="enable-background:new 0 0 600 200;" xml:space="preserve">
<style type="text/css">
	.st0{fill:#FFFFFF;}
</style>
<g>
	<rect class="st0" width="6.6" height="198"/>
	<polygon class="st0" points="38.4,141.4 45.9,141.4 45.9,165.8 75.7,165.8 75.7,141.4 83.3,141.4 83.3,198 75.7,198 75.7,172.1 
		45.9,172.1 45.9,198 38.4,198 	"/>
	<polygon class="st0" points="93.8,141.4 104.1,141.4 121.9,189 139.8,141.4 150.1,141.4 150.1,198 143,198 143,150.9 142.9,150.9 
		125.2,198 118.7,198 101,150.9 100.9,150.9 100.9,198 93.8,198 	"/>
	<g>
		<path class="st0" d="M225.6,191c-4.4,5.9-11.5,8.4-18.2,8.4c-16.9,0-26.9-13.8-26.9-28.6c0-16.5,9-30.8,26.9-30.8
			c12.4,0,22.2,5.5,24.4,18.8h-7.5c-1.5-8.6-8.4-12.5-16.8-12.5c-13.8,0-19.4,11.9-19.4,24.1c0,11.8,6.8,22.6,19.4,22.6
			c11.7,0,18.6-8.2,18.2-18.5h-18.1v-6.3h24.9v29.8h-4.8L225.6,191z"/>
		<path class="st0" d="M258.6,156.1c13,0,19.9,9.4,19.9,21.5c0,12-6.9,21.4-19.9,21.4c-13,0-19.9-9.4-19.9-21.4
			C238.7,165.5,245.7,156.1,258.6,156.1 M258.6,193.1c7,0,12.8-5.5,12.8-15.4c0-10-5.7-15.5-12.8-15.5c-7,0-12.8,5.5-12.8,15.5
			C245.9,187.5,251.6,193.1,258.6,193.1"/>
		<polygon class="st0" points="301.5,198 294.3,198 279,157 286.6,157 298.1,191.2 298.2,191.2 309.4,157 316.6,157 		"/>
		<path class="st0" d="M354.2,185.1c-1.8,9-8.3,14-17.5,14c-13.1,0-19.3-9-19.7-21.6c0-12.3,8.1-21.4,19.3-21.4
			c14.6,0,19,13.6,18.6,23.5h-30.7c-0.2,7.1,3.8,13.5,12.8,13.5c5.5,0,9.4-2.7,10.6-8L354.2,185.1L354.2,185.1z M347.7,173.6
			c-0.3-6.4-5.1-11.6-11.8-11.6c-7,0-11.3,5.3-11.8,11.6H347.7z"/>
		<path class="st0" d="M360.2,157h6.3v8.6h0.2c3.3-6.6,7.8-9.8,15.1-9.6v7.1c-10.9,0-14.9,6.2-14.9,16.6V198h-6.7L360.2,157
			L360.2,157z"/>
		<path class="st0" d="M385.6,157h6.3v6.5h0.2c2.9-5,7.4-7.4,13.4-7.4c10.8,0,14.2,6.1,14.2,15V198h-6.7v-27.7c0-5-3.2-8.2-8.3-8.2
			c-8.2,0-12.2,5.4-12.2,12.9v23.2h-6.7L385.6,157L385.6,157z"/>
		<path class="st0" d="M427.7,157h6.3v6h0.2c3-4.6,7.6-7,13.3-7c5,0,9.6,2,11.3,7c2.8-4.4,7.6-7,12.9-7c8.2,0,13.7,3.4,13.7,11.9
			V198h-6.7v-26.9c0-5-1.4-9.1-7.9-9.1c-6.5,0-10.7,4.2-10.7,10.5V198h-6.8v-26.9c0-5.3-1.7-9.1-7.7-9.1c-8,0-11,7.4-11,10.5V198
			h-6.7V157L427.7,157z"/>
		<path class="st0" d="M528.5,185.1c-1.8,9-8.3,14-17.5,14c-13.1,0-19.3-9-19.7-21.6c0-12.3,8.1-21.4,19.3-21.4
			c14.6,0,19,13.6,18.6,23.5h-30.7c-0.2,7.1,3.8,13.5,12.8,13.5c5.5,0,9.4-2.7,10.6-8L528.5,185.1L528.5,185.1z M521.9,173.6
			c-0.3-6.4-5.1-11.6-11.8-11.6c-7,0-11.3,5.3-11.8,11.6H521.9z"/>
		<path class="st0" d="M534.6,157h6.3v6.5h0.2c2.9-5,7.4-7.4,13.4-7.4c10.8,0,14.2,6.1,14.2,15V198h-6.7v-27.7c0-5-3.2-8.2-8.3-8.2
			c-8.2,0-12.2,5.4-12.2,12.9v23.2h-6.7L534.6,157L534.6,157z"/>
		<path class="st0" d="M585.9,157h8.2v5.9h-8.2v25.4c0,3.1,0.9,3.7,5,3.7h3.1v5.9h-5.1c-7,0-9.8-1.4-9.8-9v-26.1h-7v-5.9h7v-12.3
			h6.7L585.9,157L585.9,157z"/>
		<path class="st0" d="M93,18.5c-0.7,1.3-1.2,2-1.1,2.9c0.1,1,1.1,1.7,1.6,2.6c0.4-1.1,1.2-2,1.1-2.9C94.4,20.4,93.2,19.2,93,18.5"
			/>
		<path class="st0" d="M109.6,18.5c0.7,1.3,1.2,2,1.1,2.9c-0.1,1-1.1,1.7-1.6,2.6c-0.4-1.1-1.2-2-1.1-2.9
			C108.1,20.4,109.4,19.2,109.6,18.5"/>
		<path class="st0" d="M83.4,17.8c0.6,0,1.1-0.5,1.1-1.1c0-0.6-0.5-1.1-1.1-1.1s-1.1,0.5-1.1,1.1C82.3,17.3,82.8,17.8,83.4,17.8"/>
		<path class="st0" d="M84.2,19.4c0-0.6-0.5-1.1-1.1-1.1S82,18.8,82,19.4c0,0.6,0.5,1.1,1.1,1.1C83.7,20.6,84.2,20.1,84.2,19.4"/>
		<path class="st0" d="M84.7,22.2c0-0.6-0.5-1.1-1.1-1.1s-1.1,0.5-1.1,1.1c0,0.6,0.5,1.1,1.1,1.1C84.2,23.3,84.7,22.8,84.7,22.2"/>
		<path class="st0" d="M89.6,12.5c0.6,0,1.1-0.5,1.1-1.1s-0.5-1.1-1.1-1.1c-0.6,0-1.1,0.5-1.1,1.1S89,12.5,89.6,12.5"/>
		<path class="st0" d="M86.8,13.4c0.6,0,1.1-0.5,1.1-1.1s-0.5-1.1-1.1-1.1c-0.6,0-1.1,0.5-1.1,1.1C85.7,12.9,86.1,13.4,86.8,13.4"/>
		<path class="st0" d="M84.7,15.2c0.6,0,1.1-0.5,1.1-1.1s-0.5-1.1-1.1-1.1s-1.1,0.5-1.1,1.1C83.5,14.8,84,15.2,84.7,15.2"/>
		<path class="st0" d="M92.6,12.8c0.6,0,1.1-0.5,1.1-1.1s-0.5-1.1-1.1-1.1s-1.1,0.5-1.1,1.1C91.4,12.3,91.9,12.8,92.6,12.8"/>
		<path class="st0" d="M95.4,13.6c0.6,0,1.1-0.5,1.1-1.1s-0.5-1.1-1.1-1.1s-1.1,0.5-1.1,1.1C94.2,13.1,94.7,13.6,95.4,13.6"/>
		<path class="st0" d="M97.9,14.8c0.6,0,1.1-0.5,1.1-1.1s-0.5-1.1-1.1-1.1c-0.6,0-1.1,0.5-1.1,1.1C96.8,14.3,97.3,14.8,97.9,14.8"/>
		<path class="st0" d="M118,16.7c0,0.6,0.5,1.1,1.1,1.1c0.6,0,1.1-0.5,1.1-1.1c0-0.6-0.5-1.1-1.1-1.1C118.5,15.5,118,16,118,16.7"/>
		<path class="st0" d="M119.5,18.3c-0.6,0-1.1,0.5-1.1,1.1c0,0.6,0.5,1.1,1.1,1.1s1.1-0.5,1.1-1.1C120.6,18.8,120.1,18.3,119.5,18.3
			"/>
		<path class="st0" d="M118.9,21c-0.6,0-1.1,0.5-1.1,1.1c0,0.6,0.5,1.1,1.1,1.1s1.1-0.5,1.1-1.1C120.1,21.6,119.5,21,118.9,21"/>
		<path class="st0" d="M112.9,12.5c0.6,0,1.1-0.5,1.1-1.1s-0.5-1.1-1.1-1.1s-1.1,0.5-1.1,1.1C111.8,12,112.3,12.5,112.9,12.5"/>
		<path class="st0" d="M115.7,13.4c0.6,0,1.1-0.5,1.1-1.1s-0.5-1.1-1.1-1.1s-1.1,0.5-1.1,1.1C114.6,12.9,115.1,13.4,115.7,13.4"/>
		<path class="st0" d="M117.9,15.2c0.6,0,1.1-0.5,1.1-1.1s-0.5-1.1-1.1-1.1s-1.1,0.5-1.1,1.1C116.7,14.8,117.2,15.2,117.9,15.2"/>
		<path class="st0" d="M110,12.8c0.6,0,1.1-0.5,1.1-1.1s-0.5-1.1-1.1-1.1s-1.1,0.5-1.1,1.1C108.8,12.3,109.3,12.8,110,12.8"/>
		<path class="st0" d="M107.1,13.6c0.6,0,1.1-0.5,1.1-1.1s-0.5-1.1-1.1-1.1c-0.6,0-1.1,0.5-1.1,1.1S106.5,13.6,107.1,13.6"/>
		<path class="st0" d="M103.5,13.7c0,0.6,0.5,1.1,1.1,1.1s1.1-0.5,1.1-1.1s-0.5-1.1-1.1-1.1S103.5,13.1,103.5,13.7"/>
		<path class="st0" d="M99.3,19.7h1.3v-4.9c-0.4-0.1-0.9-0.2-1.3-0.4V19.7z"/>
		<path class="st0" d="M103.2,14.6c-0.4,0.2-0.8,0.3-1.3,0.4v4.9h1.3V14.6z"/>
		<path class="st0" d="M100.5,9.2V6.3c-1.4,0.3-2.5,1.4-2.8,2.9H100.5z"/>
		<path class="st0" d="M102,9.2h2.8c-0.2-1.4-1.3-2.6-2.8-2.9V9.2z"/>
		<path class="st0" d="M97.8,10.6c0.4,1.6,1.8,2.8,3.5,2.8c1.7,0,3.1-1.2,3.5-2.8H97.8z"/>
		<path class="st0" d="M103.2,5.9c-0.8-0.6-1.4-1.6-1.5-2.5c0.9,0.2,2,0.8,2.6,1.6V1.2c-0.6,0.8-1.7,1.5-2.6,1.6
			c0.1-0.9,0.7-1.8,1.5-2.8h-3.8c0.8,1,1.4,1.9,1.5,2.8c-0.9-0.2-2-0.8-2.6-1.6V5c0.6-0.8,1.7-1.5,2.6-1.6c-0.1,1-0.7,1.9-1.5,2.5
			H103.2z"/>
		<path class="st0" d="M103.3,86.5c-0.8,0-1.4-0.6-1.4-1.4s0.6-1.4,1.4-1.4c0.8,0,1.4,0.6,1.4,1.4C104.7,85.9,104.1,86.5,103.3,86.5
			 M96.6,84.5c-0.8,0-1.5-0.7-1.5-1.5s0.7-1.5,1.5-1.5s1.5,0.7,1.5,1.5C98.1,83.9,97.5,84.5,96.6,84.5 M94.4,77.8L94,77.5
			c-0.7-0.5-1.3-0.5-1.9,0c-0.3,0.3-0.6,0.6-0.8,0.9l-0.4,0.4l0.3,0.2c0.7,0.6,0.8,1.2,0.6,1.6c-0.1,0.1-0.2,0.2-0.4,0.3
			c-0.4,0.1-0.9,0-1.4-0.4l-0.3-0.2l-0.2,0.3c0,0.1-0.1,0.1-0.1,0.2c-0.1,0.1-0.1,0.2-0.2,0.3c-0.3,0.5-0.5,1-0.5,1.3
			c0,0.1,0,0.2,0,0.3c0.1,0.4,0.4,0.6,0.7,0.7l0.2,0.1c0.3,0.2,0.8,0.5,1.1,0.7c-0.6,0.4-1.3,0.4-1.9,0.1c-1-0.5-1.6-1.6-1.6-2.1
			c0-0.8,0.4-1.9,1.1-3l0.1-0.2l-0.1-0.2c-0.2-0.3-0.4-0.7-0.5-1c0.4,0.1,0.7,0.1,1.1,0.2h0.2l0.1-0.1c0.4-0.5,1.9-2,3.3-2
			c0.6,0,1.3,0.3,1.8,0.9c0.4,0.4,0.6,0.9,0.7,1.4C94.8,78.1,94.6,77.9,94.4,77.8 M107.3,83.1c-3.6-0.9-7.7-2.4-11.7-4.2l0,0
			c0.1-0.8-0.2-1.7-0.8-2.4c-0.6-0.7-1.4-1.1-2.3-1.1c-0.4,0-0.7,0.1-1.1,0.2c-0.6-0.5-1.1-1.1-1.6-1.7c-1.5-1.8-2.7-3.8-3.5-6
			c-0.5-1.3-0.8-2.7-1-4c-0.2,1.2-1.5,2.7-3.7,2.7c0-0.2,0-0.8-0.2-0.9c-0.6,0.6-1.5,1.4-3.5,0.6c0.3,1.6,0.7,3.1,1.3,4.6
			c1.2,3.2,2.9,6,5,8.5c0.7,0.8,1.5,1.6,2.3,2.3c0,0.2,0,0.3,0,0.5c0,0.8,0.8,2.2,2,2.7c1,0.5,2,0.3,2.9-0.3
			c1.7,0.9,3.9,1.8,6.2,2.5c2.7,0.7,5.2,1.2,7.2,1.2c1.7,0,4-0.8,6.2-2.2c0.9-0.6,1.8-1.2,2.4-1.8c0.1-0.1,0.2-0.2,0.2-0.2
			C112.1,84.2,109.5,83.7,107.3,83.1"/>
		<path class="st0" d="M106.3,97.4c-0.3-0.5-0.6-0.8-1-0.8c-1.5,0-0.9,3.8-2.6,3.8c-0.8,0-1.2-0.5-1.2-1c0-0.5,0.4-0.7,0.4-1.1
			c0-0.4-0.3-0.6-0.7-0.6c-0.4,0-0.7,0.2-0.7,0.6c0,0.4,0.4,0.6,0.4,1.1c0,0.5-0.4,1-1.2,1c-1.7,0-1.2-3.8-2.6-3.8
			c-0.3,0-0.7,0.3-1,0.8c-0.3-0.5-0.5-1.1-0.5-1.5c0-0.7,0.5-1.7,1.7-1.7c1.9,0,1.5,2.7,2.4,2.7c0.4,0,0.7-0.3,0.7-0.7
			c0-0.8-1.4-1.5-1.4-2.6s1-2,2.1-2.9c1.1,0.9,2.1,1.8,2.1,2.9s-1.4,1.8-1.4,2.6c0,0.4,0.3,0.7,0.7,0.7c0.9,0,0.5-2.7,2.4-2.7
			c1.1,0,1.7,1,1.7,1.7C106.7,96.3,106.6,96.9,106.3,97.4 M101.3,102.8c-0.5,0-0.9-0.4-0.9-0.9c0-0.5,0.4-0.9,0.9-0.9
			c0.5,0,1,0.4,1,0.9C102.2,102.4,101.8,102.8,101.3,102.8 M105.2,93.6c-0.3,0-0.5,0-0.7,0.1v-4.3c-1.9-0.1-4.1-0.4-6.1-0.9v5.1
			c-0.2-0.1-0.5-0.1-0.8-0.1c-1.5,0-2.4,1.3-2.4,2.4s0.6,2.1,1.2,2.8c0.3-0.7,0.5-1.2,0.9-1.2c0.7,0,0.4,3.7,2.6,3.8
			c-0.1,0.2-0.1,0.4-0.1,0.6c0,0.9,0.8,1.7,1.7,1.7s1.7-0.8,1.7-1.7c0-0.2,0-0.4-0.1-0.6c2.2-0.1,1.8-3.8,2.6-3.8
			c0.4,0,0.6,0.5,0.9,1.2c0.6-0.6,1.2-1.7,1.2-2.8C107.5,94.8,106.6,93.6,105.2,93.6"/>
		<path class="st0" d="M154.8,98.6c-0.1-0.2-0.3-0.3-0.6-0.3c-5,1.5-11.1-2.7-17-6.6c-5-3.4-9.7-6.4-13.8-6.4c-1.5,0-2.9,0.3-4,0.9
			c-1.4,0.8-2.5,2-3.2,3.7c-0.7,1.7-1.4,2.8-2,3.7c-0.7,1.1-1.2,1.9-1.2,2.9c0,0.8,0.3,1.5,1,2.2c0.6,0.6,1.4,1.1,2.6,1.8
			c0.3,0.1,0.5,0.3,0.8,0.4c1,0.5,1.6,0.8,1.7,1.4c-2,0.9-4.5,1.6-7.3,2.1c-3.3,0.6-6.8,0.9-10.6,0.9c-3.8,0-7.3-0.3-10.6-0.9
			c-2.9-0.5-5.4-1.2-7.4-2.1c0.1-0.8,0.7-1.2,1.8-1.7c0.3-0.1,0.5-0.2,0.8-0.4c1-0.5,1.9-1,2.6-1.6c0.7-0.6,1-1.3,1-2.1
			c0-1-0.5-1.8-1.2-2.9c-0.6-0.9-1.3-2.1-2-3.7c-0.7-1.7-1.8-2.9-3.2-3.7c-1.2-0.6-2.5-1-4-1c-4.1,0-8.8,3.2-13.8,6.4
			c-5.9,4-12.1,8-17,6.6c-0.2-0.1-0.5,0.1-0.6,0.3c-0.1,0.2,0,0.5,0.2,0.6c1.5,0.7,2.9,1.7,4.2,2.7c1.8,1.4,3.5,2.7,5.3,2.7
			c1.8,0,3.7-0.6,5.9-1.8c2-1.1,4.1-2.5,6-3.9c4-2.7,7.9-5.4,11.8-5.7c-0.4,0.4-0.8,0.8-1.2,1.1c-1.1,1-2.1,1.9-2.1,3.7
			c0,1.4,0.5,2.4,1.2,3.8c0.2,0.4,0.4,0.9,0.6,1.4c0.4,1,0.6,1.7,0.9,2.8c0.1,0.5,0.2,1,0.4,1.6c0.2,0.9,0.7,2.6,3.5,4.1
			c3.3,1.7,8.9,2.5,16.7,2.5s13.5-0.9,16.7-2.5c2.8-1.4,3.3-3.2,3.5-4.1c0.2-0.6,0.3-1.1,0.4-1.6c0.3-1.1,0.4-1.8,0.9-2.8
			c0.3-0.7,0.6-1.3,0.9-1.8c0.6-1.1,1.1-2,1.1-3.3c0-1.8-1-2.7-2.2-3.8c-0.4-0.3-0.8-0.7-1.2-1.1c3.9,0.3,7.9,3.1,11.8,5.7
			c2,1.4,4.1,2.8,6,3.9c2.3,1.2,4.2,1.8,5.9,1.8c1.9,0,3.6-1.3,5.3-2.7c1.3-1,2.6-2.1,4.2-2.7C154.8,99.1,154.9,98.8,154.8,98.6"/>
		<path class="st0" d="M102,60.2V41.6c2,0.1,3.9,0.6,5.6,1.5c1.9,1,3.7,2.3,5.1,4.1c1.5,1.8,2.7,3.8,3.5,6c0.8,2.3,1.2,4.7,1.3,7
			L102,60.2L102,60.2z M101.3,33.8c-5.2,0-8.9,1.6-11,3c-1.2-0.7-1.8-1.5-1.8-2.3c0-3,8.4-3.3,12.8-3.3l0,0l0,0
			c4.3,0,12.8,0.3,12.8,3.3c0,0.8-0.5,1.6-1.8,2.3C110.2,35.3,106.5,33.8,101.3,33.8 M101,60.2H85.2c0-2.5,0.5-4.9,1.3-7
			c0.8-2.3,2-4.3,3.5-6c1.5-1.8,3.2-3.1,5.1-4.1c1.9-0.9,3.9-1.4,5.9-1.5V60.2z M125.1,59c-0.6-0.4-1.5-1.3-1.9-2.2
			c-0.6-1.2-3.1-6-3.5-6.7c-0.3-0.5-0.5-1-0.5-1.5c0-0.5,0.3-0.9,0.5-1.3c0.2-0.2,0.7-0.8,0.9-1.1c0.2-0.2,0.3-0.4,0.4-0.6
			c-0.9-1.6-1.8-2.7-3-4.1c-1.5-1.6-3.1-3-4.9-4.2c1-0.6,1.9-1.5,1.9-3c0-0.9-0.4-1.6-1-2.1c1-3.2,2.8-7,4.3-8.7l-3.2-1.4
			c0.8,1.3,0.9,2.8,0.7,3.6c-0.8-0.6-1.6-1.4-1.8-2.4c-0.2,1-0.7,2.5-1.2,3.5c0.9-0.4,1.7-0.6,2.6-0.2c-0.5,0.7-1.9,1.9-4,1.4
			c-1.1-0.3-2.3-0.9-2.2-1.8c0-0.5,0.4-1.2,1.1-1.1c0.7,0.1,0.7,1.1,0.5,1.6c0.9-0.5,1.9-3.2,0.4-3.6c-1.1-0.3-2.2,1.2-2.5,2.4
			c-0.2-1.4-0.8-2.8-1.9-2.7c-1.5,0.1-1,2.8-0.5,3.5c0.1-1,0.6-1.5,1.1-1.4c0.4,0,0.9,0.3,0.8,1.2c-0.1,0.9-1.3,1.4-2.8,1.4
			c-1.4,0-3.7-0.4-4-3c0.9,0.2,2.3,0.8,2.9,1.7c-0.2-1.6-0.2-2.7,0-4.4c-0.7,1-2,1.6-2.8,1.7c0.2-1.1,1.2-2.3,2.3-3h-5.7
			c1.1,0.7,2.1,1.9,2.3,3c-0.9-0.1-2.1-0.7-2.8-1.7c0.2,1.6,0.2,2.8,0,4.4c0.6-0.9,1.9-1.5,2.8-1.7c-0.2,2.6-2.6,3-4,3
			s-2.7-0.5-2.8-1.4c-0.1-0.9,0.4-1.2,0.8-1.2c0.4,0,1,0.5,1,1.4c0.5-0.7,1-3.4-0.5-3.5c-1.1-0.1-1.7,1.3-2,2.7
			c-0.4-1.2-1.4-2.7-2.5-2.4c-1.4,0.4-0.5,3.1,0.4,3.6c-0.2-0.5-0.2-1.5,0.5-1.6c0.7-0.1,1.1,0.6,1.1,1.1c0.1,0.9-1.1,1.5-2.2,1.8
			c-2.1,0.5-3.5-0.6-4-1.3c1-0.4,1.7-0.2,2.7,0.2c-0.5-0.9-1-2.5-1.2-3.5c-0.2,1.1-1,1.9-1.8,2.5c-0.2-0.9-0.1-2.4,0.7-3.6l-3.2,1.4
			c1.5,1.7,3.3,5.5,4.3,8.7c-0.6,0.5-1,1.2-1,2.1c0,1.5,1,2.4,1.9,3c-1.8,1.2-3.4,2.6-4.8,4.2c-2.2,2.5-3.9,5.2-5,8.5
			c0.4,0.5,2.4,2.6,2.8,3.1c0.8,1,1.3,2,1.3,2.8c0,1.5,0.4,2,1.1,3c0.2,0.3,0.6,1.4,0.6,2.1h15.8v17.2c-0.6,0-1.3,0.2-1.8,0.9
			c1.8,0.7,3.6,1.4,5.3,2c0.2-1.1,0.4-1.8,1-2.5c0,0-2.3-0.2-3.6-0.3V61.3h15.8c-0.1,2.4-0.5,4.7-1.3,6.8c-0.8,2.3-2,4.3-3.5,6
			c-1.5,1.8-3.2,3.1-5.1,4.1c-0.3,0.2-0.3,0.4-0.6,0.5c-0.3,0.3-0.5,0.8-0.8,1.4c-0.2,0.5-0.3,0.9-0.4,1.6c0.7,0.2,1.1,0.3,1.8,0.5
			c5.4,1.4,6.7,1,7,0.7l0,0c1.2-0.9,2.4-2,3.4-3.2c2.2-2.5,3.9-5.3,5-8.5c1.3-3.3,1.9-6.8,1.9-10.4C125.1,59.8,125.1,59.6,125.1,59"
			/>
		<path class="st0" d="M110.6,49.1c-0.1,0.1-0.2,0.3-0.2,0.4c0.1,0.2,0.2,0.3,0.5,0.3c-0.2,0.1-0.3,0.4-0.4,0.7c0.3,0,0.5,0,0.7-0.2
			c-0.1,0.3,0,0.4,0.2,0.5c0.1,0.1,0.3,0.1,0.4,0c1.2,1.9,2,4.1,2.3,6.2c-0.1-0.1-0.3-0.2-0.6-0.2c0,0.3,0.1,0.6,0.3,0.7h-3.9
			c0-0.2-0.1-0.5-0.3-0.5c-0.2-0.1-0.3,0-0.5,0.2c0-0.2-0.1-0.5-0.3-0.7c-0.2,0.2-0.3,0.5-0.3,0.7c-0.2-0.2-0.4-0.2-0.5-0.2
			c-0.2,0.1-0.3,0.3-0.3,0.5h-3.2c0.1-0.2,0.2-0.4,0.2-0.7c-0.3,0-0.5,0.1-0.7,0.2v-5.3c0.3,0,0.5-0.1,0.5-0.3
			c0.1-0.2,0-0.4-0.2-0.5c0.2,0,0.5-0.1,0.7-0.3c-0.2-0.2-0.5-0.3-0.7-0.3c0.2-0.2,0.2-0.4,0.2-0.5c-0.1-0.2-0.3-0.3-0.5-0.3V45
			c0.1,0.1,0.3,0.2,0.6,0.2c0-0.3,0-0.5-0.2-0.7c1,0.3,2,0.8,3,1.5C108.6,47,109.7,48,110.6,49.1 M115,57.1c0.3,0.2,0.2,0.6-0.2,0.6
			c-0.3-2.8-1.4-5.5-3-7.8l0,0c0.3-0.1,0.6-0.4,0.7-0.8c-0.5-0.1-0.8,0.2-1,0.4c-0.1-0.2-0.2-0.3-0.3-0.4c-1-1.3-2.1-2.3-3.4-3.2
			c-1.2-0.8-2.5-1.4-3.8-1.7c0-0.3,0.4-0.4,0.6-0.1c0-0.5-0.4-0.7-0.6-0.6c-0.1,0-0.3,0.2-0.3,0.4c-0.2-0.2-0.4-0.3-0.7-0.4
			c0,0.3,0.1,0.6,0.2,0.7c-0.2,0-0.3,0.1-0.4,0.2c-0.1,0.2,0,0.7,0.5,0.7c-0.2-0.2-0.1-0.6,0.2-0.6v6c-0.3-0.1-0.7-0.1-1,0.3
			c0.3,0.3,0.7,0.4,1,0.3v6.5c-0.3,0-0.4-0.4-0.2-0.6c-0.5,0-0.7,0.4-0.6,0.7c0.1,0.2,0.2,0.3,0.5,0.2c-0.2,0.2-0.3,0.4-0.3,0.7
			c0.3,0,0.5-0.1,0.7-0.3c0,0.3,0.1,0.4,0.3,0.5c0.2,0.1,0.7-0.1,0.7-0.6c-0.2,0.3-0.6,0.2-0.6-0.1h4.6c-0.1,0.3,0,0.7,0.3,1
			c0.3-0.3,0.4-0.7,0.3-1h5c0,0.3-0.4,0.4-0.6,0.2c0,0.5,0.5,0.7,0.7,0.6c0.2-0.1,0.3-0.2,0.2-0.5c0.2,0.1,0.4,0.2,0.7,0.2
			c0-0.3-0.1-0.5-0.3-0.7c0.3,0,0.4-0.1,0.5-0.3C115.7,57.5,115.5,57.1,115,57.1"/>
		<path class="st0" d="M112.3,55.5c0.2-0.1,0.4-0.2,0.4-0.4c-0.2,0.1-0.4,0-0.4-0.1c0.2-0.1,0.3,0,0.2-0.3c-0.2-0.3-0.3-0.3-0.5-0.1
			c-0.2,0.2-1.4-0.1-1.4-1c0.1,0.2,0.2,0.3,0.4,0.4c0,0,0.1,0,0.1,0.1c0.1,0,0.1,0,0.2,0c0.1,0,0.2,0.1,0.4,0.1h0.1l0,0
			c0.3-0.1,0.5-0.2,0.5-0.5c0-0.5-0.4-0.7-1-1.2c-0.2-0.2-0.4-0.3-0.5-0.5c-0.2-0.4-0.1-0.7-0.5-1.4c0-0.2-0.1-0.3-0.2-0.6
			c-0.2,0.4-0.4,1.3,0.3,2c0.5,0.6,1.6,1.1,1.6,1.6c0,0.1-0.1,0.2-0.3,0.2c0,0-0.1,0-0.2,0h-0.1c-0.1,0-0.2,0-0.2-0.1
			c-0.1-0.1-0.2-0.2-0.4-0.3c-0.5-0.4-0.9-1.1-1.1-1.4c-0.5-0.7-0.3-1.3-0.2-1.8c0.4-0.5-0.2-1.5-0.6-1.8c0,0,0.1-0.2,0-0.5
			c-0.1,0.1-0.2,0-0.3,0c-0.1-0.2-0.1-0.2-0.3-0.2c-0.2,0-0.2-0.2-0.2-0.2c-0.1,0.1-0.2,0.2-0.3,0.2c-0.2,0-0.3,0-0.3,0.1
			c-0.1,0.1-0.2,0.1-0.4,0.1c-0.2,0-0.2,0.1-0.2,0.3c0,0.1,0,0.2,0.2,0.3c0,0,0,0,0.1,0l0.2,0.2l0.1-0.2c0.1-0.1,0.4-0.1,0.4,0.1
			c0,0.1,0.1,0.2-0.1,0.2c-0.2,0-0.3,0-0.4,0c-0.1,0-0.1,0.2-0.1,0.3c0,0.1,0.1,0.2,0.4,0.1c0.3-0.1,0.7-0.1,0.7,0.1
			c0,0.6-0.6,0.5-0.8,1.2c-0.2-0.1-0.3-0.2-0.4-0.4c-0.1-0.2-0.2-0.4-0.5-0.6c-0.1-0.1-0.3-0.3-0.5-0.4c-0.2-0.1-0.2-0.2-0.2-0.5
			c0-0.2,0.1-0.4,0.1-0.6c0,0,0-0.1-0.1-0.2c0-0.1-0.2-0.2-0.3-0.2c0,0,0.1,0.1,0.1,0.2l-0.1,0.1c0,0-0.1,0.1,0,0.2l0,0
			c0,0,0,0,0,0.1l0,0c-0.1-0.1-0.1-0.3-0.2-0.4h-0.1l0,0c0-0.1-0.2-0.3-0.3-0.1c0,0,0.1,0,0.1,0.1v0.1c0,0.1,0.1,0.2,0.3,0.2l0,0
			c0,0,0,0,0,0.1l0,0c-0.3-0.1-0.4,0-0.4,0.1v0.1c-0.1,0.1-0.1,0.2,0.1,0.3c0,0,0-0.1,0-0.2l0,0l0.1,0.1h0.1c0,0,0,0,0.1,0
			c0,0,0,0,0.1,0l0,0c-0.2,0.2-0.1,0.3,0.1,0.4c-0.1,0.2-0.4,0.1-0.4-0.2c-0.2,0.4,0.1,0.6,0.4,0.5c0,0.1,0,0.4,0,0.4s0-0.1,0.1-0.1
			l0,0c0,0.1,0,0.2,0.2,0.2c0-0.1,0-0.1,0-0.1c0,0.1,0.1,0.2,0.1,0.2c0.1,0.3,0.4,0.9,1.1,1.2c-0.3,0.2-0.6,0.5-0.8,0.7
			s-0.5,0.4-0.6,0.3c-0.1-0.1-0.1-0.1-0.2-0.2c-0.1-0.1-0.2-0.1-0.2-0.1h-0.1c-0.1,0-0.3,0-0.3,0.1c0.1,0,0.1,0,0.2,0V52
			c0,0.1,0.1,0.2,0.4,0.1c0,0,0.1,0,0,0c0,0-0.1,0.1-0.2,0c-0.2,0-0.2-0.2-0.3,0c0,0,0,0.1-0.1,0.1l0,0c-0.1,0-0.3,0.3-0.1,0.4
			c0,0,0-0.1,0.1-0.2l0.1,0.1c0.1,0.1,0.2,0.2,0.4-0.1l0,0c0,0.2-0.2,0.4,0,0.4h0.1l0,0c0,0.2,0.3,0.2,0.4,0.2
			c-0.1,0-0.2-0.1-0.2-0.2h0.1c0.1-0.1,0-0.3,0-0.4l0,0c0,0.1,0.1,0.2,0.3,0.1c0.1-0.1,0.1-0.1,0.1-0.2c0.2-0.1,0.4-0.2,0.6-0.1
			c0-0.1,0.1-0.3,0.4-0.4c0.2-0.1,0.4,0,0.4,0.1c0-0.1,0.1-0.3,0.2-0.4c0,1,1.3,1,1.6,1.5c-0.4-0.2-0.8-0.3-1.1-0.2
			c-0.3,0.1-0.9,0.4-1,0.7c-0.1,0.3,0.3,0.8,0.6,1c-0.4,0.1-0.5,0-0.9,0l0,0c-0.3,0-0.3-0.5-0.7-0.4c0,0-0.1,0-0.1,0.1l0,0
			c-0.1,0-0.3,0.2-0.3,0.3c0,0,0.1-0.1,0.2-0.1v0.1c0,0.1,0,0.1,0.1,0.1c0.1,0,0.1,0,0.1,0l0,0c0,0.1-0.4-0.1-0.4,0.3
			c0,0,0,0.1,0.1,0.1c0,0.1,0.1,0.2,0.3,0.2l-0.1-0.1h0.1c0,0,0,0,0-0.1l0,0l0,0c0,0,0,0,0,0.1v0.1c0,0.1,0.2,0.3,0.4,0.1
			c-0.1,0-0.2,0-0.2-0.1h0.1v-0.1l0,0h0.1c0,0,0,0,0.1,0c0,0.1,0.1,0.2,0.3,0.1c0.1,0,0.1-0.1,0.1-0.1c0.1,0,0.1,0.1,0.2,0.1
			c0-0.1,0.1-0.3,0.4-0.1l0.2-0.2c0,0,0.3,0.1,0.4,0c0.2-0.2,0.1-0.2,0.1-0.3c-0.1-0.3-0.2-0.3-0.3-0.5c-0.1-0.5,0.6-0.8,1-0.7
			c0.1,0.3,0.5,1.1,1.2,1.4c0.4,0.2,0.6-0.3,0.8-0.3l0.1,0.1c0,0.2,0,0.4,0,0.5c0,0.1-0.3,0-0.5,0c-0.1,0-0.2,0.1-0.2,0.1
			c-0.1,0-0.3,0.1-0.3,0.3c0.1,0,0.1-0.1,0.3-0.1v0.1c0,0.2,0.2,0.3,0.4,0.1c0,0,0.1,0,0,0c-0.1,0.1-0.3,0.3-0.1,0.3h0.1
			c0,0.1,0.1,0.2,0.2,0.3c0-0.1,0-0.1,0-0.2h0.1c0.1,0,0.1-0.2,0.2-0.3l0,0c0,0.1-0.1,0.3,0.1,0.3h0.1c0,0.1,0.2,0.2,0.3,0.1
			c0,0-0.1-0.1-0.2-0.1l0.1-0.1c0.1-0.3-0.2-0.3-0.2-0.4c0-0.1,0.3-0.1,0.3-0.3l0,0c0.1-0.1,0.3-0.2,0.3-0.3
			C112.4,55.5,112.3,55.5,112.3,55.5L112.3,55.5z"/>
		<path class="st0" d="M97.8,64.1h-0.2c-0.2,0-0.6,0.1-0.6,0.4s0.2,0.5,0.5,0.5h0.2c0,0.1,0,0.1,0,0.2c-0.1,0.5-0.2,1.3-0.3,2.2
			L95.1,64c1.1-0.4,2-0.9,2.5-0.9C97.8,63.1,97.9,63.3,97.8,64.1 M96.9,69.9l-3.8-5.3c0.4-0.1,0.8-0.2,1.2-0.4l2.8,4
			C97.1,68.8,97,69.4,96.9,69.9 M96.5,72.4l-5.2-7.5c0.2,0,0.3,0,0.5,0c0.3,0,0.5,0,0.8-0.1l4.3,6C96.7,71.4,96.6,71.9,96.5,72.4
			 M90.6,64.9l5.7,8.3C93.3,71.9,90.2,69.1,90.6,64.9 M99.2,64.2h-0.3v-0.3c0-0.9-0.5-1.6-1.5-1.6c-0.9,0-2.6,1.2-5,1.2
			c-1,0-2.3-0.5-3-1l-0.3,0.7c0,0,0,0,0-0.1c0-0.3-0.3-0.6-0.6-0.6c-0.3,0-0.6,0.3-0.6,0.6c0,0.3,0.3,0.6,0.6,0.6
			c0.2,0,0.4-0.1,0.5-0.2l-0.3,0.7c0.1,0,0.2,0.1,0.3,0.1c-0.4,3.7,2.4,8.3,7.1,9.7c0.7-0.2,1.4-0.1,1.4,0.7c0,0.5-0.2,0.7-0.7,0.7
			c-0.3,0-0.5-0.2-0.5-0.4c0-0.3,0.6-0.1,0.6-0.4c0.1-0.3-0.1-0.4-0.4-0.4s-0.8,0.2-0.8,0.8c0,0.7,0.5,1.1,1.1,1.1
			c0.5,0,1.7-0.3,1.5-1.6c0.3,0,0.5,0,0.6-0.3l0.1-0.7h-0.3l0.2-8.3h0.2c0.3,0,0.6-0.1,0.6-0.4C99.7,64.4,99.5,64.2,99.2,64.2"/>
		<path class="st0" d="M95,46.5C95,46.4,95.1,46.4,95,46.5c0.2-0.1,0.2-0.1,0.2-0.2c0-0.1,0-0.1-0.1-0.2c0.1,0,0.1,0,0.1-0.1h-0.1
			c0,0,0-0.1,0.1-0.1h0.1l0.3,0.1c0,0,0.1,0,0.1,0.1v0.1c0,0,0-0.1-0.1-0.1c0,0,0,0,0,0.1c-0.1,0-0.1-0.1-0.2,0c0,0.1,0,0.1,0,0.2
			v0.1c0,0.1-0.1,0.2-0.2,0.1C95,46.7,95,46.6,95,46.5 M95.4,45.7c0,0.1-0.2,0.2-0.2,0.1c-0.1-0.1,0-0.1-0.1-0.3
			C95.2,45.6,95.3,45.7,95.4,45.7 M95.6,45.9c0,0,0.3,0.1,0.4,0.1c-0.2,0-0.1,0.1-0.2,0.1C95.6,46.1,95.6,46,95.6,45.9 M94.8,46.1
			L94.8,46.1L94.8,46.1 M98.2,47.3c1.1,0,1.7-0.4,1.7-0.7c0-1.3-3.1-0.5-3.1-1.3c0-0.1,0.1-0.2,0.2-0.3l0,0c1.6-0.1,1.6-1.2,2.7-1.4
			c-1.4-0.2-1.5,0.9-2.1,0.9c0.3-0.1,0.4-0.5,0.4-0.7c-0.3,0.4-0.9,0.4-1.2,0.8c0,0.1-0.1,0.2-0.1,0.2c-0.2,0.1-0.3,0.3-0.3,0.5
			c0,1.2,3.2,0.4,3.2,1.2c0,0.3-0.5,0.5-1.4,0.5c-0.7,0-1.1-0.5-2.3-0.2c0-0.2,0.4-0.6,0.2-0.8c0.1,0,0.2-0.1,0.2-0.2
			c-0.1-0.1-0.2-0.1-0.2-0.1c0-0.1,0-0.1-0.1-0.2c0,0,0-0.1-0.1-0.2c0,0-0.1-0.1-0.3-0.2c-0.1-0.1-0.2-0.1-0.3-0.1h-0.2
			c-0.1,0-0.2,0-0.2,0.1c-0.1-0.1-0.1-0.1-0.2-0.1c0,0.1-0.1,0.2,0,0.3c-0.1,0-0.2,0.3-0.3,0.3c0,0.1,0.1,0.1,0.1,0.1
			c-0.1,0.2-0.1,0.4-0.2,0.4l0.1,0.1c-0.1,0.3-0.1,0.6-0.2,0.7l0,0c-0.1-0.1-0.2-0.1-0.3-0.2c-0.2-0.1-0.2-0.2-0.1-0.4
			c0-0.2,0.1-0.3,0.1-0.4v-0.1c0-0.1-0.2-0.2-0.2-0.2s0.1,0.1,0.1,0.2l-0.1,0.1c0,0-0.1,0.1,0,0.2l0,0c0,0,0,0,0,0.1l0,0
			c0-0.1-0.1-0.3-0.2-0.3h-0.1l0,0c0-0.1-0.1-0.2-0.3-0.1h0.1c0,0,0,0.1-0.1,0.1c0,0.1,0.1,0.2,0.2,0.2l0,0c0,0,0,0,0,0.1l0,0
			c-0.2-0.1-0.3,0-0.4,0.1v0.1c-0.1,0-0.1,0.2,0,0.2c0,0,0-0.1,0.1-0.1l0,0c0,0,0,0,0,0.1h0.1c0,0,0,0,0.1,0c0,0,0,0,0.1,0l0,0
			c-0.2,0.1-0.2,0.3,0,0.3l0,0c-0.1,0.3-0.4,0.2-0.4,0c-0.3,0.3,0.1,0.5,0.4,0.4l0,0c0,0.1,0,0.1,0.1,0.1c0,0,0-0.1,0.1-0.1l0,0
			c0,0.1,0,0.2,0.1,0.2c0-0.1,0-0.1,0-0.1s0.1,0.2,0.3,0.4c-0.3,0.1-0.7,0.2-0.7,0.2c-0.1,0-0.4,0-0.6,0c-0.2,0.1-0.6,0.3-0.8,0.1
			c0-0.1,0-0.1-0.1-0.2c0-0.1-0.1-0.1-0.1-0.1h-0.1c-0.1-0.1-0.2-0.1-0.3,0c0.1,0,0.1,0,0.2,0.1V48c0,0.1,0,0.1,0.3,0.2l0,0
			c0,0-0.1,0-0.2,0c-0.1-0.1-0.1-0.2-0.3-0.1c0,0,0,0-0.1,0l0,0c-0.1,0-0.3,0.1-0.2,0.3c0,0,0.1-0.1,0.2-0.1v0.1
			c0,0.1,0.1,0.3,0.4,0.1l0,0c-0.1,0.1-0.3,0.2-0.1,0.3c0,0,0,0,0.1,0l0,0c0,0.2,0.1,0.3,0.2,0.3c0,0-0.1-0.1-0.1-0.2h0.1
			c0.1-0.1,0.1-0.2,0.1-0.3l0,0c0,0.1,0,0.2,0.2,0.2c0.2,0,0.2-0.2,0.2-0.2l0,0c0.1,0,0.1,0.1,0.1,0.2l0.1-0.1c0,0.1,0,0.2-0.1,0.3
			c0.1,0,0.2-0.1,0.3-0.3c0,0,0,0.1,0.1,0.1l0,0c0.1,0,0.2,0,0.3,0l0,0c0,0.1,0,0.1,0,0.2c0,0,0-0.1,0.1-0.1c0,0,0,0.2,0.1,0.3
			c0-0.4,0.3-0.3,0.5-0.4l0,0l-0.1,0.1c0.1,0,0.3-0.1,0.3-0.2c0,0,0.1-0.1,0.2-0.1s0.2,0,0.3-0.1c0,0,0.1,0.2,0,0.2
			c0.3,0,0.6-0.3,0.7-0.3c0.6-0.1-0.4-0.6,0.9-0.5c0.1,0,0.3-0.1,0.4-0.1c-0.1,0.2-0.1,0.6,0.1,0.6c0.1,0,0.2,0.1,0.3,0.1l0,0
			c-0.1,0-0.2,0-0.3,0.1c-0.3,0.2-0.3-0.4-0.6-0.3c0,0-0.1,0-0.1,0.1c-0.1,0-0.3,0.1-0.3,0.3c0,0,0.1-0.1,0.2-0.1v0.1
			c0,0,0,0.1,0.1,0.1s0.1,0,0.1,0l0,0c0,0.1-0.4-0.1-0.3,0.3c0,0,0,0.1,0.1,0.1c0,0.1,0.1,0.2,0.2,0.1l-0.1-0.1h0.1c0,0,0,0,0-0.1
			l0,0l0,0c0,0,0,0,0,0.1v0.1c0,0.1,0.2,0.2,0.3,0.1c0,0-0.1,0-0.2-0.1h0.1v-0.1l0,0h0.1c0,0,0,0,0.1,0c0,0.1,0.1,0.1,0.2,0.1
			c0.2-0.1,0-0.2,0.2-0.3h0.1c0.2,0,0.4,0,0.4,0c0-0.1,0-0.4-0.1-0.5c-0.1,0,0-0.2-0.1-0.3c0.2,0.1,0.4,0.1,0.6,0.1
			c0.4,0,0-0.1,0.2-0.2s0.5-0.1,0.5-0.1c0.1,0,0.1,0,0.1,0.1c0,0.2,0,0.3,0,0.4s-0.2,0-0.4,0c-0.1,0-0.1,0-0.1,0.1
			c-0.1,0-0.2,0.1-0.2,0.2c0,0,0.1-0.1,0.2-0.1l0,0c0,0.2,0.2,0.2,0.3,0.1c0,0,0.1,0,0,0c-0.1,0.1-0.3,0.2-0.1,0.3c0,0,0,0,0.1,0
			c0,0.1,0.1,0.2,0.1,0.2c0-0.1,0-0.1,0-0.2h0.1c0.1,0,0.1-0.2,0.2-0.2l0,0c0,0.1-0.1,0.2,0,0.3c0,0,0,0,0.1,0
			c0,0.1,0.1,0.1,0.3,0.1c0,0-0.1,0-0.1-0.1l0.1-0.1c0.1-0.2-0.1-0.2-0.1-0.3c0-0.1,0.2,0,0.2-0.3c0,0,0-0.1-0.1-0.1l0,0l0,0
			c0.1,0,0.1,0,0.2-0.1c-0.2,0-0.1-0.1-0.1-0.2l0,0c0.1,0,0.1-0.1,0.1-0.3c-0.1,0.1-0.3,0.2-0.3,0c0,0,0-0.1-0.2-0.1
			C98.9,47.6,98.7,47.4,98.2,47.3C98.1,47.4,98.1,47.4,98.2,47.3"/>
		<path class="st0" d="M93.1,53.4C93.1,53.4,93.1,53.3,93.1,53.4L93.1,53.4 M92.2,51.4C92.2,51.3,92.3,51.3,92.2,51.4
			c0.2-0.1,0.2-0.1,0.2-0.2s0-0.1-0.1-0.2c0.1,0,0.1-0.1,0.1-0.1c-0.1,0-0.1,0-0.1,0s0-0.1,0.1-0.1h0.1l0.3,0.2c0,0,0.1,0,0.1,0.1
			v0.1c0,0,0-0.1-0.1-0.1s-0.1,0.1,0,0.1c-0.1,0-0.2-0.1-0.2,0s0,0.1,0,0.2c0,0,0,0.1,0,0.2s-0.1,0.2-0.3,0.1
			C92.2,51.6,92.2,51.5,92.2,51.4 M92.6,50.5c-0.1,0.1-0.2,0.2-0.3,0.1c-0.1-0.1,0-0.1-0.1-0.3C92.4,50.4,92.6,50.5,92.6,50.5
			 M92.9,50.6c0,0,0.3,0.1,0.4,0.2c-0.2,0-0.1,0.1-0.3,0.1C92.9,50.9,92.9,50.8,92.9,50.6 M91.1,52.2L91.1,52.2L91.1,52.2
			 M99.8,51.6c0-0.3-0.4-0.6-1.5-0.6s-3.6,0.4-3.6-0.2c0-0.3,0.5-0.3,1.1-0.2c0,0,0.1,0.1,0.2,0.1c1.4,0.4,3.1-0.3,4-0.1
			c-1-0.8-1.9,0-3-0.2c0.6,0,0.9-0.2,0.9-0.4c-0.5,0.3-1.4-0.2-2,0.2c0,0-0.1,0-0.1,0.1c-0.8,0-1.4,0-1.4,0.5c0,1.1,3,0.5,3.9,0.5
			s1.1,0.1,1.1,0.3c0,0.3-0.9,0.3-1.5,0.3c-0.8,0-3.3-0.4-4.7-0.1c0.1-0.2,0.4-0.5,0.2-0.7c0.1-0.1,0.2-0.2,0.2-0.3
			c-0.1-0.1-0.2-0.1-0.3-0.1c0-0.1,0-0.1-0.1-0.2c0,0,0-0.2-0.1-0.2c-0.1,0-0.2-0.1-0.3-0.2C92.7,50,92.6,50,92.6,50h-0.2
			c-0.1,0-0.2,0-0.2,0.1C92.1,50,92,50,91.9,50c-0.1,0.1-0.1,0.2,0,0.4c-0.1,0-0.3,0.4-0.4,0.3c0,0.1,0.1,0.1,0.1,0.1
			c-0.1,0.2-0.2,0.4-0.3,0.4c0.1,0.1,0.1,0.2,0.2,0.2c0,0.1,0,0.3,0,0.4l-0.2-0.1c0,0,0,0-0.1,0h-0.1h0.1h-0.1
			c-0.1-0.1-0.3-0.3-0.5-0.4s-0.2-0.2-0.2-0.5c0-0.2,0.1-0.4,0.1-0.6c0,0,0-0.1,0-0.2s-0.2-0.2-0.3-0.2c0,0,0.1,0.1,0.1,0.2
			l-0.1,0.1c0,0.1-0.1,0.1,0,0.2l0,0c0,0,0,0,0,0.1l0,0c0-0.1-0.1-0.3-0.2-0.4h-0.1l0,0c0-0.1-0.1-0.3-0.3-0.1c0,0,0.1,0,0.1,0.1
			v0.1c0,0.1,0.1,0.2,0.2,0.2l0,0c0,0,0,0,0,0.1l0,0c-0.2-0.1-0.4,0-0.4,0.1v0.1c-0.1,0.1-0.1,0.2,0,0.3c0,0,0-0.1,0.1-0.2l0,0
			l0.1,0.1h0.1c0,0,0,0,0.1,0c0,0,0,0,0.1,0l0,0c-0.2,0.2-0.2,0.3,0.1,0.4l0,0c0,0.3-0.5,0.3-0.4-0.1c-0.2,0.4,0.1,0.6,0.5,0.5l0,0
			c0,0.1,0,0.1,0.1,0.1c0,0,0-0.1,0.1-0.1l0,0c0,0.1,0,0.2,0.1,0.2c0-0.1,0-0.1,0-0.1c0.1,0,0.2,0.2,0.4,0.4
			c0.2,0.1,0.4,0.3,0.5,0.2c0,0.2,0.2,0.5,0.1,0.5c-0.1,0-0.6,0-0.8,0c-0.2,0.1-0.7,0.3-0.9,0.1c-0.1-0.1,0-0.1-0.1-0.3
			c0-0.1-0.1-0.1-0.2-0.1h-0.1c-0.1-0.1-0.3-0.1-0.4,0c0.1,0,0.1,0,0.2,0.1c0,0,0,0.1-0.1,0.1c0,0.1,0,0.2,0.3,0.3l0,0
			c0,0-0.1,0-0.2,0c-0.1-0.1-0.1-0.2-0.3-0.2c0,0-0.1,0-0.1,0.1l0,0c-0.1,0-0.4,0.2-0.3,0.3c0,0,0.1-0.1,0.2-0.1v0.1
			c0,0.2,0.1,0.3,0.4,0.1l0,0c-0.1,0.1-0.3,0.3-0.1,0.4c0,0,0,0,0.1,0.1l0,0c0,0.2,0.2,0.3,0.3,0.3c0-0.1-0.1-0.1-0.1-0.3h0.1
			c0.2-0.1,0.1-0.3,0.2-0.3l0,0c0,0.1,0,0.3,0.2,0.2c0.2,0,0.3-0.2,0.3-0.3l0,0c0.1,0,0.1,0.1,0.1,0.2l0.1-0.1c0,0.1,0,0.2-0.1,0.3
			c0.1,0,0.3-0.1,0.3-0.3l0.1,0.1l0,0c0.1,0,0.2,0,0.4,0l0,0c0,0.1,0,0.2,0,0.2l0.1-0.1c0.1,0,0,0.2,0.1,0.3c0-0.5,0.3-0.3,0.6-0.5
			l0,0c0,0.1-0.1,0.1-0.1,0.2c0.3,0.1,0.9-0.4,1-0.7c0.1,0,0.3,0,0.3,0c1,0.1,0.3-0.9,1.9-0.6c0.1,0,0.3-0.1,0.4-0.2
			c-0.1,0.2-0.1,0.6,0.1,0.7c0.1,0,0.3,0.1,0.4,0.2l0,0c-0.1,0-0.3,0-0.3,0.1c-0.3,0.2-0.3-0.5-0.7-0.4c0,0-0.1,0-0.1,0.1
			c-0.1,0-0.3,0.2-0.3,0.3c0,0,0.1-0.1,0.2-0.1v0.1c0,0,0,0.1,0.1,0.1c0.1,0,0.1,0,0.1,0l0,0c0,0.1-0.4-0.1-0.4,0.3
			c0,0,0,0.1,0.1,0.1c0,0.1,0.1,0.2,0.3,0.2l-0.1-0.1h0.1c0,0,0,0,0-0.1l0,0l0,0c0,0,0,0,0,0.1v0.1c0,0.1,0.2,0.3,0.4,0.1
			c-0.1,0-0.2,0-0.2-0.1h0.1v-0.1l0,0h0.1h0.1c0,0.1,0.1,0.2,0.3,0.1c0.2-0.1,0-0.3,0.2-0.3h0.1c0.2,0,0.5,0,0.5,0
			c0.1-0.1,0-0.4-0.2-0.5c-0.1-0.1,0-0.2-0.1-0.4c0.2,0.1,0.4,0.2,0.7,0.2c0.5,0,0.6-0.1,0.9-0.2c0.3-0.2,0.5-0.1,0.6-0.1
			c0.1,0,0.1,0,0.1,0.1c-0.1,0.3,0,0.3,0,0.4c0,0.1-0.3,0-0.4,0c-0.1,0-0.2,0-0.2,0.1c-0.1,0-0.3,0.1-0.3,0.3c0,0,0.1-0.1,0.2-0.1
			c0,0,0,0,0,0.1c0,0.2,0.2,0.2,0.3,0.1c0,0,0.1,0,0,0c-0.1,0.1-0.3,0.2-0.1,0.3c0,0,0.1,0,0.1,0.1s0.1,0.2,0.2,0.2
			c0-0.1,0-0.1,0-0.2h0.1c0.1,0,0.1-0.2,0.2-0.3l0,0c0,0.1-0.1,0.3,0,0.3h0.1c0,0.1,0.2,0.2,0.3,0.1L98.7,54l0.1-0.1
			c0.1-0.3-0.2-0.3-0.2-0.4c0-0.1,0.3,0,0.3-0.3c0-0.1,0-0.1-0.1-0.2l0,0l0,0c0.1,0,0.2,0,0.2-0.1c-0.2,0-0.1-0.2-0.2-0.3l0,0
			c0.1,0,0.1-0.1,0.1-0.3c-0.1,0.1-0.3,0.2-0.3,0c0,0,0-0.1-0.2-0.1c-0.3,0-0.6,0-1.2-0.1C98.7,52.2,99.8,52,99.8,51.6"/>
		<path class="st0" d="M90.9,56.2C90.9,56.1,91,56.1,90.9,56.2c0.2-0.1,0.2-0.1,0.2-0.2s0-0.1-0.1-0.2c0.1,0,0.1-0.1,0.1-0.1H91
			c0,0,0-0.1,0.1-0.1h0.1l0.3,0.2c0,0,0.1,0,0.1,0.1V56c0,0,0-0.1-0.1-0.1c0,0,0,0,0,0.1c-0.1,0-0.2-0.1-0.2,0s0,0.1,0,0.2
			c0,0,0,0.1,0,0.2s-0.1,0.2-0.2,0.1C90.9,56.4,90.9,56.3,90.9,56.2 M91.3,55.5c-0.1,0.1-0.2,0.2-0.3,0.1c-0.1-0.1,0-0.1-0.1-0.3
			C91.1,55.4,91.3,55.5,91.3,55.5 M91.6,55.5c0,0,0.3,0.1,0.4,0.2c-0.2,0-0.1,0.1-0.3,0.1C91.6,55.8,91.6,55.6,91.6,55.5 M99.3,56.4
			c0-0.3-0.4-0.5-1.4-0.5c-1.1,0-4.3,0.4-4.3-0.2c0-0.4,1.1-0.2,1.9-0.2c0,0.1,0.1,0.1,0.2,0.2c1.4,0.4,2.8-0.5,3.8-0.2
			c-0.8-0.7-1.8,0.1-2.8-0.1c0.6,0,1.2-0.1,1.3-0.3c-0.5,0.3-1.8-0.2-2.4,0.1c0,0-0.1,0-0.1,0.1c-1,0-2.2-0.1-2.2,0.5
			c0,1.1,3.7,0.4,4.6,0.4c0.9,0,1.1,0.1,1.1,0.3c0,0.3-0.9,0.3-1.4,0.3c-0.8,0-4.3-0.4-5.6,0c0.1-0.2,0.4-0.6,0.3-0.8
			c0.1-0.1,0.2-0.2,0.2-0.3c-0.1-0.1-0.2-0.1-0.3-0.1c0-0.1,0-0.1-0.1-0.2c0,0,0-0.2-0.1-0.2s-0.2-0.1-0.3-0.2
			C91.5,55,91.4,55,91.4,55h-0.2c-0.1,0-0.2,0-0.2,0.1C90.9,55,90.9,55,90.8,55c-0.1,0.1-0.1,0.2,0,0.4c-0.1,0-0.3,0.3-0.4,0.3
			c0,0.1,0.1,0.1,0.1,0.1c-0.1,0.2-0.1,0.4-0.3,0.4c0,0.1,0.1,0.1,0.1,0.1c0,0.1,0,0.2,0,0.3h-0.1c-0.1,0-0.1,0-0.2,0s-0.1,0-0.2,0
			c-0.2,0-0.3-0.3-0.6-0.4C89,56,89,55.9,89,55.7c0-0.2,0.1-0.4,0.1-0.5c0,0,0-0.1-0.1-0.2c0-0.1-0.2-0.2-0.3-0.2
			c0,0,0.1,0.1,0.1,0.2l-0.1,0.1c0,0-0.1,0.1,0,0.2l0,0c0,0,0,0,0,0.1l0,0c0-0.1-0.1-0.3-0.2-0.3h-0.1l0,0c0-0.1-0.2-0.2-0.3-0.1
			c0,0,0.1,0,0.1,0.1v0.1c0,0.1,0.1,0.2,0.2,0.2l0,0c0,0,0,0,0,0.1l0,0c-0.2-0.1-0.3,0-0.3,0.1v0.1c-0.1,0.1-0.1,0.2,0,0.3
			c0,0,0-0.1,0.1-0.1l0,0l0.1,0.1h0.1c0,0,0,0,0.1,0c0,0,0,0,0.1,0l0,0c-0.2,0.2-0.1,0.3,0.1,0.3l0,0c0,0.3-0.4,0.2-0.4-0.1
			c-0.2,0.3,0.2,0.6,0.5,0.4l0,0c0,0.1,0,0.1,0.1,0.1c0,0,0-0.1,0.1-0.1l0,0c0,0.1,0,0.2,0.1,0.2c0-0.1,0-0.1,0-0.1
			c0.1,0,0.3,0.4,0.7,0.6c0.1,0,0.2,0,0.2-0.1c0,0,0,0.1,0.1,0.1c0,0.2,0.1,0.4,0.1,0.4c-0.1,0-0.7,0-0.9,0
			c-0.2,0.1-0.7,0.3-0.8,0.1c0-0.1,0-0.1-0.1-0.2c0-0.1-0.1-0.1-0.2-0.1h-0.1c-0.1-0.1-0.3-0.1-0.3,0c0.1,0,0.1,0,0.2,0.1
			c0,0,0,0.1-0.1,0.1c0,0.1,0,0.2,0.3,0.3l0,0c0,0-0.1,0-0.2,0c-0.1-0.1-0.1-0.2-0.3-0.1h-0.1l0,0c-0.1,0-0.3,0.2-0.3,0.3
			c0,0,0.1-0.1,0.2-0.1v0.1c0,0.2,0.1,0.3,0.4,0.1l0,0c-0.1,0.1-0.3,0.3-0.1,0.4c0,0,0,0,0.1,0.1l0,0c0,0.2,0.2,0.3,0.3,0.3
			c0,0-0.1-0.1-0.1-0.3h0.1c0.2-0.1,0.1-0.2,0.2-0.3l0,0c0,0.1,0,0.3,0.2,0.2c0.2,0,0.3-0.2,0.2-0.3l0,0c0.1,0,0.1,0.1,0.1,0.2
			l0.1-0.1c0,0.1,0,0.2-0.1,0.3c0.1,0,0.3-0.1,0.3-0.3l0.1,0.1l0,0c0.1,0,0.2,0,0.4,0l0,0c0,0.1,0,0.2,0,0.2s0-0.1,0.1-0.1
			c0,0,0,0.2,0.1,0.3c0-0.5,0.6-0.2,0.9-0.4l0,0c0,0.1-0.1,0.1-0.1,0.2c0.1,0,0.3-0.1,0.4-0.2l0,0l0.5-0.2c0-0.1,0-0.1,0-0.1
			c0.1,0,0.1,0,0.2,0l0,0c0.3,0,0.3-0.2,0.4-0.2c1.7,0.2,0.7-0.7,2.8-0.5c0.1,0,0.1,0,0.2-0.1c-0.1,0.2-0.1,0.5,0.1,0.6
			c0.1,0,0.3,0.1,0.4,0.2l0,0c-0.1,0-0.3,0-0.3,0.1c-0.3,0.2-0.3-0.5-0.7-0.3c0,0-0.1,0-0.1,0.1c-0.1,0-0.3,0.2-0.3,0.3
			c0,0,0.1-0.1,0.2-0.1v0.1c0,0.1,0,0.1,0.1,0.1c0.1,0,0.1,0,0.1,0l0,0c0,0.1-0.4-0.1-0.3,0.3c0,0,0,0.1,0.1,0.1
			c0,0.1,0.1,0.2,0.3,0.2l-0.1-0.1h0.1l0,0l0,0l0,0c0,0,0,0,0,0.1v0.1c0,0.1,0.2,0.3,0.4,0.1c0,0-0.2,0-0.2-0.1h0.1v-0.1l0,0h0.1
			h0.1c0,0.1,0.1,0.2,0.3,0.1c0.2-0.1,0-0.3,0.2-0.3h0.1c0.2,0,0.4,0,0.5,0c0-0.1,0-0.4-0.2-0.5c-0.1-0.1,0-0.2-0.1-0.4
			c0.2,0.1,0.4,0.2,0.7,0.2c0.5,0,0.6-0.1,0.8-0.2C97.7,58,98,58,98.1,58c0.1,0,0.1,0,0.1,0.1c-0.1,0.3,0,0.3,0,0.4
			c0,0.1-0.3,0-0.4,0s-0.2,0.1-0.2,0.1c-0.1,0-0.3,0.1-0.3,0.3c0,0,0.1-0.1,0.2-0.1l0,0c0,0.2,0.2,0.2,0.3,0.1c0,0,0.1,0,0,0
			c-0.1,0.1-0.3,0.2-0.1,0.3c0,0,0,0,0.1,0c0,0.1,0.1,0.2,0.2,0.2c0-0.1,0-0.1,0-0.2h0.1c0.1,0,0.1-0.2,0.2-0.3l0,0
			c0,0.1-0.1,0.3,0,0.3c0,0,0,0,0.1,0c0,0.1,0.2,0.2,0.3,0.1c0,0-0.1,0-0.1-0.1l0.1-0.1c0.1-0.3-0.1-0.3-0.1-0.4
			c0-0.1,0.3,0,0.3-0.3c0,0,0-0.1-0.1-0.2l0,0l0,0c0.1,0,0.1,0,0.2-0.1c-0.2,0-0.1-0.1-0.2-0.3l0,0c0.1,0,0.1-0.1,0.1-0.3
			c-0.1,0.1-0.3,0.2-0.3,0c0,0,0-0.1-0.2-0.1c-0.3,0-0.5,0-1.2-0.1C98.2,56.9,99.3,56.8,99.3,56.4"/>
		<path class="st0" d="M107.4,64.9L107.4,64.9L107.4,64.9 M105.9,62.5L105.9,62.5L105.9,62.5 M105.8,62.8L105.8,62.8L105.8,62.8z
			 M106,63.3C106,63.2,106.1,63.2,106,63.3c0.2-0.1,0.2-0.1,0.2-0.2c0-0.1,0-0.1-0.1-0.2c0.1,0,0.1-0.1,0.1-0.1h-0.1
			c0,0,0-0.1,0.1-0.1h0.1l0.3,0.2c0,0,0.1,0,0.1,0.1v0.1c0,0,0-0.1-0.1-0.1c-0.1,0-0.1,0,0,0.1c-0.1,0-0.2-0.1-0.2,0
			c0,0.1,0,0.1,0,0.2c0,0,0,0.1,0,0.2c0,0.1-0.1,0.2-0.2,0.1C105.9,63.5,105.9,63.4,106,63.3 M106.4,62.5c-0.1,0.1-0.2,0.2-0.3,0.1
			s0-0.1-0.1-0.3C106.1,62.3,106.3,62.5,106.4,62.5 M106.6,62.6c0,0,0.3,0.1,0.4,0.2c-0.2,0-0.1,0.1-0.3,0.1
			C106.6,62.9,106.6,62.7,106.6,62.6 M114.3,64.6C114.3,64.6,114.3,64.5,114.3,64.6c0.1-0.1,0.1-0.2,0.1-0.3c-0.1,0.1-0.3,0.2-0.3,0
			c0,0,0-0.1-0.2-0.1c-0.3,0-0.6,0-1.2-0.1c0,0-0.1,0,0,0c0.6,0,1.7-0.1,1.7-0.5c0-0.3-0.4-0.5-1.4-0.5c-1.1,0-4.3,0.4-4.3-0.2
			c0-0.4,1.1-0.2,1.9-0.2c0,0.1,0.1,0.1,0.2,0.1c1.4,0.4,2.9-0.6,3.8-0.4c-1.1-0.4-1.7,0.3-2.8,0.1c0.6,0,1.2-0.1,1.3-0.3
			c-0.5,0.3-1.8-0.2-2.4,0.1c0,0-0.1,0-0.1,0.1c-1,0-2.2-0.1-2.2,0.5c0,1.1,3.7,0.4,4.6,0.4c0.9,0,1.1,0.1,1.1,0.3
			c0,0.3-0.9,0.3-1.4,0.3c-0.8,0-4.3-0.5-5.6,0c0.1-0.2,0.4-0.6,0.3-0.8c0.1-0.1,0.2-0.2,0.2-0.3c-0.1-0.1-0.2-0.1-0.3-0.1
			c0-0.1,0-0.1-0.1-0.2c0,0,0-0.2-0.1-0.2c0,0-0.2-0.1-0.3-0.2c-0.1-0.1-0.3-0.1-0.3-0.1h-0.2c-0.1,0-0.2,0-0.2,0.1
			c-0.1-0.1-0.2-0.1-0.3-0.1c-0.1,0.1-0.1,0.2,0,0.4c-0.1,0-0.3,0.3-0.4,0.3c0,0.1,0.1,0.1,0.1,0.1c-0.1,0.2-0.1,0.4-0.3,0.4
			c0.1,0.1,0.1,0.2,0.2,0.2c0,0.1,0,0.2,0,0.3l-0.2-0.1c-0.1,0-0.2,0-0.2,0s-0.1,0-0.2,0c-0.2,0-0.3-0.3-0.6-0.5
			c-0.2-0.1-0.2-0.2-0.2-0.4c0-0.2,0.1-0.3,0.1-0.5c0,0,0-0.1-0.1-0.2c0-0.1-0.2-0.2-0.3-0.2c0,0,0.1,0.1,0.1,0.2l-0.1,0.1
			c0,0,0,0.1,0,0.2l0,0c0,0,0,0,0,0.1l0,0c0-0.1-0.1-0.3-0.2-0.3h-0.1l0,0c0-0.1-0.1-0.2-0.3-0.1c0,0,0.1,0,0.1,0.1v0.1
			c0,0.1,0.1,0.2,0.2,0.2l0,0c0,0,0,0,0,0.1l0,0c-0.2-0.1-0.3,0-0.4,0.1v0.1c-0.1,0.1-0.1,0.2,0.1,0.3c0,0,0-0.1,0.1-0.2l0,0h0.1
			h0.1c0,0,0,0,0.1,0c0,0,0,0,0.1,0l0,0c-0.2,0.2-0.1,0.3,0.1,0.4l0,0c0,0.3-0.4,0.2-0.4-0.1c-0.2,0.3,0.2,0.6,0.5,0.4l0,0
			c0,0.1,0,0.1,0.1,0.1c0,0,0-0.1,0.1-0.1l0,0c0,0.1,0,0.2,0.1,0.2c0-0.1,0-0.1,0-0.1c0.1,0,0.3,0.4,0.7,0.7c0,0,0.2-0.1,0.3-0.2
			c0,0.1,0.1,0.2,0.1,0.2h0.1c0,0.2,0.2,0.4,0.2,0.4c-0.1,0-0.5-0.1-0.6,0c-0.2,0.1-0.7,0.3-0.8,0.1c0-0.1,0-0.1-0.1-0.2
			c0-0.1-0.1-0.1-0.2-0.1h-0.1c-0.1-0.1-0.3-0.1-0.3,0c0.1,0,0.1,0,0.2,0.1v0.1c0,0.1,0,0.2,0.3,0.3l0,0c0,0-0.1,0-0.2,0
			c-0.1-0.1-0.1-0.2-0.3-0.1c0,0,0,0-0.1,0l0,0c-0.1,0-0.3,0.2-0.3,0.3c0,0,0.1-0.1,0.2-0.1v0.1c0,0.2,0.1,0.3,0.4,0.1l0,0
			c-0.1,0.1-0.3,0.3-0.1,0.4c0,0,0,0,0.1,0.1l0,0c0,0.2,0.2,0.3,0.3,0.3c0,0-0.1-0.1-0.1-0.3h0.1c0.2-0.1,0.1-0.3,0.2-0.3l0,0
			c0,0.1,0,0.3,0.2,0.2c0.2,0,0.3-0.2,0.2-0.3l0,0c0.1,0,0.1,0.1,0.1,0.2l0.1-0.1c0,0.1,0,0.2-0.1,0.3c0.1,0,0.3-0.1,0.3-0.3
			l0.1,0.1l0,0c0.1,0,0.2,0,0.4,0l0,0c0,0.1,0,0.2,0,0.2s0-0.1,0.1-0.1c0.1,0,0,0.2,0.1,0.3c0-0.5,0.3-0.3,0.6-0.5l0,0
			c0,0.1-0.1,0.1-0.1,0.2c0.1,0.1,0.5-0.2,0.5-0.4c0,0,0.2-0.1,0.3-0.1c0.3,0,0.3-0.2,0.4-0.2c1.7,0.2,0.7-0.7,2.8-0.5
			c0.1,0,0.1-0.1,0.2-0.2c-0.1,0.2-0.1,0.6,0.1,0.6c0.1,0,0.3,0.1,0.4,0.1l0,0c-0.1,0-0.2,0-0.3,0.1c-0.3,0.2-0.3-0.5-0.7-0.4
			l-0.1,0.1c-0.1,0-0.3,0.2-0.3,0.3c0,0,0.1-0.1,0.2-0.1v0.1c0,0.1,0,0.1,0.1,0.1c0.1,0,0.1,0,0.1,0l0,0c0,0.1-0.4-0.1-0.3,0.3
			c0,0,0,0.1,0.1,0.1c0,0.1,0.1,0.2,0.3,0.1l-0.1-0.1h0.1c0,0,0,0,0-0.1l0,0l0,0c0,0,0,0,0,0.1v0.1c0,0.1,0.2,0.3,0.4,0.1
			c-0.1,0-0.2,0-0.2-0.1h0.1v-0.1l0,0h0.1c0,0,0,0,0.1,0c0,0.1,0.1,0.1,0.3,0.1c0.2-0.1,0-0.3,0.2-0.3h0.1c0.2,0,0.4,0,0.5,0
			c0-0.1,0-0.4-0.2-0.5c-0.1-0.1,0-0.2-0.1-0.4c0.2,0.1,0.4,0.2,0.7,0.2c0.5,0,0.6-0.1,0.9-0.2c0.3-0.2,0.5-0.1,0.6-0.1
			c0.1,0,0.1,0,0.1,0.1c-0.1,0.3,0,0.3-0.1,0.4c0,0.1-0.3,0-0.4,0c-0.1,0-0.1,0.1-0.1,0.1c-0.1,0-0.3,0.1-0.3,0.3
			c0,0,0.1-0.1,0.2-0.1v0.1c0,0.2,0.2,0.2,0.3,0.1c0,0,0.1,0,0,0c-0.1,0.1-0.3,0.2-0.1,0.3c0,0,0,0,0.1,0c0,0.1,0,0.2,0.1,0.2
			c0-0.1,0-0.1,0-0.2h0.1c0.1,0,0.1-0.2,0.2-0.3l0,0c0,0.1-0.1,0.3,0,0.3c0,0,0,0,0.1,0c0,0.1,0.1,0.2,0.3,0.1c0,0-0.1,0-0.1-0.1
			l0.1-0.1c0.1-0.3-0.1-0.3-0.1-0.4c0-0.1,0.3,0,0.3-0.3c0,0,0-0.1-0.1-0.2l0,0l0,0c0.1,0,0.1,0,0.2-0.1
			C114.2,64.8,114.3,64.7,114.3,64.6"/>
		<path class="st0" d="M106.6,67.5c-0.1,0-0.2-0.2-0.1-0.3c0,0,0.3,0.1,0.4,0.2C106.7,67.4,106.7,67.5,106.6,67.5 M106.4,67.7
			C106.4,67.7,106.4,67.6,106.4,67.7C106.2,67.6,106.3,67.6,106.4,67.7c-0.2,0-0.2-0.1-0.3,0c0,0.1,0,0.1,0,0.2c0,0,0,0.1,0,0.2
			s-0.1,0.2-0.2,0.1c-0.1-0.1-0.1-0.2-0.1-0.2c0-0.1,0.1-0.1,0.1-0.1c0.1,0,0.1,0,0.1-0.1s0-0.1-0.1-0.2c0.1,0,0.1-0.1,0.1-0.1
			c-0.1,0-0.1,0-0.1,0s0-0.1,0.1-0.1h0.1l0.3,0.1C106.4,67.5,106.5,67.5,106.4,67.7C106.4,67.6,106.5,67.7,106.4,67.7 M106.2,67.1
			c-0.1,0.1-0.2,0.2-0.3,0.1c-0.1-0.1,0-0.1-0.1-0.3C106,67,106.2,67.1,106.2,67.1 M109.5,67.2c0,0.1,0.1,0.1,0.2,0.2
			c1.3,0.4,2.8-0.6,3.6-0.4c-1-0.4-1.7,0.3-2.7,0.1c0.6,0,1.2-0.1,1.2-0.3c-0.4,0.3-1.7-0.2-2.2,0.1c0,0-0.1,0-0.1,0.1
			c-0.7,0-1.3,0-1.3,0.5c0,1,2.7,0.4,3.6,0.4c0.8,0,0.7,0.1,0.7,0.3c0,0.2-1,0.3-1.4,0.3c-0.7,0-2.9-0.4-4.3-0.1
			c0.1-0.2,0.4-0.5,0.2-0.7c0.1,0,0.2-0.1,0.2-0.3c-0.1-0.1-0.2-0.1-0.2-0.1c0-0.1,0-0.1-0.1-0.2c0,0,0-0.1-0.1-0.2
			c0,0-0.2-0.1-0.3-0.2c-0.2-0.1-0.2-0.1-0.3-0.1H106c-0.1,0-0.2,0-0.2,0.1c-0.1-0.1-0.1-0.1-0.2-0.1c-0.1,0.1-0.1,0.2,0,0.4
			c-0.1,0-0.2,0.3-0.4,0.3c0,0.1,0.1,0.1,0.1,0.1c-0.1,0.2-0.1,0.4-0.3,0.4c0,0.1,0.1,0.1,0.1,0.1c0,0.1-0.1,0.3-0.1,0.4H105
			c0,0,0,0-0.1,0c-0.2,0-0.3,0-0.5-0.2c-0.2-0.1-0.2-0.2-0.2-0.4c0-0.2,0.1-0.3,0.1-0.5c0,0,0-0.1,0-0.2s-0.2-0.2-0.3-0.2
			c0,0,0.1,0.1,0.1,0.2l-0.1,0.1c0,0.1-0.1,0.1,0,0.2l0,0c0,0,0,0,0,0.1l0,0c0-0.1-0.1-0.3-0.2-0.3h-0.1l0,0c0-0.1-0.1-0.2-0.3-0.1
			c0,0,0.1,0,0.1,0.1v0.1c0,0.1,0.1,0.2,0.2,0.2l0,0c0,0,0,0,0,0.1l0,0c-0.2-0.1-0.3,0-0.3,0.1v0.1c-0.1,0.1-0.1,0.2,0,0.3v-0.1l0,0
			l0.1,0.1h0.1c0,0,0,0,0.1,0c0,0,0,0,0.1,0.1l0,0c-0.2,0.1-0.1,0.3,0.1,0.3c0,0,0,0,0,0.1c0,0.3-0.4,0.2-0.4-0.1
			c-0.2,0.3,0.2,0.6,0.4,0.4l0,0c0,0.1,0,0.1,0.1,0.1c0,0,0-0.1,0.1-0.1l0,0c0,0.1,0,0.2,0.1,0.2c0-0.1,0-0.1,0-0.1
			c0.1,0,0-0.1,0.4,0.1c0,0.1,0.1,0.1,0.1,0.1h0.3c0,0.2,0,0.5,0,0.5c-0.1,0-0.4,0-0.6,0c-0.2,0.1-0.7,0.3-0.8,0.1
			c0-0.1,0-0.1-0.1-0.2c0-0.1-0.1-0.1-0.2-0.1h0.3c-0.1-0.1-0.2-0.1-0.3,0c0.1,0,0.1,0,0.2,0.1v0.1c0,0.1,0,0.2,0.3,0.3l0,0
			c0,0-0.1,0-0.2,0c-0.1-0.1-0.1-0.2-0.3-0.1h-0.1l0,0c-0.1,0-0.3,0.2-0.2,0.3c0,0,0.1-0.1,0.2-0.1v0.1c0,0.2,0.1,0.3,0.4,0.1l0,0
			c-0.1,0.1-0.3,0.3-0.1,0.4c0,0,0,0,0.1,0l0,0c0,0.2,0.2,0.3,0.3,0.3c0,0-0.1-0.1-0.1-0.3h0.1c0.1-0.1,0.1-0.2,0.2-0.3l0,0
			c0,0.1,0,0.2,0.2,0.2s0.2-0.2,0.2-0.2l0,0c0.1,0,0.1,0.1,0.1,0.2l0.1-0.1c0,0.1,0,0.2-0.1,0.3c0.1,0,0.2-0.1,0.3-0.3l0.1,0.1l0,0
			c0,0,0.2,0,0.3,0l0,0c0,0.1,0,0.1,0,0.2c0,0,0-0.1,0.1-0.1c0,0,0,0.2,0.1,0.3c0-0.4,0.4-0.3,0.7-0.5l0,0c0,0.1-0.1,0.1-0.1,0.1
			c0.3,0.2,0.6-0.2,0.7-0.4l0.1-0.1c0,0,0,0.1-0.1,0.1c0.3,0,0.3-0.2,0.4-0.2c0.9,0.1,0.2-0.7,1.6-0.5c0.1,0,0.3-0.1,0.4-0.2
			c-0.1,0.2-0.1,0.6,0.1,0.6c0.1,0,0.3,0.1,0.3,0.1l0,0c-0.1,0-0.2,0-0.3,0.1c-0.3,0.2-0.3-0.5-0.6-0.3c0,0-0.1,0-0.1,0.1
			c-0.1,0-0.3,0.2-0.3,0.3c0,0,0.1-0.1,0.2-0.1v0.1c0,0,0,0.1,0.1,0.1c0.1,0,0.1,0,0.1,0l0,0c0,0.1-0.4-0.1-0.3,0.3
			c0,0,0,0.1,0.1,0.1c0,0.1,0.1,0.2,0.2,0.1l-0.1-0.1h0.1l0,0l0,0l0,0c0,0,0,0,0,0.1v0.1c0,0.1,0.2,0.2,0.3,0.1
			c-0.1,0-0.2,0-0.2-0.1h0.1v-0.1l0,0h0.1h0.1c0,0.1,0.1,0.1,0.2,0.1c0.2-0.1,0-0.3,0.2-0.3h0.1c0.2,0,0.4,0,0.5,0
			c0-0.1,0-0.4-0.2-0.5c-0.1,0,0-0.2-0.1-0.3c0.2,0.1,0.4,0.2,0.6,0.2c0.5,0,0.7-0.1,0.9-0.2c0.3-0.1,0.5-0.1,0.6-0.1
			c0.1,0,0.1,0,0.1,0.1c-0.1,0.2,0,0.3-0.1,0.4c-0.1,0.1-0.2,0-0.4,0c-0.1,0-0.2,0.1-0.2,0.1c-0.1,0-0.3,0.1-0.3,0.3
			c0,0,0.1-0.1,0.2-0.1c0,0,0,0,0,0.1c0,0.2,0.1,0.2,0.3,0.1c0,0,0.1,0,0,0c-0.1,0.1-0.3,0.2-0.2,0.3c0,0,0,0,0.1,0
			c0,0.1,0,0.2,0.1,0.2c0-0.1,0-0.1,0.1-0.2h0.1c0.1,0,0.1-0.2,0.2-0.3l0,0c-0.1,0.1-0.1,0.3,0,0.3c0,0,0,0,0.1,0
			c0,0.1,0.1,0.2,0.3,0.1l-0.1-0.1l0.1-0.1c0.1-0.3-0.1-0.3-0.1-0.4s0.3,0,0.3-0.3c0,0,0-0.1-0.1-0.2l0,0l0,0c0.1,0,0.1,0,0.2-0.1
			c-0.2,0-0.1-0.1-0.1-0.2l0,0c0.1,0,0.1-0.1,0.1-0.3c-0.1,0.1-0.3,0.2-0.3,0c0,0,0-0.1-0.2-0.1c-0.3,0-0.8,0-1.3-0.1c0,0-0.1,0,0,0
			c0.6,0,1.8-0.1,1.8-0.5c0-0.3-0.1-0.5-1.1-0.5c-1,0-3.3,0.4-3.3-0.2C108.5,67.1,109,67.1,109.5,67.2"/>
		<path class="st0" d="M105.5,72.6C105.5,72.5,105.6,72.5,105.5,72.6c0.2-0.1,0.2-0.1,0.2-0.2c0-0.1,0-0.1-0.1-0.1
			c0.1,0,0.1-0.1,0.1-0.1h-0.1c0,0,0-0.1,0.1-0.1h0.1l0.3,0.1c0,0,0.1,0,0.1,0.1v0.1c0,0,0-0.1-0.1-0.1c0,0,0,0,0,0.1
			c-0.1,0-0.1-0.1-0.2,0c0,0.1,0,0.1,0,0.2c0,0,0,0.1,0,0.2c0,0.1-0.1,0.2-0.2,0.1C105.5,72.8,105.5,72.7,105.5,72.6 M105.9,71.8
			c-0.1,0.1-0.2,0.2-0.2,0.1c-0.1-0.1,0-0.1-0.1-0.3C105.6,71.7,105.8,71.8,105.9,71.8 M106,72c0,0,0.3,0.1,0.4,0.1
			c-0.2,0-0.1,0.1-0.2,0.1C106,72.2,106,72.1,106,72 M108.4,71.8c0,0.1,0.1,0.1,0.2,0.2c1.3,0.4,2.8-0.6,3.6-0.4
			c-1-0.4-1.7,0.3-2.7,0.1c0.6,0,1.2-0.1,1.2-0.3c-0.4,0.3-1.7-0.2-2.2,0.1l-0.1,0.1c-0.4,0.1-0.7,0.3-0.7,0.6
			c0,0.9,3.3,0.2,3.3,0.5c0,0.2-0.7,0.4-1.5,0.4c-0.7,0-1.8-0.4-3.3-0.1l0,0c0.1-0.2,0.4-0.6,0.3-0.8c0.1,0,0.2-0.1,0.2-0.2
			c-0.1-0.1-0.2-0.1-0.2-0.1c0-0.1,0-0.1-0.1-0.2c0,0,0-0.1-0.1-0.2c0,0-0.1-0.1-0.3-0.2c-0.1-0.1-0.2-0.1-0.3-0.1h-0.2
			c-0.1,0-0.2,0-0.2,0.1c-0.1-0.1-0.1-0.1-0.2-0.1c-0.1,0.1-0.1,0.2,0,0.3c-0.1,0-0.2,0.3-0.3,0.3c0,0.1,0.1,0.1,0.1,0.1
			c-0.1,0.2-0.1,0.4-0.2,0.4c0,0.1,0.1,0.1,0.1,0.1c-0.1,0.3-0.1,0.6-0.1,0.8c-0.2-0.2-0.5-0.7-0.7-0.8c-0.2-0.1-0.2-0.2-0.2-0.4
			c0-0.2,0.1-0.3,0.1-0.5c0,0,0-0.1,0-0.2c0-0.1-0.2-0.2-0.3-0.2c0,0,0.1,0.1,0.1,0.2l-0.1,0.1c0,0-0.1,0.1,0,0.2l0,0c0,0,0,0,0,0.1
			l0,0c0-0.1-0.1-0.3-0.2-0.3h-0.1l0,0c0-0.1-0.1-0.2-0.3-0.1c0,0,0.1,0,0.1,0.1v0.1c0,0.1,0.1,0.2,0.2,0.2l0,0c0,0,0,0,0,0.1l0,0
			c-0.2-0.1-0.3,0-0.3,0.1V72c-0.1,0.1-0.1,0.2,0,0.3v-0.1l0,0l0.1,0.1h0.1l0,0c0,0,0,0,0.1,0l0,0c-0.1,0.1-0.1,0.3,0.1,0.3l0,0
			c0,0.3-0.4,0.2-0.4-0.1c-0.2,0.3,0.2,0.6,0.4,0.4l0,0c0,0,0,0.1,0.1,0.1c0,0,0-0.1,0.1-0.1l0,0c0,0.1,0,0.2,0.1,0.2
			c0-0.1,0-0.1,0-0.1s0,0.4,0.4,0.6c0.1,0.2,0.3,0.4,0.5,0.3c0.1,0.2,0.2,0.3,0.1,0.3c-0.1,0-0.5,0-0.6,0c-0.1,0.1-0.3,0.1-0.4,0.1
			l0,0l0,0c-0.1,0-0.3,0-0.3-0.1c0-0.1,0-0.1-0.1-0.2c0-0.1-0.1-0.1-0.1-0.1h-0.1c-0.1-0.1-0.2-0.1-0.3,0c0.1,0,0.1,0,0.2,0.1v0.1
			c0,0.1,0,0.2,0.3,0.2l0,0c0,0-0.1,0-0.2,0c-0.1-0.1-0.1-0.2-0.3-0.1c0,0,0,0-0.1,0l0,0c-0.1,0-0.3,0.1-0.2,0.3l0.1-0.1v0.1
			c0,0.1,0.1,0.3,0.4,0.1l0,0c-0.1,0.1-0.3,0.2-0.1,0.3c0,0,0,0,0.1,0l0,0c0,0.2,0.2,0.3,0.2,0.3s-0.1-0.1-0.1-0.2h0.1
			c0.1-0.1,0.1-0.2,0.1-0.3l0,0c0,0.1,0,0.2,0.2,0.2c0.2,0,0.2-0.2,0.2-0.2l0,0c0.1,0,0.1,0.1,0.1,0.2l0.1-0.1c0,0.1,0,0.2-0.1,0.3
			c0.1,0,0.2-0.1,0.3-0.3l0.1,0.1l0,0c0.1,0,0.2,0,0.3,0l0,0c0,0.1,0,0.1,0,0.2c0,0,0-0.1,0.1-0.1c0,0,0,0.2,0.1,0.3
			c0-0.4,0.3-0.3,0.5-0.4l0,0l-0.1,0.1c0.1,0,0.4-0.1,0.4-0.3c0-0.1,0.2-0.2,0.2-0.7h0.1c0.4,0,0.5-0.3,0.9-0.3
			c-0.1,0.1-0.1,0.3-0.1,0.5c0,0.2,0.3,0.4,0.3,0.5l0,0c-0.1,0-0.2,0-0.3,0.1c-0.3,0.2-0.3-0.4-0.6-0.3c0,0-0.1,0-0.1,0.1
			c-0.1,0-0.3,0.1-0.3,0.3c0,0,0.1-0.1,0.2-0.1v0.1c0,0.1,0,0.1,0.1,0.1c0.1,0,0.1,0,0.1,0l0,0c0,0.1-0.4-0.1-0.3,0.3v0.1
			c0,0.1,0.1,0.2,0.2,0.1l-0.1-0.1h0.1c0,0,0,0,0-0.1l0,0l0,0c0,0,0,0,0,0.1v0.1c0,0.1,0.1,0.2,0.3,0.1c0,0-0.2,0-0.2-0.1h0.1v-0.1
			l0,0h0.1c0,0,0,0,0.1,0c0,0.1,0.1,0.1,0.2,0.1c0.2-0.1,0-0.2,0.2-0.3h0.1c0.2,0,0.3,0.1,0.3,0c0-0.1,0-0.4-0.2-0.5
			c-0.1-0.1,0.1-0.7-0.3-1c0.2,0.1,1,0.2,1.1,0c0.2,0.1,0.5,0.2,0.5,0.2V74c-0.2,0.1-0.2,0.2-0.3,0.2l0,0c-0.1-0.1-0.1-0.2-0.2-0.2
			c-0.1,0-0.1,0-0.2,0c-0.1,0-0.3,0-0.3,0.1c0,0,0.1,0,0.2,0l0,0v0.1l0,0l0,0l0,0l0,0c-0.1,0-0.3,0-0.3,0.1c0,0,0,0,0,0.1
			c-0.1,0.1-0.1,0.2,0,0.2c0-0.1,0-0.1,0.1-0.1v0.1c0.1,0.1,0.2-0.1,0.3-0.1l0,0c-0.1,0-0.2,0.1-0.2,0.2c0,0,0,0,0,0.1
			c0,0.1,0,0.2,0.1,0.3c0,0,0-0.1,0-0.2h0.1c0.2-0.1,0.1-0.3,0.2-0.3c0.1-0.1,0.2,0.1,0.4,0c0,0,0.1-0.1,0-0.2l0,0l0,0
			c0,0,0.1,0.1,0.2,0.1c-0.1-0.1,0-0.2,0.1-0.3l0,0c0.1,0,0.1,0,0.2-0.1c-0.1,0-0.4-0.1-0.2-0.2c0.2-0.1,0.3-0.2,0.2-0.3
			c-0.2-0.2-0.5-0.3-0.5-0.5c0.1,0,0.3,0,0.3,0c1.1,0,1.8-0.3,1.8-0.7c0-0.8-3.4,0.1-3.4-0.5C108,72.1,108.2,71.9,108.4,71.8"/>
		<path class="st0" d="M54.5,13.8c0-0.4-0.4-0.8-0.8-0.8c-0.4,0-0.8,0.4-0.8,0.8c0,0.4,0.4,0.8,0.8,0.8
			C54.2,14.6,54.5,14.2,54.5,13.8"/>
		<path class="st0" d="M54.2,11.6c0-0.4-0.4-0.8-0.8-0.8s-0.8,0.4-0.8,0.8c0,0.4,0.4,0.8,0.8,0.8C53.9,12.4,54.2,12.1,54.2,11.6"/>
		<path class="st0" d="M54.7,10.6c0.5,0,0.8-0.4,0.8-0.8c0-0.4-0.4-0.8-0.8-0.8c-0.4,0-0.8,0.4-0.8,0.8
			C53.9,10.3,54.3,10.6,54.7,10.6"/>
		<path class="st0" d="M56.8,10.5c0.5,0,0.8-0.4,0.8-0.8c0-0.4-0.4-0.8-0.8-0.8S56,9.3,56,9.7C56,10.1,56.3,10.5,56.8,10.5"/>
		<path class="st0" d="M65.9,9c0.3,0.3,0.8,0.3,1.2,0c0.3-0.3,0.3-0.8,0-1.1c-0.3-0.3-0.8-0.3-1.2,0C65.6,8.1,65.6,8.7,65.9,9"/>
		<path class="st0" d="M65.8,7.2c0.3-0.3,0.3-0.8,0-1.2c-0.3-0.3-0.8-0.3-1.2,0c-0.3,0.3-0.3,0.8,0,1.2C65,7.6,65.5,7.6,65.8,7.2"/>
		<path class="st0" d="M63.7,6.9c0.3-0.3,0.3-0.8,0-1.2c-0.3-0.3-0.8-0.3-1.2,0c-0.3,0.3-0.3,0.8,0,1.2C62.9,7.2,63.4,7.2,63.7,6.9"
			/>
		<path class="st0" d="M61.8,8.3c0.3-0.3,0.3-0.8,0-1.2c-0.3-0.3-0.8-0.3-1.2,0c-0.3,0.3-0.3,0.8,0,1.2C61,8.6,61.5,8.6,61.8,8.3"/>
		<path class="st0" d="M56.6,7.1l0.7,1.4l0.8-1h0.1c0.1,0.5,0.1,1.3,0.1,1.8c0,0.6,0.5,1,1,1c0.6,0,1-0.5,1-1c0-0.4-0.2-0.7-0.6-0.9
			c-0.4-0.3-0.9-0.7-1.2-1.1V7.2l1.4,0.1l-0.5-1.5l-1,0.9c0,0,0,0-0.1,0l-0.1-1.5l-1.4,0.5l1,1.1c0,0,0,0.1-0.1,0.1L56.6,7.1z"/>
		<path class="st0" d="M66,9.7c0.3,0.5,0.4,0.7,0.5,1.1c-0.2-0.1-0.5-0.4-0.8-0.8l0.2,1.9c0.2-0.3,0.4-0.6,0.7-0.7
			c-0.1,1.2-0.6,1.7-1,1.8c-0.5,0.1-0.9-0.2-1-0.6c-0.1-0.6,0.4-0.9,0.9-0.4c0.1-1.1-0.8-1.1-1.2-0.6c0.5-1.1,0.3-1.8-0.7-2.4
			c-0.6,1-0.4,1.7,0.4,2.5c-0.8-0.4-1.4,0.3-0.8,1.1c0.1-0.7,0.8-0.6,0.9,0c0.1,0.5-0.4,1.1-1.2,1.4c-1.2,0.4-1.5-0.4-1.8-1
			c0.3-0.2,0.9-0.1,1.5,0.3l-0.6-1.9c-0.3,0.7-0.7,0.9-1.1,1.1c0-0.5,0.4-1.6,0.4-1.6l-2.2,0.9c0,0,1,0.5,1.4,0.9
			c-0.5,0.2-0.9,0.3-1.6,0l0.9,1.7c0.2-0.8,0.6-1.2,0.9-1.3c0.2,0.7,0.5,1.5-0.6,2c-0.8,0.4-1.5,0.3-1.8-0.2c-0.3-0.5,0-1.1,0.7-0.7
			c-0.1-1.1-1-1.1-1.3-0.3c0-1.1-0.3-1.8-1.4-2.1c-0.3,1.1,0.1,1.8,1.2,2.2c-0.6-0.1-1.3,0.6-0.4,1.3c0-0.7,0.6-0.8,0.9-0.3
			c0.2,0.3,0.2,0.8-0.3,1.1c-0.4,0.2-1.1,0.2-2-0.6c0.3-0.1,0.6-0.1,1,0L55.6,14c0.1,0.5,0,0.9-0.1,1.1c-0.3-0.3-0.3-0.5-0.5-1.1
			l-0.9,0.8c0.9,0.5,1.9,1.4,3.1,3c1.3-0.8,3.6-1.9,5-2.5s3.8-1.4,5.2-1.7c-0.3-2-0.2-3.3,0.1-4.3L66,9.7z"/>
		<path class="st0" d="M68.6,20.4c-1.1,0.9-2.7,0.1-3.3-1.1c1.6-0.6,3.4-1.4,4.6-2.1C68.7,18.9,69.5,19.7,68.6,20.4 M68.3,32.1
			c-1.5,0.6-2.6-0.7-2.9-1.5c-0.3-0.9-0.5-1.6-0.2-1.9c0.6-0.6,0.8-1.1,0.4-1.9c-0.4-0.9-1.4-0.5-2.4-0.2c0.5-0.9,0.5-1.5-0.1-1.4
			c-0.8,0.1-0.8,1.4-1.2,1.2c-0.4-0.1-0.2-0.9-0.2-1.3c0-0.5,0.4-0.7,0.9-1l4.3-1.6c0.5-0.2,0.9-0.3,1.3,0.1c0.3,0.3,1,0.6,0.7,1
			c-0.2,0.4-1.1-0.5-1.7,0c-0.5,0.4-0.1,0.8,0.9,1.1c-0.9,0.5-1.9,0.9-1.6,1.8c0.3,0.8,0.7,1,1.6,1c0.5,0,0.8,0.7,1.2,1.5
			C69.8,29.9,69.9,31.5,68.3,32.1 M60.3,23.7c-1.1,0.1-1.1-1-3.1-1.5c1.4-0.3,3.2-1,4.8-1.6C62.3,21.9,61.8,23.5,60.3,23.7
			 M83.8,61.1c0.3-0.9-1.3-1.9-1.5-3.1c-0.2-1.3,0-2.4-1.5-4.1c-1.4-1.6-6.2-6.8-7.7-8.4c0.4,0,1.2-0.2,2.1,0.6
			c0.5,0.5,1.6,1.5,2.5,2.4c1.3-3.3,2.9-5.7,5.1-8.2c0.3-0.3,0.6-0.7,0.9-1c-0.8,0.3-2.1,0.5-2.9,1c-0.1-1.4,0.1-2.6-0.9-3.5
			c0.4-2,0-4.4-4.4-7.3c2.3,0.6,3.7,2.6,5.3,1c-1.6,0-1.6-3.5-7.2-6.2c2.2,0,3.9,3.5,6.3,1.5c-2.4-0.3-3.2-4.5-7.3-5.7
			c1.5,0.2,3,0.9,4.3-0.8c-1.5,0.4-2.4-1-4-1.1c0.6-1.8,0.5-3-0.2-4.4c-1.1,0.1-2.3,0.4-3.1,1.1c-0.1-1-1.2-1.1-2.1-1
			c0,0.4,0.3,1.1-0.2,1.2c-0.8,0.1-3.3,0.8-5.2,1.6c-2,0.8-4.2,2.2-4.9,2.6c-0.4,0.3-0.7-0.4-1-0.7c-0.7,0.6-1.4,1.4-0.9,2.1
			c-1.1,0.1-2.3,0.4-3.3,1.2c0,1.3,1.1,2.5,2.6,3.2c-2.6,2.6-0.3,5-2.6,7.2c3.3,0.1,2.7-4.4,4.4-5c-0.2,3.2-2,3.8-2,7.1
			c0,1.8,1.1,3.8,0.1,5c2.7-0.8,2-6.7,3.7-8.5c0.3,1,0.1,2-0.2,3.1c-1,2.8,0.1,6.6-1.4,7.8c2.8-0.3,3.1-4.8,5.3-6.3
			c-2,4-4,12.5-6.8,16.7c-4.8,6.3-7.5,14.2-11.8,14.2c-1.9,0-3.4-1.2-3.4-3.6c0-7.2,12.4-12.2,12.4-19.9c0-3.5-2.8-4.8-4.6-4.8
			c-1.2,0-2.6,0.6-3.8,1.6c-0.5-0.2-1-0.3-1.5-0.3c-4.4,0-3.3,7.9-7,7.8c1.5,0.9,4.2-0.8,5.6-3c-0.6,5.1-8,3.8-7.4,9.9
			c1-4.9,12.8-4.1,12.8-11.4c0-0.8-0.4-1.5-1-2.1c0.9-0.6,1.7-0.8,2.5-0.8c1.4,0,2.7,1.1,2.7,3.1c0,6.4-12.4,11.9-12.4,19.8
			c0,1.4,0.4,2.5,1,3.4c-0.9,0.4-1.8,0.2-2.5-0.7c-0.1,2.1,2.9,3.4,4.7,2.3c0.4,0.1,0.8,0.2,1.3,0.3c-0.6,1.5-2.5,2-3.5,1.9
			c3.1,2.4,8.3-0.8,8-3.5c2.4-2,4-5.2,5.6-7.4c-0.1,0.5-0.2,1-0.3,1.5c-1.8,3.2-3.5,6.1-3.9,10.3c-0.4,3.6-2.2,6.7-4.7,6.7
			c-0.6,0-1.5-0.7-1.9-0.4c-0.8,0.7,0,1.4,0,2c0,1-2,2-2,5.1c0,1.4,0.8,3.1,0.5,4c0.8-0.4,1.9-1.8,2.3-3.5c0.9,4.2-1.8,4,0.1,7.6
			c0.2-1.2,1.5-1.7,2.2-1.2c0.7,0.5,0.4,0.9-0.2,1.4c-0.6,0.5-1.1,3.3,1.5,3.1c-0.5-0.3-0.5-1,0.7-1.3c1.7-0.3,2.2,0.4,4.1,0.4
			c1.1,0,1.5-1.5,2.4-1.5s0.9,0.7,0.6,1.2c1.5-0.4,1.7-1.2,1.7-2s-0.7-1.3-0.2-1.6c0.5-0.3,2.2,0,1.5,1.4c0.9-0.2,1.3-0.8,1.3-1.8
			c0-1-1.2-1.7-2.4-1.5c-0.2-0.7-1.2-1-2.1-1c-2,0-1.7,1.6-3.1,1.6c-2.2,0-4.4-2.9-4.4-7.7c0-2.6,2.8-3.3,4.8-4.2
			c2-0.9,5.4-3,7.5-6.5c1.7-2.8,1.7-5.7,1.5-9.3c2.8,1.6,3.2,3.9,3.2,5.5c0,2.2-1.1,3.1-2,3.5c-0.8,0.4-1,0.2-1.1,0.7
			c-0.1,0.6,0.3,0.9,0.6,1.1c1,0.5,0.8,1.5,1.1,2.6c0.3,1.1,1.2,2.7,2.8,3.9c0.2-0.7,0.1-1.7,0-3.1c2.2,1.1,0.4,5.3,4.6,5.3
			c-0.8-0.4-0.6-1.6-0.1-1.7c0.4-0.2,1,0.3,1.8,1.4s0.6,1,2.6,1s1.1-0.7,2.1-0.7c1.1,0,1,1.2,0.4,2.1c1.8-0.5,2.3-1.9,1.7-3.3
			c1.6-0.8,2.4,0.4,2.6,1.2c1.5-1.5,0-3.4-1.2-3.5c0-0.6-0.5-1.2-1.1-1.2s-1.3-0.1-2,0c-0.7,0-1.1,1.1-2,1.1c-2.6,0-7.8-4.8-7.8-6.8
			c0-2.1,5-3.3,5-6.4c0-4.2-4.1-5.5-7.5-8.2c1.2-1.4,4.9-1.7,6.8-0.7c0.2-1.2,1-0.9,1.3-2.9c0.7,1.8,0,3.3,0.7,4.1
			c0.6-0.9,2.1-0.7,2-2.9c0.5,1.4-0.6,3.5,0.5,4.4c0.2-1.1,0.9-1.3,1.3-1.3c0.4,0,0.8,0.3,0.8,1c0,1.7-2.1,0.9-2.1,2.8
			c0,0.8,1,1.1,1,1.6c0,0.5-0.8,1.3-1.8,0.6c0.3,0.7,1,1.4,1.9,1.4s1.9-0.7,2.3-1.7c0.5,1.2,0.1,2.5-0.8,2.7c0.9,0.5,3.1,0,2.8-2.8
			c1.2,0.2,1.9,1,1.1,2.5c1-0.2,1.9-0.7,1.9-1.8C84.3,62.4,83.4,62.2,83.8,61.1"/>
		<path class="st0" d="M163.7,81c0-1.4,1.2-2.6,2.6-2.6s2.6,1.2,2.6,2.6s-1.2,2.6-2.6,2.6C164.9,83.7,163.7,82.5,163.7,81 M162.8,81
			c0,1.9,1.6,3.5,3.5,3.5s3.5-1.6,3.5-3.5s-1.6-3.5-3.5-3.5C164.4,77.5,162.8,79.1,162.8,81"/>
		<path class="st0" d="M151.4,87.3c-1-0.2-1.7-0.9-1.6-1.7c0.1-0.4,0.3-0.6,0.5-0.7c0.4-0.3,1-0.4,1.6-0.3c0.9,0.2,1.6,0.8,1.6,1.5
			c0,0.1,0,0.1,0,0.2C153.3,87,152.4,87.5,151.4,87.3 M149.8,84.3c-0.5,0.3-0.8,0.8-0.9,1.3c-0.1,0.6,0.1,1.2,0.5,1.8
			c0.4,0.5,1.1,0.8,1.8,1c0.7,0.1,1.4,0,2-0.3c0.6-0.3,1-0.8,1.1-1.5c0.2-1.2-0.8-2.4-2.3-2.7C151.2,83.7,150.4,83.8,149.8,84.3"/>
		<path class="st0" d="M130.4,37.3c0-0.5,0.3-1,0.7-1.3c0.4-0.3,0.9-0.5,1.3-0.4c0.2,0,0.5,0.1,0.7,0.4c0.2,0.2,0.2,0.5,0.2,0.7
			c-0.1,0.4-0.3,0.9-0.7,1.2c-0.7,0.5-1.6,0.6-2,0.1C130.5,37.7,130.4,37.5,130.4,37.3 M130.6,35.3c-1.1,0.9-1.4,2.3-0.7,3.2
			c0.7,0.9,2.2,0.9,3.3,0.1c0.6-0.5,1-1.1,1.1-1.8c0.1-0.5-0.1-1-0.4-1.4c-0.3-0.4-0.7-0.6-1.3-0.7
			C131.9,34.7,131.2,34.9,130.6,35.3"/>
		<path class="st0" d="M147,83.3L147,83.3L147,83.3z M147,82.4L147,82.4c-0.4,0-0.6-0.2-0.8-0.4c-0.3-0.4-0.5-0.9-0.5-1.5
			c0-0.6,0.2-1.1,0.6-1.5c0.2-0.2,0.4-0.4,0.8-0.4c0.7,0,1.3,0.9,1.3,1.9c0,0.6-0.2,1.1-0.6,1.5C147.7,82.2,147.4,82.4,147,82.4
			 M145.8,78.4c-0.5,0.5-0.8,1.3-0.9,2.1v0.1c0,0.8,0.3,1.6,0.8,2.1c0.4,0.4,0.9,0.6,1.4,0.6c0.5,0,1-0.2,1.4-0.6
			c0.5-0.5,0.8-1.3,0.9-2.1c0-0.7-0.2-1.4-0.6-1.9c-0.4-0.6-1-0.9-1.6-0.9C146.6,77.8,146.2,78,145.8,78.4"/>
		<path class="st0" d="M129.3,53.7c-0.9-0.4-1.4-1.3-1.1-2c0.2-0.3,0.4-0.5,0.7-0.6c0.5-0.2,1-0.1,1.6,0.1c0.5,0.3,0.9,0.7,1.1,1.1
			c0.1,0.2,0.1,0.6,0,0.9c-0.2,0.3-0.5,0.5-0.7,0.6C130.4,54,129.9,54,129.3,53.7 M128.6,50.3c-0.5,0.2-1,0.6-1.2,1
			c-0.5,1.1,0.1,2.6,1.5,3.2c0.8,0.4,1.6,0.4,2.3,0.2c0.5-0.2,1-0.5,1.2-1c0.2-0.5,0.2-1,0.1-1.6c-0.2-0.7-0.8-1.3-1.6-1.7
			C130.1,50.1,129.3,50,128.6,50.3"/>
		<path class="st0" d="M153.9,66.1c-0.6,0.8-1.6,1.1-2.2,0.6c-0.6-0.5-0.7-1.5-0.1-2.3c0.6-0.8,1.6-1.1,2.2-0.7
			C154.5,64.4,154.5,65.4,153.9,66.1 M149.8,72.7c-0.6,0.8-1.6,1.1-2.2,0.7c-0.6-0.5-0.7-1.5-0.1-2.3c0.6-0.8,1.6-1.1,2.2-0.7
			C150.3,70.8,150.4,71.8,149.8,72.7 M135.8,37.1c0.5-1.5,1.4-4.6,1.4-4.6l1.6,0.6c-0.5,0.2-1,0.6-1.5,1.1c0.4,0.2,1,0.2,1.4-0.1
			l-0.6,1.6c-0.1-0.3-0.6-0.8-1-0.9c-0.3,1.3,0.5,1.8,1.1,2.1c1,0.5,1.6,0.6,1.9,0.1c0.3-0.6-0.3-1.3-1.2-1
			c-0.1-0.8,0.4-1.3,0.9-1.3c0.4,0,0.8,0.4,0.9,0.9c-0.1-1.4,0.6-2.4,1.8-2.8c0.5,1.3,0.1,2.2-0.9,3.2c0.5-0.2,1.1-0.2,1.4,0.2
			c0.3,0.5,0.2,1.1-0.5,1.5c-0.2-0.9-1.2-0.9-1.5-0.4c-0.3,0.6,0.1,1.1,1,1.6c1,0.6,1.9,0.2,2.4-0.7c-0.3-0.1-0.9,0-1.5,0.3l1.1-2
			c0.1,0.3,0.2,0.8,0.7,1.2c0.2-0.4,0.4-1.2,0.1-1.9l2.3,1.3c-0.8,0.1-1.3,0.7-1.6,1c0.6,0.2,1.1,0.1,1.3,0l-1.2,1.9
			c0-0.7-0.2-1.2-0.5-1.4c-0.5,0.9-0.4,1.8,0.6,2.4c0.9,0.5,1.6,0.6,1.9,0.1c0.3-0.5-0.2-1.4-1.1-1.1c0-0.8,0.5-1.3,1-1.2
			c0.4,0,0.8,0.5,0.9,1.1c0.3-1.3,0.9-2.1,2.3-2.4c0.3,1.3-0.3,2.3-1.5,3c0.5-0.2,1.1-0.1,1.3,0.3c0.3,0.5,0.1,1.1-0.6,1.5
			c-0.1-0.9-1.1-1.1-1.4-0.5c-0.3,0.5,0.1,1,1.1,1.6c0.6,0.4,1.4,0.8,2.3-0.1c-0.3-0.4-1-0.4-1.3-0.4l1.1-1.4c0,0.5,0.3,1.1,0.6,1.3
			c0.2-0.7,0.3-1.4,0.2-1.9l1.3,1.1c0,0-2.2,2.3-3.2,3.5L135.8,37.1z M152.8,56.5c0-0.2,0.1-0.6,0.3-0.8c0.3-0.2,0.6-0.3,0.8-0.3
			c0.5,0,1,0.3,1.4,0.7c0.4,0.4,0.6,1,0.6,1.5c0,0.2-0.1,0.5-0.3,0.8l0,0c-0.3,0.2-0.6,0.3-0.8,0.3c-0.5,0-1-0.3-1.4-0.7
			C153,57.5,152.8,56.9,152.8,56.5 M159,85.3c0.1-0.5,0.4-1,0.9-1.3c0.5-0.3,1.1-0.5,1.6-0.4c0.2,0.1,0.5,0.2,0.7,0.5l0,0
			c0.2,0.3,0.2,0.6,0.1,0.9c-0.1,0.5-0.4,1-0.9,1.3c-0.9,0.6-1.9,0.5-2.3-0.1C158.9,85.8,159,85.5,159,85.3 M129.3,42
			c0,0.5-0.2,1-0.5,1.2c-0.1,0.1-0.4,0.3-0.7,0.3c-0.6,0-1.1-0.7-1.1-1.5v-0.1c0-0.5,0.2-1,0.5-1.2c0.1-0.1,0.4-0.3,0.7-0.3
			c0.3,0,0.5,0.2,0.6,0.3C129.2,41,129.3,41.5,129.3,42 M138.5,23.1c0.5-0.9,0-2.4,1.7-2.4c0.8,0,1.6,0.8,2.6,1.2
			C141.2,22,139.7,22.4,138.5,23.1 M165.3,46.7c1.1,3.1,3.4,4.3,5.1,3.5c-3.9-0.5-0.7-7-5.6-7c-0.3,0-0.6,0-0.8,0.1
			c-0.9-0.9-1.8-1.3-3.3-1.3c-2.1,0-5.7,2-5.7,6.2c0,9,10.5,9.8,10.5,17.7c0,2.4-1.8,3.8-3.8,3.8c-1.8,0-3.2-2-4.7-5
			c-0.7-1.5-2.2-3.5-3.9-5.5c0.5,0.3,1,0.5,1.6,0.5s1.1-0.2,1.5-0.5c0.4-0.4,0.6-0.9,0.6-1.4v-0.1c0-0.7-0.3-1.5-0.9-2
			c-0.6-0.6-1.3-1-2.1-1c-0.6,0-1.1,0.2-1.5,0.5c-0.4,0.4-0.6,0.9-0.6,1.4v0.1c0,0.3,0.1,0.6,0.2,0.9c-2.3-3-4.4-5.8-4.4-7.4
			c0-1.4,1-2.6,2.2-4.1c0.1,0,0.4,0.2,0.4,0.2l0.3-0.4c0.4-0.5,1.3-1.4,3.1-3.4l0.1-0.1l0,0l0.4-0.5L153,41c0.3-0.7,0.6-1.4,0.8-2.2
			c0.4,1.5,1.1,2.4,2.1,2.1c-0.7-1.5,0.7-3.5-0.2-7.1c0.9,1.4,2.1,2.2,3,1.9c-2.3-2.1,0.7-5-2.3-9.3c1,0.3,1.7,0.1,2.1-0.4
			c-2.8-0.4-1.5-3.9-6.3-5.1c1.2-0.2,1.9-0.9,1.7-1.6c-1.3,0.9-2.4-1.7-6.5-1.7c-0.3-1.6-1.7-3.2-3.4-4c0.3,1.2,0,2.3-0.3,3.2
			L129.9,3.4c-0.4-0.4-0.6-0.5-0.7-0.3c-0.1,0.1-0.1,0.4,0.2,0.7l11.7,14.7c-0.9,0.3-1.8,0.7-2.7,1c-0.6,0.2-1,0.8-1,1.5
			c-2.2,1.1-4.1,2.4-5,3.3c-0.7,0.7-1.3,0.8-0.7,2.3c0.2,0.6-0.5,2,1.2,0.9c1.1-0.7,3.7-2.1,4-1.2c0.2,0.5-1.1,1.1-1.9,1.4
			c-0.9,0.3-1.8,1-1.7,1.3c0.1,0.3,0.8,0,0.9,0.3c0,0.4,0.3,0.7,0.7,0.7c0.3,0,0.8-0.7,1.1-0.5c0.3,0.2-0.1,1.9-0.4,2.3
			c1.3-0.2,2.2-1.4,2.2-2.4c0-1,0.3-1.2,0.5-1.4c0.2-0.1,0.4,1.1,0.2,1.8c0.7-0.1,1.4-1.1,1.3-2.8c0.4-0.3,0.7-0.5,1-0.5
			c0.4,0,1.3,1.2,2.6,1.2c2.3,0,3.6-1.9,3.8-2.8c0.1-0.7,0.1-1.4-0.3-1.9c0.8,0.7,1.1,1.7,1.1,2.5c0,3.3-5.8,4.9-8.2,7.1
			c-0.1,0.1-0.2,0.2-0.3,0.2l-2.8-1.1l-0.2,0.6c0,0,0,0.1-0.2,0.5c-0.3,0.9-0.9,2.9-1.3,4l-0.1,0.4l0.2,0.1c-1.6,2.2-2.9,4.6-3.2,7
			c-0.7-0.7-1.3-1.2-2-1.8c0.1-0.2,0.1-0.5,0.1-0.8c0-0.7-0.2-1.4-0.6-1.9c-0.3-0.4-0.8-0.6-1.3-0.6c-0.5,0-1,0.1-1.3,0.5
			c-0.1,0.1-0.2,0.2-0.2,0.3c-0.1-0.1-0.2-0.2-0.3-0.2c-0.9-0.7-2-1.5-2.7-2.3c-0.3-0.3-0.6-0.5-1.2-0.5c-0.2,0-0.8,0-1.2,0
			s-0.6,0.3-1.1,0.7c-0.2,0.2-0.9,0.7-1.6,1.2c0.3,0.3,0.7,0.7,1,1.1c0.2,0.2,0.3,0.4,0.5,0.6c0.2-0.1,0.4-0.3,0.5-0.4
			c0.3-0.2,0.7-0.3,1-0.3c0.4,0,0.9,0.3,1.2,0.8c0.2,0.4,2.5,3.3,4.3,5.2c-0.2,0.1-0.4,0.1-0.6,0.2c-0.8,0.3-2.6,0.3-3.4,0.2
			c-0.8-0.1-0.9-0.3-1.5,0.6c-0.2,0.3-0.5,0.7-0.7,1c-0.3,0.3-0.5,0.7,0.1,1.6c0.8,1.4,2.8,5,3.5,6.5c0.7,1.6,1.5,1.9,2.7,2.4
			c1.3,0.5,3.5,1.8,3.7,2.1l0.1-1.2c-0.4-0.4-1.6-0.8-2.1-1c-0.5-0.2-0.6-0.4,0-0.4c0.5,0,2.1,0.6,3.2,1c-0.3-1.2-1.5-2.6-2.2-3.3
			c-0.9-0.3-1.9-0.3-2.2,0c0,0.3-0.1,0.6-0.5,0.6s-0.6-0.3-0.5-0.6c0.1-0.4,0.7-0.5,0.5-1.2c-0.1-0.7-1-0.8-1.5-0.9
			c-0.8-1.1-1.7-2.8-2.1-3.5c-0.4-0.7-0.2-1.1,0.1-1.3c0.7-0.5,2.1,0.3,4.9,0.5c1,0.1,2.2,0.1,3.5,0.2c0.4,3.2,1.7,6.2,6.1,7.4
			c2.2,0.5,4.5,2.2,5.2,4.3c-8.9-0.2-10.4,3.4-10.4,6.6c0,3.8,3.2,3.6,3.2,6.3c0,2.5-7.5,3.5-9.8,3.8c-1.9,0.3-3.1,0.7-4,1.7
			c-0.9,0.9-1.9,1.8-3.6,3.5c0,0,0.7,0.2,1.4,0.1l1.3-1.7c0.4-0.6,0.6-1,0.9-1c0.3,0,0.1,0.5-0.2,1.1l-1.1,1.8
			c4.5,0.3,4.7-1.4,4.7-2c0-0.7-1.1-1.1-0.5-1.6c0.6-0.4,1.2-0.1,1.7,0.5c0.5,0.6,0.7,1.1,1.9,0.6c0,0,9.6-4,10.8-4.6
			c1.1-0.5,0.8-1,0.1-1.5c-0.7-0.6-0.8-1.6-0.8-2.6c0-2.9,1.8-3.9,4.9-3.8c-0.1,0.5-0.1,1-0.1,1.4c0,4.6,6.8,9,8.7,9
			c0.8,0,2-0.6,2,2.1c0.1,2,0.5,3.5,0.1,5.7c-0.4,2.3-1,2.7-2.5,3.7c-1.4,1-2.7,4.1-3.3,4.7c0.6,0.4,1.3,0.5,1.8-1
			c0.4-1.3,0.9-2.1,1.5-2.4c-0.5,1.4-1,3.4-1.2,4c1.8,0.3,4.6-1.3,4.6-2.6c0-1.2-1-1.1-1-2c0-0.4,0.4-0.8,1-0.8
			c0.7,0,1.3,0.6,1.3,0.8c0.8-0.4,1.3-1.2,1.3-3c0-0.7,0-1.5-0.1-2.2c0,0.1,0.1,0.2,0.2,0.3c0.3,0.5,0.9,0.8,1.6,0.9
			c0.6,0.1,1.3-0.1,1.9-0.5c0.7-0.5,1.2-1.1,1.3-1.9c0-0.1,0.1-0.3,0.1-0.4c0-0.4-0.1-0.8-0.3-1.1c-0.3-0.4-0.8-0.7-1.3-0.9
			c-0.7-0.2-1.5,0-2.2,0.5c-0.6,0.4-1.1,1-1.3,1.7c-0.1-2.5-0.3-4.9-0.3-5.7c0.1-1.4,0.2-2-0.3-2.2c-0.5-0.2-1,0.6-1.7,0.6
			s-2.7-1.9-2.7-3.9s2.1-4.5,2-7.2c0-0.8,0.5-1.3,0.8-0.5c0.4,0.9,1,2.2,1.9,3.2c-0.6,3.4,3.2,6.6,6.2,4.3c-1.5,0.2-2.6-1.1-3.3-2.5
			c0.3,0,0.5,0.1,0.8,0.1c0.2,0,0.3,0,0.5,0c1.1,1.3,4.5,1.2,5.3-2.1c-0.6,0.7-1.8,1.2-2.7,1.1c1.3-1,2-2.7,2-4.4
			c0-8.6-10.4-9.6-10.4-17.3c0-2.9,2.6-4.8,4.3-4.8c0.7,0,1.2,0.2,1.6,0.5c-0.7,0.7-1,1.7-1,3c0.3,6.1,10.3,5.8,10.5,8.8
			C173.1,51.3,165.6,52.7,165.3,46.7"/>
	</g>
</g>
</svg>
