<?xml version="1.0" encoding="utf-8"?>
<!-- Generator: Adobe Illustrator 16.0.0, SVG Export Plug-In . SVG Version: 6.00 Build 0)  -->
<!DOCTYPE svg PUBLIC "-//W3C//DTD SVG 1.1//EN" "http://www.w3.org/Graphics/SVG/1.1/DTD/svg11.dtd">
<svg version="1.1" id="Layer_1" xmlns="http://www.w3.org/2000/svg" xmlns:xlink="http://www.w3.org/1999/xlink" x="0px" y="0px"
	 width="90px" height="74.208px" viewBox="0 0 90 74.208" enable-background="new 0 0 90 74.208" xml:space="preserve">
<path fill="#ffffff" d="M41.904,15.766c-0.534,0.749-1.124,1.124-1.766,1.124c-11.024,1.606-16.537,6.69-16.537,15.252h9.793
	c1.712,0,2.568,0.856,2.568,2.569v36.928c0,1.711-0.855,2.568-2.568,2.568H2.569C0.856,74.208,0,73.35,0,71.639V39.688
	C0,14.535,12.309,1.316,36.927,0.032c0.642-0.107,1.203,0.053,1.686,0.481c0.482,0.428,0.83,0.963,1.043,1.605l2.569,11.72
	C42.439,14.589,42.332,15.231,41.904,15.766z M89.428,15.766c-0.431,0.749-1.019,1.124-1.768,1.124
	c-10.811,1.606-16.323,6.69-16.536,15.252h9.793c0.749,0,1.394,0.241,1.929,0.723c0.533,0.481,0.803,1.097,0.803,1.846v36.928
	c0,0.748-0.269,1.363-0.803,1.846c-0.537,0.48-1.18,0.725-1.929,0.725H50.252c-0.748,0-1.392-0.242-1.926-0.725
	c-0.535-0.48-0.804-1.098-0.804-1.846V39.688c0-25.151,12.359-38.371,37.086-39.654c0.644-0.107,1.205,0.053,1.688,0.481
	c0.48,0.428,0.829,0.963,1.044,1.605l2.568,11.72C90.123,14.589,89.962,15.231,89.428,15.766z"/>
</svg>
