<?xml version="1.0" encoding="utf-8"?>
<!-- Generator: Adobe Illustrator 24.0.1, SVG Export Plug-In . SVG Version: 6.00 Build 0)  -->
<svg version="1.1" id="Layer_1" xmlns="http://www.w3.org/2000/svg" xmlns:xlink="http://www.w3.org/1999/xlink" x="0px" y="0px"
	 viewBox="0 0 200 200" style="enable-background:new 0 0 200 200;" xml:space="preserve">
<style type="text/css">
	.green-star-svg{fill:#00703c;}
</style>
<g>
	<path class="green-star-svg" d="M100.2,30.7l21.2,52.7l2.5,6.2l6.7,0.1l43.9,0.4l-31.9,31.1l-4.1,4l1.3,5.5l10.6,44l-44.8-28.3l-5.3-3.4l-5.3,3.4
		l-44.8,28.3l10.6-44l1.3-5.5l-4.1-4L26,90l43.9-0.4l6.7-0.1l2.5-6.2L100.2,30.7 M100.2,3.9L69.8,79.6L1.6,80.2l49.3,48.1
		l-16.3,67.9l65.6-41.4l65.6,41.4l-16.3-67.9l49.3-48.1l-68.2-0.6L100.2,3.9L100.2,3.9z"/>
</g>
</svg>
