<?xml version="1.0" encoding="utf-8"?>
<svg width="22" height="22" viewBox="0 0 22 22" fill="none" xmlns="http://www.w3.org/2000/svg">
    <path fill-rule="evenodd" clip-rule="evenodd" d="M13.4271 15.4271C12.0372 16.4175 10.3367 17 8.5 17C3.80558 17 0 13.1944 0 8.5C0 3.80558 3.80558 0 8.5 0C13.1944 0 17 3.80558 17 8.5C17 10.3367 16.4175 12.0372 15.4271 13.4271L21.0119 19.0119C21.5621 19.5621 21.5575 20.4425 21.0117 20.9883L20.9883 21.0117C20.4439 21.5561 19.5576 21.5576 19.0119 21.0119L13.4271 15.4271ZM8.5 15C12.0899 15 15 12.0899 15 8.5C15 4.91015 12.0899 2 8.5 2C4.91015 2 2 4.91015 2 8.5C2 12.0899 4.91015 15 8.5 15Z" fill="white"/>
</svg>